G04 #@! TF.GenerationSoftware,KiCad,Pcbnew,5.1.5+dfsg1-2build2*
G04 #@! TF.CreationDate,2021-02-02T09:52:32+02:00*
G04 #@! TF.ProjectId,lm3488_dcdc,6c6d3334-3838-45f6-9463-64632e6b6963,rev?*
G04 #@! TF.SameCoordinates,Original*
G04 #@! TF.FileFunction,Legend,Bot*
G04 #@! TF.FilePolarity,Positive*
%FSLAX46Y46*%
G04 Gerber Fmt 4.6, Leading zero omitted, Abs format (unit mm)*
G04 Created by KiCad (PCBNEW 5.1.5+dfsg1-2build2) date 2021-02-02 09:52:32*
%MOMM*%
%LPD*%
G04 APERTURE LIST*
%ADD10C,0.120000*%
G04 APERTURE END LIST*
D10*
X53896078Y-20090000D02*
X53378922Y-20090000D01*
X53896078Y-21510000D02*
X53378922Y-21510000D01*
X33910000Y-30552064D02*
X33910000Y-29347936D01*
X32090000Y-30552064D02*
X32090000Y-29347936D01*
X43690000Y-26302064D02*
X43690000Y-25097936D01*
X45510000Y-26302064D02*
X45510000Y-25097936D01*
X61297936Y-21390000D02*
X62502064Y-21390000D01*
X61297936Y-23210000D02*
X62502064Y-23210000D01*
X83690000Y-21597936D02*
X83690000Y-22802064D01*
X85510000Y-21597936D02*
X85510000Y-22802064D01*
X83590000Y-32997936D02*
X83590000Y-34202064D01*
X85410000Y-32997936D02*
X85410000Y-34202064D01*
X40090000Y-33102064D02*
X40090000Y-31897936D01*
X41910000Y-33102064D02*
X41910000Y-31897936D01*
X43110000Y-26302064D02*
X43110000Y-25097936D01*
X41290000Y-26302064D02*
X41290000Y-25097936D01*
X62502064Y-23790000D02*
X61297936Y-23790000D01*
X62502064Y-25610000D02*
X61297936Y-25610000D01*
X48310000Y-30497936D02*
X48310000Y-31702064D01*
X46490000Y-30497936D02*
X46490000Y-31702064D01*
X64130000Y-26090000D02*
X60450000Y-26090000D01*
X64130000Y-28110000D02*
X60450000Y-28110000D01*
X64130000Y-26090000D02*
X64130000Y-28110000D01*
X79530000Y-19790000D02*
X79530000Y-21810000D01*
X79530000Y-21810000D02*
X75850000Y-21810000D01*
X79530000Y-19790000D02*
X75850000Y-19790000D01*
X79530000Y-31190000D02*
X79530000Y-33210000D01*
X79530000Y-33210000D02*
X75850000Y-33210000D01*
X79530000Y-31190000D02*
X75850000Y-31190000D01*
X61297936Y-20810000D02*
X62502064Y-20810000D01*
X61297936Y-18990000D02*
X62502064Y-18990000D01*
X62502064Y-16590000D02*
X61297936Y-16590000D01*
X62502064Y-18410000D02*
X61297936Y-18410000D01*
M02*
