G04 #@! TF.GenerationSoftware,KiCad,Pcbnew,5.1.5+dfsg1-2build2*
G04 #@! TF.CreationDate,2021-02-02T09:52:32+02:00*
G04 #@! TF.ProjectId,lm3488_dcdc,6c6d3334-3838-45f6-9463-64632e6b6963,rev?*
G04 #@! TF.SameCoordinates,Original*
G04 #@! TF.FileFunction,Copper,L2,Bot*
G04 #@! TF.FilePolarity,Positive*
%FSLAX46Y46*%
G04 Gerber Fmt 4.6, Leading zero omitted, Abs format (unit mm)*
G04 Created by KiCad (PCBNEW 5.1.5+dfsg1-2build2) date 2021-02-02 09:52:32*
%MOMM*%
%LPD*%
G04 APERTURE LIST*
%ADD10C,0.100000*%
%ADD11R,2.000000X2.000000*%
%ADD12C,2.000000*%
%ADD13R,2.000000X1.905000*%
%ADD14O,2.000000X1.905000*%
%ADD15R,1.300000X1.400000*%
%ADD16C,0.800000*%
%ADD17C,1.000000*%
%ADD18C,3.000000*%
%ADD19C,2.000000*%
%ADD20C,0.300000*%
%ADD21C,0.254000*%
G04 APERTURE END LIST*
G04 #@! TA.AperFunction,SMDPad,CuDef*
D10*
G36*
X54842642Y-20101174D02*
G01*
X54866303Y-20104684D01*
X54889507Y-20110496D01*
X54912029Y-20118554D01*
X54933653Y-20128782D01*
X54954170Y-20141079D01*
X54973383Y-20155329D01*
X54991107Y-20171393D01*
X55007171Y-20189117D01*
X55021421Y-20208330D01*
X55033718Y-20228847D01*
X55043946Y-20250471D01*
X55052004Y-20272993D01*
X55057816Y-20296197D01*
X55061326Y-20319858D01*
X55062500Y-20343750D01*
X55062500Y-21256250D01*
X55061326Y-21280142D01*
X55057816Y-21303803D01*
X55052004Y-21327007D01*
X55043946Y-21349529D01*
X55033718Y-21371153D01*
X55021421Y-21391670D01*
X55007171Y-21410883D01*
X54991107Y-21428607D01*
X54973383Y-21444671D01*
X54954170Y-21458921D01*
X54933653Y-21471218D01*
X54912029Y-21481446D01*
X54889507Y-21489504D01*
X54866303Y-21495316D01*
X54842642Y-21498826D01*
X54818750Y-21500000D01*
X54331250Y-21500000D01*
X54307358Y-21498826D01*
X54283697Y-21495316D01*
X54260493Y-21489504D01*
X54237971Y-21481446D01*
X54216347Y-21471218D01*
X54195830Y-21458921D01*
X54176617Y-21444671D01*
X54158893Y-21428607D01*
X54142829Y-21410883D01*
X54128579Y-21391670D01*
X54116282Y-21371153D01*
X54106054Y-21349529D01*
X54097996Y-21327007D01*
X54092184Y-21303803D01*
X54088674Y-21280142D01*
X54087500Y-21256250D01*
X54087500Y-20343750D01*
X54088674Y-20319858D01*
X54092184Y-20296197D01*
X54097996Y-20272993D01*
X54106054Y-20250471D01*
X54116282Y-20228847D01*
X54128579Y-20208330D01*
X54142829Y-20189117D01*
X54158893Y-20171393D01*
X54176617Y-20155329D01*
X54195830Y-20141079D01*
X54216347Y-20128782D01*
X54237971Y-20118554D01*
X54260493Y-20110496D01*
X54283697Y-20104684D01*
X54307358Y-20101174D01*
X54331250Y-20100000D01*
X54818750Y-20100000D01*
X54842642Y-20101174D01*
G37*
G04 #@! TD.AperFunction*
G04 #@! TA.AperFunction,SMDPad,CuDef*
G36*
X52967642Y-20101174D02*
G01*
X52991303Y-20104684D01*
X53014507Y-20110496D01*
X53037029Y-20118554D01*
X53058653Y-20128782D01*
X53079170Y-20141079D01*
X53098383Y-20155329D01*
X53116107Y-20171393D01*
X53132171Y-20189117D01*
X53146421Y-20208330D01*
X53158718Y-20228847D01*
X53168946Y-20250471D01*
X53177004Y-20272993D01*
X53182816Y-20296197D01*
X53186326Y-20319858D01*
X53187500Y-20343750D01*
X53187500Y-21256250D01*
X53186326Y-21280142D01*
X53182816Y-21303803D01*
X53177004Y-21327007D01*
X53168946Y-21349529D01*
X53158718Y-21371153D01*
X53146421Y-21391670D01*
X53132171Y-21410883D01*
X53116107Y-21428607D01*
X53098383Y-21444671D01*
X53079170Y-21458921D01*
X53058653Y-21471218D01*
X53037029Y-21481446D01*
X53014507Y-21489504D01*
X52991303Y-21495316D01*
X52967642Y-21498826D01*
X52943750Y-21500000D01*
X52456250Y-21500000D01*
X52432358Y-21498826D01*
X52408697Y-21495316D01*
X52385493Y-21489504D01*
X52362971Y-21481446D01*
X52341347Y-21471218D01*
X52320830Y-21458921D01*
X52301617Y-21444671D01*
X52283893Y-21428607D01*
X52267829Y-21410883D01*
X52253579Y-21391670D01*
X52241282Y-21371153D01*
X52231054Y-21349529D01*
X52222996Y-21327007D01*
X52217184Y-21303803D01*
X52213674Y-21280142D01*
X52212500Y-21256250D01*
X52212500Y-20343750D01*
X52213674Y-20319858D01*
X52217184Y-20296197D01*
X52222996Y-20272993D01*
X52231054Y-20250471D01*
X52241282Y-20228847D01*
X52253579Y-20208330D01*
X52267829Y-20189117D01*
X52283893Y-20171393D01*
X52301617Y-20155329D01*
X52320830Y-20141079D01*
X52341347Y-20128782D01*
X52362971Y-20118554D01*
X52385493Y-20110496D01*
X52408697Y-20104684D01*
X52432358Y-20101174D01*
X52456250Y-20100000D01*
X52943750Y-20100000D01*
X52967642Y-20101174D01*
G37*
G04 #@! TD.AperFunction*
G04 #@! TA.AperFunction,SMDPad,CuDef*
G36*
X33649504Y-30726204D02*
G01*
X33673773Y-30729804D01*
X33697571Y-30735765D01*
X33720671Y-30744030D01*
X33742849Y-30754520D01*
X33763893Y-30767133D01*
X33783598Y-30781747D01*
X33801777Y-30798223D01*
X33818253Y-30816402D01*
X33832867Y-30836107D01*
X33845480Y-30857151D01*
X33855970Y-30879329D01*
X33864235Y-30902429D01*
X33870196Y-30926227D01*
X33873796Y-30950496D01*
X33875000Y-30975000D01*
X33875000Y-31725000D01*
X33873796Y-31749504D01*
X33870196Y-31773773D01*
X33864235Y-31797571D01*
X33855970Y-31820671D01*
X33845480Y-31842849D01*
X33832867Y-31863893D01*
X33818253Y-31883598D01*
X33801777Y-31901777D01*
X33783598Y-31918253D01*
X33763893Y-31932867D01*
X33742849Y-31945480D01*
X33720671Y-31955970D01*
X33697571Y-31964235D01*
X33673773Y-31970196D01*
X33649504Y-31973796D01*
X33625000Y-31975000D01*
X32375000Y-31975000D01*
X32350496Y-31973796D01*
X32326227Y-31970196D01*
X32302429Y-31964235D01*
X32279329Y-31955970D01*
X32257151Y-31945480D01*
X32236107Y-31932867D01*
X32216402Y-31918253D01*
X32198223Y-31901777D01*
X32181747Y-31883598D01*
X32167133Y-31863893D01*
X32154520Y-31842849D01*
X32144030Y-31820671D01*
X32135765Y-31797571D01*
X32129804Y-31773773D01*
X32126204Y-31749504D01*
X32125000Y-31725000D01*
X32125000Y-30975000D01*
X32126204Y-30950496D01*
X32129804Y-30926227D01*
X32135765Y-30902429D01*
X32144030Y-30879329D01*
X32154520Y-30857151D01*
X32167133Y-30836107D01*
X32181747Y-30816402D01*
X32198223Y-30798223D01*
X32216402Y-30781747D01*
X32236107Y-30767133D01*
X32257151Y-30754520D01*
X32279329Y-30744030D01*
X32302429Y-30735765D01*
X32326227Y-30729804D01*
X32350496Y-30726204D01*
X32375000Y-30725000D01*
X33625000Y-30725000D01*
X33649504Y-30726204D01*
G37*
G04 #@! TD.AperFunction*
G04 #@! TA.AperFunction,SMDPad,CuDef*
G36*
X33649504Y-27926204D02*
G01*
X33673773Y-27929804D01*
X33697571Y-27935765D01*
X33720671Y-27944030D01*
X33742849Y-27954520D01*
X33763893Y-27967133D01*
X33783598Y-27981747D01*
X33801777Y-27998223D01*
X33818253Y-28016402D01*
X33832867Y-28036107D01*
X33845480Y-28057151D01*
X33855970Y-28079329D01*
X33864235Y-28102429D01*
X33870196Y-28126227D01*
X33873796Y-28150496D01*
X33875000Y-28175000D01*
X33875000Y-28925000D01*
X33873796Y-28949504D01*
X33870196Y-28973773D01*
X33864235Y-28997571D01*
X33855970Y-29020671D01*
X33845480Y-29042849D01*
X33832867Y-29063893D01*
X33818253Y-29083598D01*
X33801777Y-29101777D01*
X33783598Y-29118253D01*
X33763893Y-29132867D01*
X33742849Y-29145480D01*
X33720671Y-29155970D01*
X33697571Y-29164235D01*
X33673773Y-29170196D01*
X33649504Y-29173796D01*
X33625000Y-29175000D01*
X32375000Y-29175000D01*
X32350496Y-29173796D01*
X32326227Y-29170196D01*
X32302429Y-29164235D01*
X32279329Y-29155970D01*
X32257151Y-29145480D01*
X32236107Y-29132867D01*
X32216402Y-29118253D01*
X32198223Y-29101777D01*
X32181747Y-29083598D01*
X32167133Y-29063893D01*
X32154520Y-29042849D01*
X32144030Y-29020671D01*
X32135765Y-28997571D01*
X32129804Y-28973773D01*
X32126204Y-28949504D01*
X32125000Y-28925000D01*
X32125000Y-28175000D01*
X32126204Y-28150496D01*
X32129804Y-28126227D01*
X32135765Y-28102429D01*
X32144030Y-28079329D01*
X32154520Y-28057151D01*
X32167133Y-28036107D01*
X32181747Y-28016402D01*
X32198223Y-27998223D01*
X32216402Y-27981747D01*
X32236107Y-27967133D01*
X32257151Y-27954520D01*
X32279329Y-27944030D01*
X32302429Y-27935765D01*
X32326227Y-27929804D01*
X32350496Y-27926204D01*
X32375000Y-27925000D01*
X33625000Y-27925000D01*
X33649504Y-27926204D01*
G37*
G04 #@! TD.AperFunction*
D11*
X19800000Y-33300000D03*
D12*
X24800000Y-33300000D03*
G04 #@! TA.AperFunction,SMDPad,CuDef*
D10*
G36*
X45249504Y-23676204D02*
G01*
X45273773Y-23679804D01*
X45297571Y-23685765D01*
X45320671Y-23694030D01*
X45342849Y-23704520D01*
X45363893Y-23717133D01*
X45383598Y-23731747D01*
X45401777Y-23748223D01*
X45418253Y-23766402D01*
X45432867Y-23786107D01*
X45445480Y-23807151D01*
X45455970Y-23829329D01*
X45464235Y-23852429D01*
X45470196Y-23876227D01*
X45473796Y-23900496D01*
X45475000Y-23925000D01*
X45475000Y-24675000D01*
X45473796Y-24699504D01*
X45470196Y-24723773D01*
X45464235Y-24747571D01*
X45455970Y-24770671D01*
X45445480Y-24792849D01*
X45432867Y-24813893D01*
X45418253Y-24833598D01*
X45401777Y-24851777D01*
X45383598Y-24868253D01*
X45363893Y-24882867D01*
X45342849Y-24895480D01*
X45320671Y-24905970D01*
X45297571Y-24914235D01*
X45273773Y-24920196D01*
X45249504Y-24923796D01*
X45225000Y-24925000D01*
X43975000Y-24925000D01*
X43950496Y-24923796D01*
X43926227Y-24920196D01*
X43902429Y-24914235D01*
X43879329Y-24905970D01*
X43857151Y-24895480D01*
X43836107Y-24882867D01*
X43816402Y-24868253D01*
X43798223Y-24851777D01*
X43781747Y-24833598D01*
X43767133Y-24813893D01*
X43754520Y-24792849D01*
X43744030Y-24770671D01*
X43735765Y-24747571D01*
X43729804Y-24723773D01*
X43726204Y-24699504D01*
X43725000Y-24675000D01*
X43725000Y-23925000D01*
X43726204Y-23900496D01*
X43729804Y-23876227D01*
X43735765Y-23852429D01*
X43744030Y-23829329D01*
X43754520Y-23807151D01*
X43767133Y-23786107D01*
X43781747Y-23766402D01*
X43798223Y-23748223D01*
X43816402Y-23731747D01*
X43836107Y-23717133D01*
X43857151Y-23704520D01*
X43879329Y-23694030D01*
X43902429Y-23685765D01*
X43926227Y-23679804D01*
X43950496Y-23676204D01*
X43975000Y-23675000D01*
X45225000Y-23675000D01*
X45249504Y-23676204D01*
G37*
G04 #@! TD.AperFunction*
G04 #@! TA.AperFunction,SMDPad,CuDef*
G36*
X45249504Y-26476204D02*
G01*
X45273773Y-26479804D01*
X45297571Y-26485765D01*
X45320671Y-26494030D01*
X45342849Y-26504520D01*
X45363893Y-26517133D01*
X45383598Y-26531747D01*
X45401777Y-26548223D01*
X45418253Y-26566402D01*
X45432867Y-26586107D01*
X45445480Y-26607151D01*
X45455970Y-26629329D01*
X45464235Y-26652429D01*
X45470196Y-26676227D01*
X45473796Y-26700496D01*
X45475000Y-26725000D01*
X45475000Y-27475000D01*
X45473796Y-27499504D01*
X45470196Y-27523773D01*
X45464235Y-27547571D01*
X45455970Y-27570671D01*
X45445480Y-27592849D01*
X45432867Y-27613893D01*
X45418253Y-27633598D01*
X45401777Y-27651777D01*
X45383598Y-27668253D01*
X45363893Y-27682867D01*
X45342849Y-27695480D01*
X45320671Y-27705970D01*
X45297571Y-27714235D01*
X45273773Y-27720196D01*
X45249504Y-27723796D01*
X45225000Y-27725000D01*
X43975000Y-27725000D01*
X43950496Y-27723796D01*
X43926227Y-27720196D01*
X43902429Y-27714235D01*
X43879329Y-27705970D01*
X43857151Y-27695480D01*
X43836107Y-27682867D01*
X43816402Y-27668253D01*
X43798223Y-27651777D01*
X43781747Y-27633598D01*
X43767133Y-27613893D01*
X43754520Y-27592849D01*
X43744030Y-27570671D01*
X43735765Y-27547571D01*
X43729804Y-27523773D01*
X43726204Y-27499504D01*
X43725000Y-27475000D01*
X43725000Y-26725000D01*
X43726204Y-26700496D01*
X43729804Y-26676227D01*
X43735765Y-26652429D01*
X43744030Y-26629329D01*
X43754520Y-26607151D01*
X43767133Y-26586107D01*
X43781747Y-26566402D01*
X43798223Y-26548223D01*
X43816402Y-26531747D01*
X43836107Y-26517133D01*
X43857151Y-26504520D01*
X43879329Y-26494030D01*
X43902429Y-26485765D01*
X43926227Y-26479804D01*
X43950496Y-26476204D01*
X43975000Y-26475000D01*
X45225000Y-26475000D01*
X45249504Y-26476204D01*
G37*
G04 #@! TD.AperFunction*
G04 #@! TA.AperFunction,SMDPad,CuDef*
G36*
X63699504Y-21426204D02*
G01*
X63723773Y-21429804D01*
X63747571Y-21435765D01*
X63770671Y-21444030D01*
X63792849Y-21454520D01*
X63813893Y-21467133D01*
X63833598Y-21481747D01*
X63851777Y-21498223D01*
X63868253Y-21516402D01*
X63882867Y-21536107D01*
X63895480Y-21557151D01*
X63905970Y-21579329D01*
X63914235Y-21602429D01*
X63920196Y-21626227D01*
X63923796Y-21650496D01*
X63925000Y-21675000D01*
X63925000Y-22925000D01*
X63923796Y-22949504D01*
X63920196Y-22973773D01*
X63914235Y-22997571D01*
X63905970Y-23020671D01*
X63895480Y-23042849D01*
X63882867Y-23063893D01*
X63868253Y-23083598D01*
X63851777Y-23101777D01*
X63833598Y-23118253D01*
X63813893Y-23132867D01*
X63792849Y-23145480D01*
X63770671Y-23155970D01*
X63747571Y-23164235D01*
X63723773Y-23170196D01*
X63699504Y-23173796D01*
X63675000Y-23175000D01*
X62925000Y-23175000D01*
X62900496Y-23173796D01*
X62876227Y-23170196D01*
X62852429Y-23164235D01*
X62829329Y-23155970D01*
X62807151Y-23145480D01*
X62786107Y-23132867D01*
X62766402Y-23118253D01*
X62748223Y-23101777D01*
X62731747Y-23083598D01*
X62717133Y-23063893D01*
X62704520Y-23042849D01*
X62694030Y-23020671D01*
X62685765Y-22997571D01*
X62679804Y-22973773D01*
X62676204Y-22949504D01*
X62675000Y-22925000D01*
X62675000Y-21675000D01*
X62676204Y-21650496D01*
X62679804Y-21626227D01*
X62685765Y-21602429D01*
X62694030Y-21579329D01*
X62704520Y-21557151D01*
X62717133Y-21536107D01*
X62731747Y-21516402D01*
X62748223Y-21498223D01*
X62766402Y-21481747D01*
X62786107Y-21467133D01*
X62807151Y-21454520D01*
X62829329Y-21444030D01*
X62852429Y-21435765D01*
X62876227Y-21429804D01*
X62900496Y-21426204D01*
X62925000Y-21425000D01*
X63675000Y-21425000D01*
X63699504Y-21426204D01*
G37*
G04 #@! TD.AperFunction*
G04 #@! TA.AperFunction,SMDPad,CuDef*
G36*
X60899504Y-21426204D02*
G01*
X60923773Y-21429804D01*
X60947571Y-21435765D01*
X60970671Y-21444030D01*
X60992849Y-21454520D01*
X61013893Y-21467133D01*
X61033598Y-21481747D01*
X61051777Y-21498223D01*
X61068253Y-21516402D01*
X61082867Y-21536107D01*
X61095480Y-21557151D01*
X61105970Y-21579329D01*
X61114235Y-21602429D01*
X61120196Y-21626227D01*
X61123796Y-21650496D01*
X61125000Y-21675000D01*
X61125000Y-22925000D01*
X61123796Y-22949504D01*
X61120196Y-22973773D01*
X61114235Y-22997571D01*
X61105970Y-23020671D01*
X61095480Y-23042849D01*
X61082867Y-23063893D01*
X61068253Y-23083598D01*
X61051777Y-23101777D01*
X61033598Y-23118253D01*
X61013893Y-23132867D01*
X60992849Y-23145480D01*
X60970671Y-23155970D01*
X60947571Y-23164235D01*
X60923773Y-23170196D01*
X60899504Y-23173796D01*
X60875000Y-23175000D01*
X60125000Y-23175000D01*
X60100496Y-23173796D01*
X60076227Y-23170196D01*
X60052429Y-23164235D01*
X60029329Y-23155970D01*
X60007151Y-23145480D01*
X59986107Y-23132867D01*
X59966402Y-23118253D01*
X59948223Y-23101777D01*
X59931747Y-23083598D01*
X59917133Y-23063893D01*
X59904520Y-23042849D01*
X59894030Y-23020671D01*
X59885765Y-22997571D01*
X59879804Y-22973773D01*
X59876204Y-22949504D01*
X59875000Y-22925000D01*
X59875000Y-21675000D01*
X59876204Y-21650496D01*
X59879804Y-21626227D01*
X59885765Y-21602429D01*
X59894030Y-21579329D01*
X59904520Y-21557151D01*
X59917133Y-21536107D01*
X59931747Y-21516402D01*
X59948223Y-21498223D01*
X59966402Y-21481747D01*
X59986107Y-21467133D01*
X60007151Y-21454520D01*
X60029329Y-21444030D01*
X60052429Y-21435765D01*
X60076227Y-21429804D01*
X60100496Y-21426204D01*
X60125000Y-21425000D01*
X60875000Y-21425000D01*
X60899504Y-21426204D01*
G37*
G04 #@! TD.AperFunction*
D11*
X82000000Y-20800000D03*
D12*
X82000000Y-25800000D03*
X82000000Y-37200000D03*
D11*
X82000000Y-32200000D03*
D12*
X38500000Y-28900000D03*
D11*
X38500000Y-33900000D03*
G04 #@! TA.AperFunction,SMDPad,CuDef*
D10*
G36*
X85249504Y-20176204D02*
G01*
X85273773Y-20179804D01*
X85297571Y-20185765D01*
X85320671Y-20194030D01*
X85342849Y-20204520D01*
X85363893Y-20217133D01*
X85383598Y-20231747D01*
X85401777Y-20248223D01*
X85418253Y-20266402D01*
X85432867Y-20286107D01*
X85445480Y-20307151D01*
X85455970Y-20329329D01*
X85464235Y-20352429D01*
X85470196Y-20376227D01*
X85473796Y-20400496D01*
X85475000Y-20425000D01*
X85475000Y-21175000D01*
X85473796Y-21199504D01*
X85470196Y-21223773D01*
X85464235Y-21247571D01*
X85455970Y-21270671D01*
X85445480Y-21292849D01*
X85432867Y-21313893D01*
X85418253Y-21333598D01*
X85401777Y-21351777D01*
X85383598Y-21368253D01*
X85363893Y-21382867D01*
X85342849Y-21395480D01*
X85320671Y-21405970D01*
X85297571Y-21414235D01*
X85273773Y-21420196D01*
X85249504Y-21423796D01*
X85225000Y-21425000D01*
X83975000Y-21425000D01*
X83950496Y-21423796D01*
X83926227Y-21420196D01*
X83902429Y-21414235D01*
X83879329Y-21405970D01*
X83857151Y-21395480D01*
X83836107Y-21382867D01*
X83816402Y-21368253D01*
X83798223Y-21351777D01*
X83781747Y-21333598D01*
X83767133Y-21313893D01*
X83754520Y-21292849D01*
X83744030Y-21270671D01*
X83735765Y-21247571D01*
X83729804Y-21223773D01*
X83726204Y-21199504D01*
X83725000Y-21175000D01*
X83725000Y-20425000D01*
X83726204Y-20400496D01*
X83729804Y-20376227D01*
X83735765Y-20352429D01*
X83744030Y-20329329D01*
X83754520Y-20307151D01*
X83767133Y-20286107D01*
X83781747Y-20266402D01*
X83798223Y-20248223D01*
X83816402Y-20231747D01*
X83836107Y-20217133D01*
X83857151Y-20204520D01*
X83879329Y-20194030D01*
X83902429Y-20185765D01*
X83926227Y-20179804D01*
X83950496Y-20176204D01*
X83975000Y-20175000D01*
X85225000Y-20175000D01*
X85249504Y-20176204D01*
G37*
G04 #@! TD.AperFunction*
G04 #@! TA.AperFunction,SMDPad,CuDef*
G36*
X85249504Y-22976204D02*
G01*
X85273773Y-22979804D01*
X85297571Y-22985765D01*
X85320671Y-22994030D01*
X85342849Y-23004520D01*
X85363893Y-23017133D01*
X85383598Y-23031747D01*
X85401777Y-23048223D01*
X85418253Y-23066402D01*
X85432867Y-23086107D01*
X85445480Y-23107151D01*
X85455970Y-23129329D01*
X85464235Y-23152429D01*
X85470196Y-23176227D01*
X85473796Y-23200496D01*
X85475000Y-23225000D01*
X85475000Y-23975000D01*
X85473796Y-23999504D01*
X85470196Y-24023773D01*
X85464235Y-24047571D01*
X85455970Y-24070671D01*
X85445480Y-24092849D01*
X85432867Y-24113893D01*
X85418253Y-24133598D01*
X85401777Y-24151777D01*
X85383598Y-24168253D01*
X85363893Y-24182867D01*
X85342849Y-24195480D01*
X85320671Y-24205970D01*
X85297571Y-24214235D01*
X85273773Y-24220196D01*
X85249504Y-24223796D01*
X85225000Y-24225000D01*
X83975000Y-24225000D01*
X83950496Y-24223796D01*
X83926227Y-24220196D01*
X83902429Y-24214235D01*
X83879329Y-24205970D01*
X83857151Y-24195480D01*
X83836107Y-24182867D01*
X83816402Y-24168253D01*
X83798223Y-24151777D01*
X83781747Y-24133598D01*
X83767133Y-24113893D01*
X83754520Y-24092849D01*
X83744030Y-24070671D01*
X83735765Y-24047571D01*
X83729804Y-24023773D01*
X83726204Y-23999504D01*
X83725000Y-23975000D01*
X83725000Y-23225000D01*
X83726204Y-23200496D01*
X83729804Y-23176227D01*
X83735765Y-23152429D01*
X83744030Y-23129329D01*
X83754520Y-23107151D01*
X83767133Y-23086107D01*
X83781747Y-23066402D01*
X83798223Y-23048223D01*
X83816402Y-23031747D01*
X83836107Y-23017133D01*
X83857151Y-23004520D01*
X83879329Y-22994030D01*
X83902429Y-22985765D01*
X83926227Y-22979804D01*
X83950496Y-22976204D01*
X83975000Y-22975000D01*
X85225000Y-22975000D01*
X85249504Y-22976204D01*
G37*
G04 #@! TD.AperFunction*
G04 #@! TA.AperFunction,SMDPad,CuDef*
G36*
X85149504Y-31576204D02*
G01*
X85173773Y-31579804D01*
X85197571Y-31585765D01*
X85220671Y-31594030D01*
X85242849Y-31604520D01*
X85263893Y-31617133D01*
X85283598Y-31631747D01*
X85301777Y-31648223D01*
X85318253Y-31666402D01*
X85332867Y-31686107D01*
X85345480Y-31707151D01*
X85355970Y-31729329D01*
X85364235Y-31752429D01*
X85370196Y-31776227D01*
X85373796Y-31800496D01*
X85375000Y-31825000D01*
X85375000Y-32575000D01*
X85373796Y-32599504D01*
X85370196Y-32623773D01*
X85364235Y-32647571D01*
X85355970Y-32670671D01*
X85345480Y-32692849D01*
X85332867Y-32713893D01*
X85318253Y-32733598D01*
X85301777Y-32751777D01*
X85283598Y-32768253D01*
X85263893Y-32782867D01*
X85242849Y-32795480D01*
X85220671Y-32805970D01*
X85197571Y-32814235D01*
X85173773Y-32820196D01*
X85149504Y-32823796D01*
X85125000Y-32825000D01*
X83875000Y-32825000D01*
X83850496Y-32823796D01*
X83826227Y-32820196D01*
X83802429Y-32814235D01*
X83779329Y-32805970D01*
X83757151Y-32795480D01*
X83736107Y-32782867D01*
X83716402Y-32768253D01*
X83698223Y-32751777D01*
X83681747Y-32733598D01*
X83667133Y-32713893D01*
X83654520Y-32692849D01*
X83644030Y-32670671D01*
X83635765Y-32647571D01*
X83629804Y-32623773D01*
X83626204Y-32599504D01*
X83625000Y-32575000D01*
X83625000Y-31825000D01*
X83626204Y-31800496D01*
X83629804Y-31776227D01*
X83635765Y-31752429D01*
X83644030Y-31729329D01*
X83654520Y-31707151D01*
X83667133Y-31686107D01*
X83681747Y-31666402D01*
X83698223Y-31648223D01*
X83716402Y-31631747D01*
X83736107Y-31617133D01*
X83757151Y-31604520D01*
X83779329Y-31594030D01*
X83802429Y-31585765D01*
X83826227Y-31579804D01*
X83850496Y-31576204D01*
X83875000Y-31575000D01*
X85125000Y-31575000D01*
X85149504Y-31576204D01*
G37*
G04 #@! TD.AperFunction*
G04 #@! TA.AperFunction,SMDPad,CuDef*
G36*
X85149504Y-34376204D02*
G01*
X85173773Y-34379804D01*
X85197571Y-34385765D01*
X85220671Y-34394030D01*
X85242849Y-34404520D01*
X85263893Y-34417133D01*
X85283598Y-34431747D01*
X85301777Y-34448223D01*
X85318253Y-34466402D01*
X85332867Y-34486107D01*
X85345480Y-34507151D01*
X85355970Y-34529329D01*
X85364235Y-34552429D01*
X85370196Y-34576227D01*
X85373796Y-34600496D01*
X85375000Y-34625000D01*
X85375000Y-35375000D01*
X85373796Y-35399504D01*
X85370196Y-35423773D01*
X85364235Y-35447571D01*
X85355970Y-35470671D01*
X85345480Y-35492849D01*
X85332867Y-35513893D01*
X85318253Y-35533598D01*
X85301777Y-35551777D01*
X85283598Y-35568253D01*
X85263893Y-35582867D01*
X85242849Y-35595480D01*
X85220671Y-35605970D01*
X85197571Y-35614235D01*
X85173773Y-35620196D01*
X85149504Y-35623796D01*
X85125000Y-35625000D01*
X83875000Y-35625000D01*
X83850496Y-35623796D01*
X83826227Y-35620196D01*
X83802429Y-35614235D01*
X83779329Y-35605970D01*
X83757151Y-35595480D01*
X83736107Y-35582867D01*
X83716402Y-35568253D01*
X83698223Y-35551777D01*
X83681747Y-35533598D01*
X83667133Y-35513893D01*
X83654520Y-35492849D01*
X83644030Y-35470671D01*
X83635765Y-35447571D01*
X83629804Y-35423773D01*
X83626204Y-35399504D01*
X83625000Y-35375000D01*
X83625000Y-34625000D01*
X83626204Y-34600496D01*
X83629804Y-34576227D01*
X83635765Y-34552429D01*
X83644030Y-34529329D01*
X83654520Y-34507151D01*
X83667133Y-34486107D01*
X83681747Y-34466402D01*
X83698223Y-34448223D01*
X83716402Y-34431747D01*
X83736107Y-34417133D01*
X83757151Y-34404520D01*
X83779329Y-34394030D01*
X83802429Y-34385765D01*
X83826227Y-34379804D01*
X83850496Y-34376204D01*
X83875000Y-34375000D01*
X85125000Y-34375000D01*
X85149504Y-34376204D01*
G37*
G04 #@! TD.AperFunction*
G04 #@! TA.AperFunction,SMDPad,CuDef*
G36*
X41649504Y-30476204D02*
G01*
X41673773Y-30479804D01*
X41697571Y-30485765D01*
X41720671Y-30494030D01*
X41742849Y-30504520D01*
X41763893Y-30517133D01*
X41783598Y-30531747D01*
X41801777Y-30548223D01*
X41818253Y-30566402D01*
X41832867Y-30586107D01*
X41845480Y-30607151D01*
X41855970Y-30629329D01*
X41864235Y-30652429D01*
X41870196Y-30676227D01*
X41873796Y-30700496D01*
X41875000Y-30725000D01*
X41875000Y-31475000D01*
X41873796Y-31499504D01*
X41870196Y-31523773D01*
X41864235Y-31547571D01*
X41855970Y-31570671D01*
X41845480Y-31592849D01*
X41832867Y-31613893D01*
X41818253Y-31633598D01*
X41801777Y-31651777D01*
X41783598Y-31668253D01*
X41763893Y-31682867D01*
X41742849Y-31695480D01*
X41720671Y-31705970D01*
X41697571Y-31714235D01*
X41673773Y-31720196D01*
X41649504Y-31723796D01*
X41625000Y-31725000D01*
X40375000Y-31725000D01*
X40350496Y-31723796D01*
X40326227Y-31720196D01*
X40302429Y-31714235D01*
X40279329Y-31705970D01*
X40257151Y-31695480D01*
X40236107Y-31682867D01*
X40216402Y-31668253D01*
X40198223Y-31651777D01*
X40181747Y-31633598D01*
X40167133Y-31613893D01*
X40154520Y-31592849D01*
X40144030Y-31570671D01*
X40135765Y-31547571D01*
X40129804Y-31523773D01*
X40126204Y-31499504D01*
X40125000Y-31475000D01*
X40125000Y-30725000D01*
X40126204Y-30700496D01*
X40129804Y-30676227D01*
X40135765Y-30652429D01*
X40144030Y-30629329D01*
X40154520Y-30607151D01*
X40167133Y-30586107D01*
X40181747Y-30566402D01*
X40198223Y-30548223D01*
X40216402Y-30531747D01*
X40236107Y-30517133D01*
X40257151Y-30504520D01*
X40279329Y-30494030D01*
X40302429Y-30485765D01*
X40326227Y-30479804D01*
X40350496Y-30476204D01*
X40375000Y-30475000D01*
X41625000Y-30475000D01*
X41649504Y-30476204D01*
G37*
G04 #@! TD.AperFunction*
G04 #@! TA.AperFunction,SMDPad,CuDef*
G36*
X41649504Y-33276204D02*
G01*
X41673773Y-33279804D01*
X41697571Y-33285765D01*
X41720671Y-33294030D01*
X41742849Y-33304520D01*
X41763893Y-33317133D01*
X41783598Y-33331747D01*
X41801777Y-33348223D01*
X41818253Y-33366402D01*
X41832867Y-33386107D01*
X41845480Y-33407151D01*
X41855970Y-33429329D01*
X41864235Y-33452429D01*
X41870196Y-33476227D01*
X41873796Y-33500496D01*
X41875000Y-33525000D01*
X41875000Y-34275000D01*
X41873796Y-34299504D01*
X41870196Y-34323773D01*
X41864235Y-34347571D01*
X41855970Y-34370671D01*
X41845480Y-34392849D01*
X41832867Y-34413893D01*
X41818253Y-34433598D01*
X41801777Y-34451777D01*
X41783598Y-34468253D01*
X41763893Y-34482867D01*
X41742849Y-34495480D01*
X41720671Y-34505970D01*
X41697571Y-34514235D01*
X41673773Y-34520196D01*
X41649504Y-34523796D01*
X41625000Y-34525000D01*
X40375000Y-34525000D01*
X40350496Y-34523796D01*
X40326227Y-34520196D01*
X40302429Y-34514235D01*
X40279329Y-34505970D01*
X40257151Y-34495480D01*
X40236107Y-34482867D01*
X40216402Y-34468253D01*
X40198223Y-34451777D01*
X40181747Y-34433598D01*
X40167133Y-34413893D01*
X40154520Y-34392849D01*
X40144030Y-34370671D01*
X40135765Y-34347571D01*
X40129804Y-34323773D01*
X40126204Y-34299504D01*
X40125000Y-34275000D01*
X40125000Y-33525000D01*
X40126204Y-33500496D01*
X40129804Y-33476227D01*
X40135765Y-33452429D01*
X40144030Y-33429329D01*
X40154520Y-33407151D01*
X40167133Y-33386107D01*
X40181747Y-33366402D01*
X40198223Y-33348223D01*
X40216402Y-33331747D01*
X40236107Y-33317133D01*
X40257151Y-33304520D01*
X40279329Y-33294030D01*
X40302429Y-33285765D01*
X40326227Y-33279804D01*
X40350496Y-33276204D01*
X40375000Y-33275000D01*
X41625000Y-33275000D01*
X41649504Y-33276204D01*
G37*
G04 #@! TD.AperFunction*
D12*
X19900000Y-20000000D03*
X19900000Y-25000000D03*
X89600000Y-25800000D03*
X89600000Y-20800000D03*
X49000000Y-37500000D03*
X44000000Y-37500000D03*
X89500000Y-32200000D03*
X89500000Y-37200000D03*
D13*
X47400000Y-22000000D03*
D14*
X47400000Y-24540000D03*
X47400000Y-27080000D03*
G04 #@! TA.AperFunction,SMDPad,CuDef*
D10*
G36*
X42849504Y-26476204D02*
G01*
X42873773Y-26479804D01*
X42897571Y-26485765D01*
X42920671Y-26494030D01*
X42942849Y-26504520D01*
X42963893Y-26517133D01*
X42983598Y-26531747D01*
X43001777Y-26548223D01*
X43018253Y-26566402D01*
X43032867Y-26586107D01*
X43045480Y-26607151D01*
X43055970Y-26629329D01*
X43064235Y-26652429D01*
X43070196Y-26676227D01*
X43073796Y-26700496D01*
X43075000Y-26725000D01*
X43075000Y-27475000D01*
X43073796Y-27499504D01*
X43070196Y-27523773D01*
X43064235Y-27547571D01*
X43055970Y-27570671D01*
X43045480Y-27592849D01*
X43032867Y-27613893D01*
X43018253Y-27633598D01*
X43001777Y-27651777D01*
X42983598Y-27668253D01*
X42963893Y-27682867D01*
X42942849Y-27695480D01*
X42920671Y-27705970D01*
X42897571Y-27714235D01*
X42873773Y-27720196D01*
X42849504Y-27723796D01*
X42825000Y-27725000D01*
X41575000Y-27725000D01*
X41550496Y-27723796D01*
X41526227Y-27720196D01*
X41502429Y-27714235D01*
X41479329Y-27705970D01*
X41457151Y-27695480D01*
X41436107Y-27682867D01*
X41416402Y-27668253D01*
X41398223Y-27651777D01*
X41381747Y-27633598D01*
X41367133Y-27613893D01*
X41354520Y-27592849D01*
X41344030Y-27570671D01*
X41335765Y-27547571D01*
X41329804Y-27523773D01*
X41326204Y-27499504D01*
X41325000Y-27475000D01*
X41325000Y-26725000D01*
X41326204Y-26700496D01*
X41329804Y-26676227D01*
X41335765Y-26652429D01*
X41344030Y-26629329D01*
X41354520Y-26607151D01*
X41367133Y-26586107D01*
X41381747Y-26566402D01*
X41398223Y-26548223D01*
X41416402Y-26531747D01*
X41436107Y-26517133D01*
X41457151Y-26504520D01*
X41479329Y-26494030D01*
X41502429Y-26485765D01*
X41526227Y-26479804D01*
X41550496Y-26476204D01*
X41575000Y-26475000D01*
X42825000Y-26475000D01*
X42849504Y-26476204D01*
G37*
G04 #@! TD.AperFunction*
G04 #@! TA.AperFunction,SMDPad,CuDef*
G36*
X42849504Y-23676204D02*
G01*
X42873773Y-23679804D01*
X42897571Y-23685765D01*
X42920671Y-23694030D01*
X42942849Y-23704520D01*
X42963893Y-23717133D01*
X42983598Y-23731747D01*
X43001777Y-23748223D01*
X43018253Y-23766402D01*
X43032867Y-23786107D01*
X43045480Y-23807151D01*
X43055970Y-23829329D01*
X43064235Y-23852429D01*
X43070196Y-23876227D01*
X43073796Y-23900496D01*
X43075000Y-23925000D01*
X43075000Y-24675000D01*
X43073796Y-24699504D01*
X43070196Y-24723773D01*
X43064235Y-24747571D01*
X43055970Y-24770671D01*
X43045480Y-24792849D01*
X43032867Y-24813893D01*
X43018253Y-24833598D01*
X43001777Y-24851777D01*
X42983598Y-24868253D01*
X42963893Y-24882867D01*
X42942849Y-24895480D01*
X42920671Y-24905970D01*
X42897571Y-24914235D01*
X42873773Y-24920196D01*
X42849504Y-24923796D01*
X42825000Y-24925000D01*
X41575000Y-24925000D01*
X41550496Y-24923796D01*
X41526227Y-24920196D01*
X41502429Y-24914235D01*
X41479329Y-24905970D01*
X41457151Y-24895480D01*
X41436107Y-24882867D01*
X41416402Y-24868253D01*
X41398223Y-24851777D01*
X41381747Y-24833598D01*
X41367133Y-24813893D01*
X41354520Y-24792849D01*
X41344030Y-24770671D01*
X41335765Y-24747571D01*
X41329804Y-24723773D01*
X41326204Y-24699504D01*
X41325000Y-24675000D01*
X41325000Y-23925000D01*
X41326204Y-23900496D01*
X41329804Y-23876227D01*
X41335765Y-23852429D01*
X41344030Y-23829329D01*
X41354520Y-23807151D01*
X41367133Y-23786107D01*
X41381747Y-23766402D01*
X41398223Y-23748223D01*
X41416402Y-23731747D01*
X41436107Y-23717133D01*
X41457151Y-23704520D01*
X41479329Y-23694030D01*
X41502429Y-23685765D01*
X41526227Y-23679804D01*
X41550496Y-23676204D01*
X41575000Y-23675000D01*
X42825000Y-23675000D01*
X42849504Y-23676204D01*
G37*
G04 #@! TD.AperFunction*
G04 #@! TA.AperFunction,SMDPad,CuDef*
G36*
X63699504Y-23826204D02*
G01*
X63723773Y-23829804D01*
X63747571Y-23835765D01*
X63770671Y-23844030D01*
X63792849Y-23854520D01*
X63813893Y-23867133D01*
X63833598Y-23881747D01*
X63851777Y-23898223D01*
X63868253Y-23916402D01*
X63882867Y-23936107D01*
X63895480Y-23957151D01*
X63905970Y-23979329D01*
X63914235Y-24002429D01*
X63920196Y-24026227D01*
X63923796Y-24050496D01*
X63925000Y-24075000D01*
X63925000Y-25325000D01*
X63923796Y-25349504D01*
X63920196Y-25373773D01*
X63914235Y-25397571D01*
X63905970Y-25420671D01*
X63895480Y-25442849D01*
X63882867Y-25463893D01*
X63868253Y-25483598D01*
X63851777Y-25501777D01*
X63833598Y-25518253D01*
X63813893Y-25532867D01*
X63792849Y-25545480D01*
X63770671Y-25555970D01*
X63747571Y-25564235D01*
X63723773Y-25570196D01*
X63699504Y-25573796D01*
X63675000Y-25575000D01*
X62925000Y-25575000D01*
X62900496Y-25573796D01*
X62876227Y-25570196D01*
X62852429Y-25564235D01*
X62829329Y-25555970D01*
X62807151Y-25545480D01*
X62786107Y-25532867D01*
X62766402Y-25518253D01*
X62748223Y-25501777D01*
X62731747Y-25483598D01*
X62717133Y-25463893D01*
X62704520Y-25442849D01*
X62694030Y-25420671D01*
X62685765Y-25397571D01*
X62679804Y-25373773D01*
X62676204Y-25349504D01*
X62675000Y-25325000D01*
X62675000Y-24075000D01*
X62676204Y-24050496D01*
X62679804Y-24026227D01*
X62685765Y-24002429D01*
X62694030Y-23979329D01*
X62704520Y-23957151D01*
X62717133Y-23936107D01*
X62731747Y-23916402D01*
X62748223Y-23898223D01*
X62766402Y-23881747D01*
X62786107Y-23867133D01*
X62807151Y-23854520D01*
X62829329Y-23844030D01*
X62852429Y-23835765D01*
X62876227Y-23829804D01*
X62900496Y-23826204D01*
X62925000Y-23825000D01*
X63675000Y-23825000D01*
X63699504Y-23826204D01*
G37*
G04 #@! TD.AperFunction*
G04 #@! TA.AperFunction,SMDPad,CuDef*
G36*
X60899504Y-23826204D02*
G01*
X60923773Y-23829804D01*
X60947571Y-23835765D01*
X60970671Y-23844030D01*
X60992849Y-23854520D01*
X61013893Y-23867133D01*
X61033598Y-23881747D01*
X61051777Y-23898223D01*
X61068253Y-23916402D01*
X61082867Y-23936107D01*
X61095480Y-23957151D01*
X61105970Y-23979329D01*
X61114235Y-24002429D01*
X61120196Y-24026227D01*
X61123796Y-24050496D01*
X61125000Y-24075000D01*
X61125000Y-25325000D01*
X61123796Y-25349504D01*
X61120196Y-25373773D01*
X61114235Y-25397571D01*
X61105970Y-25420671D01*
X61095480Y-25442849D01*
X61082867Y-25463893D01*
X61068253Y-25483598D01*
X61051777Y-25501777D01*
X61033598Y-25518253D01*
X61013893Y-25532867D01*
X60992849Y-25545480D01*
X60970671Y-25555970D01*
X60947571Y-25564235D01*
X60923773Y-25570196D01*
X60899504Y-25573796D01*
X60875000Y-25575000D01*
X60125000Y-25575000D01*
X60100496Y-25573796D01*
X60076227Y-25570196D01*
X60052429Y-25564235D01*
X60029329Y-25555970D01*
X60007151Y-25545480D01*
X59986107Y-25532867D01*
X59966402Y-25518253D01*
X59948223Y-25501777D01*
X59931747Y-25483598D01*
X59917133Y-25463893D01*
X59904520Y-25442849D01*
X59894030Y-25420671D01*
X59885765Y-25397571D01*
X59879804Y-25373773D01*
X59876204Y-25349504D01*
X59875000Y-25325000D01*
X59875000Y-24075000D01*
X59876204Y-24050496D01*
X59879804Y-24026227D01*
X59885765Y-24002429D01*
X59894030Y-23979329D01*
X59904520Y-23957151D01*
X59917133Y-23936107D01*
X59931747Y-23916402D01*
X59948223Y-23898223D01*
X59966402Y-23881747D01*
X59986107Y-23867133D01*
X60007151Y-23854520D01*
X60029329Y-23844030D01*
X60052429Y-23835765D01*
X60076227Y-23829804D01*
X60100496Y-23826204D01*
X60125000Y-23825000D01*
X60875000Y-23825000D01*
X60899504Y-23826204D01*
G37*
G04 #@! TD.AperFunction*
G04 #@! TA.AperFunction,SMDPad,CuDef*
G36*
X48049504Y-31876204D02*
G01*
X48073773Y-31879804D01*
X48097571Y-31885765D01*
X48120671Y-31894030D01*
X48142849Y-31904520D01*
X48163893Y-31917133D01*
X48183598Y-31931747D01*
X48201777Y-31948223D01*
X48218253Y-31966402D01*
X48232867Y-31986107D01*
X48245480Y-32007151D01*
X48255970Y-32029329D01*
X48264235Y-32052429D01*
X48270196Y-32076227D01*
X48273796Y-32100496D01*
X48275000Y-32125000D01*
X48275000Y-32875000D01*
X48273796Y-32899504D01*
X48270196Y-32923773D01*
X48264235Y-32947571D01*
X48255970Y-32970671D01*
X48245480Y-32992849D01*
X48232867Y-33013893D01*
X48218253Y-33033598D01*
X48201777Y-33051777D01*
X48183598Y-33068253D01*
X48163893Y-33082867D01*
X48142849Y-33095480D01*
X48120671Y-33105970D01*
X48097571Y-33114235D01*
X48073773Y-33120196D01*
X48049504Y-33123796D01*
X48025000Y-33125000D01*
X46775000Y-33125000D01*
X46750496Y-33123796D01*
X46726227Y-33120196D01*
X46702429Y-33114235D01*
X46679329Y-33105970D01*
X46657151Y-33095480D01*
X46636107Y-33082867D01*
X46616402Y-33068253D01*
X46598223Y-33051777D01*
X46581747Y-33033598D01*
X46567133Y-33013893D01*
X46554520Y-32992849D01*
X46544030Y-32970671D01*
X46535765Y-32947571D01*
X46529804Y-32923773D01*
X46526204Y-32899504D01*
X46525000Y-32875000D01*
X46525000Y-32125000D01*
X46526204Y-32100496D01*
X46529804Y-32076227D01*
X46535765Y-32052429D01*
X46544030Y-32029329D01*
X46554520Y-32007151D01*
X46567133Y-31986107D01*
X46581747Y-31966402D01*
X46598223Y-31948223D01*
X46616402Y-31931747D01*
X46636107Y-31917133D01*
X46657151Y-31904520D01*
X46679329Y-31894030D01*
X46702429Y-31885765D01*
X46726227Y-31879804D01*
X46750496Y-31876204D01*
X46775000Y-31875000D01*
X48025000Y-31875000D01*
X48049504Y-31876204D01*
G37*
G04 #@! TD.AperFunction*
G04 #@! TA.AperFunction,SMDPad,CuDef*
G36*
X48049504Y-29076204D02*
G01*
X48073773Y-29079804D01*
X48097571Y-29085765D01*
X48120671Y-29094030D01*
X48142849Y-29104520D01*
X48163893Y-29117133D01*
X48183598Y-29131747D01*
X48201777Y-29148223D01*
X48218253Y-29166402D01*
X48232867Y-29186107D01*
X48245480Y-29207151D01*
X48255970Y-29229329D01*
X48264235Y-29252429D01*
X48270196Y-29276227D01*
X48273796Y-29300496D01*
X48275000Y-29325000D01*
X48275000Y-30075000D01*
X48273796Y-30099504D01*
X48270196Y-30123773D01*
X48264235Y-30147571D01*
X48255970Y-30170671D01*
X48245480Y-30192849D01*
X48232867Y-30213893D01*
X48218253Y-30233598D01*
X48201777Y-30251777D01*
X48183598Y-30268253D01*
X48163893Y-30282867D01*
X48142849Y-30295480D01*
X48120671Y-30305970D01*
X48097571Y-30314235D01*
X48073773Y-30320196D01*
X48049504Y-30323796D01*
X48025000Y-30325000D01*
X46775000Y-30325000D01*
X46750496Y-30323796D01*
X46726227Y-30320196D01*
X46702429Y-30314235D01*
X46679329Y-30305970D01*
X46657151Y-30295480D01*
X46636107Y-30282867D01*
X46616402Y-30268253D01*
X46598223Y-30251777D01*
X46581747Y-30233598D01*
X46567133Y-30213893D01*
X46554520Y-30192849D01*
X46544030Y-30170671D01*
X46535765Y-30147571D01*
X46529804Y-30123773D01*
X46526204Y-30099504D01*
X46525000Y-30075000D01*
X46525000Y-29325000D01*
X46526204Y-29300496D01*
X46529804Y-29276227D01*
X46535765Y-29252429D01*
X46544030Y-29229329D01*
X46554520Y-29207151D01*
X46567133Y-29186107D01*
X46581747Y-29166402D01*
X46598223Y-29148223D01*
X46616402Y-29131747D01*
X46636107Y-29117133D01*
X46657151Y-29104520D01*
X46679329Y-29094030D01*
X46702429Y-29085765D01*
X46726227Y-29079804D01*
X46750496Y-29076204D01*
X46775000Y-29075000D01*
X48025000Y-29075000D01*
X48049504Y-29076204D01*
G37*
G04 #@! TD.AperFunction*
D12*
X30400000Y-33900000D03*
X30400000Y-31360000D03*
X30400000Y-28820000D03*
D11*
X57200000Y-20780000D03*
D12*
X57200000Y-24590000D03*
X57200000Y-28400000D03*
X57200000Y-32210000D03*
X57200000Y-36020000D03*
X72440000Y-36020000D03*
X72440000Y-32210000D03*
X72440000Y-28400000D03*
X72440000Y-24590000D03*
X72440000Y-20780000D03*
D15*
X60400000Y-27100000D03*
X63300000Y-27100000D03*
X78700000Y-20800000D03*
X75800000Y-20800000D03*
X78700000Y-32200000D03*
X75800000Y-32200000D03*
G04 #@! TA.AperFunction,SMDPad,CuDef*
D10*
G36*
X60899504Y-19026204D02*
G01*
X60923773Y-19029804D01*
X60947571Y-19035765D01*
X60970671Y-19044030D01*
X60992849Y-19054520D01*
X61013893Y-19067133D01*
X61033598Y-19081747D01*
X61051777Y-19098223D01*
X61068253Y-19116402D01*
X61082867Y-19136107D01*
X61095480Y-19157151D01*
X61105970Y-19179329D01*
X61114235Y-19202429D01*
X61120196Y-19226227D01*
X61123796Y-19250496D01*
X61125000Y-19275000D01*
X61125000Y-20525000D01*
X61123796Y-20549504D01*
X61120196Y-20573773D01*
X61114235Y-20597571D01*
X61105970Y-20620671D01*
X61095480Y-20642849D01*
X61082867Y-20663893D01*
X61068253Y-20683598D01*
X61051777Y-20701777D01*
X61033598Y-20718253D01*
X61013893Y-20732867D01*
X60992849Y-20745480D01*
X60970671Y-20755970D01*
X60947571Y-20764235D01*
X60923773Y-20770196D01*
X60899504Y-20773796D01*
X60875000Y-20775000D01*
X60125000Y-20775000D01*
X60100496Y-20773796D01*
X60076227Y-20770196D01*
X60052429Y-20764235D01*
X60029329Y-20755970D01*
X60007151Y-20745480D01*
X59986107Y-20732867D01*
X59966402Y-20718253D01*
X59948223Y-20701777D01*
X59931747Y-20683598D01*
X59917133Y-20663893D01*
X59904520Y-20642849D01*
X59894030Y-20620671D01*
X59885765Y-20597571D01*
X59879804Y-20573773D01*
X59876204Y-20549504D01*
X59875000Y-20525000D01*
X59875000Y-19275000D01*
X59876204Y-19250496D01*
X59879804Y-19226227D01*
X59885765Y-19202429D01*
X59894030Y-19179329D01*
X59904520Y-19157151D01*
X59917133Y-19136107D01*
X59931747Y-19116402D01*
X59948223Y-19098223D01*
X59966402Y-19081747D01*
X59986107Y-19067133D01*
X60007151Y-19054520D01*
X60029329Y-19044030D01*
X60052429Y-19035765D01*
X60076227Y-19029804D01*
X60100496Y-19026204D01*
X60125000Y-19025000D01*
X60875000Y-19025000D01*
X60899504Y-19026204D01*
G37*
G04 #@! TD.AperFunction*
G04 #@! TA.AperFunction,SMDPad,CuDef*
G36*
X63699504Y-19026204D02*
G01*
X63723773Y-19029804D01*
X63747571Y-19035765D01*
X63770671Y-19044030D01*
X63792849Y-19054520D01*
X63813893Y-19067133D01*
X63833598Y-19081747D01*
X63851777Y-19098223D01*
X63868253Y-19116402D01*
X63882867Y-19136107D01*
X63895480Y-19157151D01*
X63905970Y-19179329D01*
X63914235Y-19202429D01*
X63920196Y-19226227D01*
X63923796Y-19250496D01*
X63925000Y-19275000D01*
X63925000Y-20525000D01*
X63923796Y-20549504D01*
X63920196Y-20573773D01*
X63914235Y-20597571D01*
X63905970Y-20620671D01*
X63895480Y-20642849D01*
X63882867Y-20663893D01*
X63868253Y-20683598D01*
X63851777Y-20701777D01*
X63833598Y-20718253D01*
X63813893Y-20732867D01*
X63792849Y-20745480D01*
X63770671Y-20755970D01*
X63747571Y-20764235D01*
X63723773Y-20770196D01*
X63699504Y-20773796D01*
X63675000Y-20775000D01*
X62925000Y-20775000D01*
X62900496Y-20773796D01*
X62876227Y-20770196D01*
X62852429Y-20764235D01*
X62829329Y-20755970D01*
X62807151Y-20745480D01*
X62786107Y-20732867D01*
X62766402Y-20718253D01*
X62748223Y-20701777D01*
X62731747Y-20683598D01*
X62717133Y-20663893D01*
X62704520Y-20642849D01*
X62694030Y-20620671D01*
X62685765Y-20597571D01*
X62679804Y-20573773D01*
X62676204Y-20549504D01*
X62675000Y-20525000D01*
X62675000Y-19275000D01*
X62676204Y-19250496D01*
X62679804Y-19226227D01*
X62685765Y-19202429D01*
X62694030Y-19179329D01*
X62704520Y-19157151D01*
X62717133Y-19136107D01*
X62731747Y-19116402D01*
X62748223Y-19098223D01*
X62766402Y-19081747D01*
X62786107Y-19067133D01*
X62807151Y-19054520D01*
X62829329Y-19044030D01*
X62852429Y-19035765D01*
X62876227Y-19029804D01*
X62900496Y-19026204D01*
X62925000Y-19025000D01*
X63675000Y-19025000D01*
X63699504Y-19026204D01*
G37*
G04 #@! TD.AperFunction*
G04 #@! TA.AperFunction,SMDPad,CuDef*
G36*
X63699504Y-16626204D02*
G01*
X63723773Y-16629804D01*
X63747571Y-16635765D01*
X63770671Y-16644030D01*
X63792849Y-16654520D01*
X63813893Y-16667133D01*
X63833598Y-16681747D01*
X63851777Y-16698223D01*
X63868253Y-16716402D01*
X63882867Y-16736107D01*
X63895480Y-16757151D01*
X63905970Y-16779329D01*
X63914235Y-16802429D01*
X63920196Y-16826227D01*
X63923796Y-16850496D01*
X63925000Y-16875000D01*
X63925000Y-18125000D01*
X63923796Y-18149504D01*
X63920196Y-18173773D01*
X63914235Y-18197571D01*
X63905970Y-18220671D01*
X63895480Y-18242849D01*
X63882867Y-18263893D01*
X63868253Y-18283598D01*
X63851777Y-18301777D01*
X63833598Y-18318253D01*
X63813893Y-18332867D01*
X63792849Y-18345480D01*
X63770671Y-18355970D01*
X63747571Y-18364235D01*
X63723773Y-18370196D01*
X63699504Y-18373796D01*
X63675000Y-18375000D01*
X62925000Y-18375000D01*
X62900496Y-18373796D01*
X62876227Y-18370196D01*
X62852429Y-18364235D01*
X62829329Y-18355970D01*
X62807151Y-18345480D01*
X62786107Y-18332867D01*
X62766402Y-18318253D01*
X62748223Y-18301777D01*
X62731747Y-18283598D01*
X62717133Y-18263893D01*
X62704520Y-18242849D01*
X62694030Y-18220671D01*
X62685765Y-18197571D01*
X62679804Y-18173773D01*
X62676204Y-18149504D01*
X62675000Y-18125000D01*
X62675000Y-16875000D01*
X62676204Y-16850496D01*
X62679804Y-16826227D01*
X62685765Y-16802429D01*
X62694030Y-16779329D01*
X62704520Y-16757151D01*
X62717133Y-16736107D01*
X62731747Y-16716402D01*
X62748223Y-16698223D01*
X62766402Y-16681747D01*
X62786107Y-16667133D01*
X62807151Y-16654520D01*
X62829329Y-16644030D01*
X62852429Y-16635765D01*
X62876227Y-16629804D01*
X62900496Y-16626204D01*
X62925000Y-16625000D01*
X63675000Y-16625000D01*
X63699504Y-16626204D01*
G37*
G04 #@! TD.AperFunction*
G04 #@! TA.AperFunction,SMDPad,CuDef*
G36*
X60899504Y-16626204D02*
G01*
X60923773Y-16629804D01*
X60947571Y-16635765D01*
X60970671Y-16644030D01*
X60992849Y-16654520D01*
X61013893Y-16667133D01*
X61033598Y-16681747D01*
X61051777Y-16698223D01*
X61068253Y-16716402D01*
X61082867Y-16736107D01*
X61095480Y-16757151D01*
X61105970Y-16779329D01*
X61114235Y-16802429D01*
X61120196Y-16826227D01*
X61123796Y-16850496D01*
X61125000Y-16875000D01*
X61125000Y-18125000D01*
X61123796Y-18149504D01*
X61120196Y-18173773D01*
X61114235Y-18197571D01*
X61105970Y-18220671D01*
X61095480Y-18242849D01*
X61082867Y-18263893D01*
X61068253Y-18283598D01*
X61051777Y-18301777D01*
X61033598Y-18318253D01*
X61013893Y-18332867D01*
X60992849Y-18345480D01*
X60970671Y-18355970D01*
X60947571Y-18364235D01*
X60923773Y-18370196D01*
X60899504Y-18373796D01*
X60875000Y-18375000D01*
X60125000Y-18375000D01*
X60100496Y-18373796D01*
X60076227Y-18370196D01*
X60052429Y-18364235D01*
X60029329Y-18355970D01*
X60007151Y-18345480D01*
X59986107Y-18332867D01*
X59966402Y-18318253D01*
X59948223Y-18301777D01*
X59931747Y-18283598D01*
X59917133Y-18263893D01*
X59904520Y-18242849D01*
X59894030Y-18220671D01*
X59885765Y-18197571D01*
X59879804Y-18173773D01*
X59876204Y-18149504D01*
X59875000Y-18125000D01*
X59875000Y-16875000D01*
X59876204Y-16850496D01*
X59879804Y-16826227D01*
X59885765Y-16802429D01*
X59894030Y-16779329D01*
X59904520Y-16757151D01*
X59917133Y-16736107D01*
X59931747Y-16716402D01*
X59948223Y-16698223D01*
X59966402Y-16681747D01*
X59986107Y-16667133D01*
X60007151Y-16654520D01*
X60029329Y-16644030D01*
X60052429Y-16635765D01*
X60076227Y-16629804D01*
X60100496Y-16626204D01*
X60125000Y-16625000D01*
X60875000Y-16625000D01*
X60899504Y-16626204D01*
G37*
G04 #@! TD.AperFunction*
D16*
X39100000Y-23300000D03*
X32900000Y-23700000D03*
X35750000Y-22650000D03*
X34300000Y-19500000D03*
X37700000Y-17300000D03*
X35000000Y-20700000D03*
D17*
X32990000Y-31360000D02*
X33000000Y-31350000D01*
X30400000Y-31360000D02*
X32990000Y-31360000D01*
X54595000Y-20780000D02*
X54575000Y-20800000D01*
D18*
X19900000Y-20000000D02*
X22600000Y-17300000D01*
X22600000Y-17300000D02*
X37700000Y-17300000D01*
X57200000Y-19100000D02*
X57200000Y-20780000D01*
X55400000Y-17300000D02*
X57200000Y-19100000D01*
X37700000Y-17300000D02*
X55400000Y-17300000D01*
D19*
X60280000Y-20780000D02*
X60500000Y-21000000D01*
X57200000Y-20780000D02*
X60280000Y-20780000D01*
X60500000Y-21000000D02*
X60500000Y-17500000D01*
X60500000Y-24700000D02*
X60500000Y-21000000D01*
X57180000Y-20800000D02*
X57200000Y-20780000D01*
X54575000Y-20800000D02*
X57180000Y-20800000D01*
D17*
X47400000Y-27080000D02*
X47400000Y-29700000D01*
X44620000Y-27080000D02*
X44600000Y-27100000D01*
X47400000Y-27080000D02*
X44620000Y-27080000D01*
X42200000Y-27100000D02*
X44600000Y-27100000D01*
D19*
X78700000Y-20800000D02*
X82000000Y-20800000D01*
X82000000Y-20800000D02*
X84600000Y-20800000D01*
X84600000Y-20800000D02*
X89600000Y-20800000D01*
X38500000Y-33900000D02*
X41000000Y-33900000D01*
D17*
X30400000Y-33900000D02*
X38500000Y-33900000D01*
D19*
X78700000Y-32200000D02*
X82000000Y-32200000D01*
X82000000Y-32200000D02*
X84500000Y-32200000D01*
X84500000Y-32200000D02*
X89500000Y-32200000D01*
D17*
X59710000Y-27100000D02*
X57200000Y-24590000D01*
X60400000Y-27100000D02*
X59710000Y-27100000D01*
D19*
X75780000Y-20780000D02*
X75800000Y-20800000D01*
X72440000Y-20780000D02*
X75780000Y-20780000D01*
X75790000Y-32210000D02*
X75800000Y-32200000D01*
X72440000Y-32210000D02*
X75790000Y-32210000D01*
D20*
X34550000Y-23650000D02*
X35200000Y-24300000D01*
X34550000Y-21150000D02*
X34550000Y-23650000D01*
X35200000Y-24300000D02*
X42200000Y-24300000D01*
X35000000Y-20700000D02*
X34550000Y-21150000D01*
D19*
X63300000Y-27100000D02*
X63300000Y-17500000D01*
D21*
G36*
X21164490Y-15716164D02*
G01*
X21164487Y-15716167D01*
X21083023Y-15783023D01*
X21016167Y-15864487D01*
X18316165Y-18564490D01*
X18116224Y-18808119D01*
X17917975Y-19179018D01*
X17795893Y-19581467D01*
X17754671Y-20000000D01*
X17795893Y-20418533D01*
X17917975Y-20820982D01*
X18116224Y-21191881D01*
X18383023Y-21516977D01*
X18708119Y-21783776D01*
X19079018Y-21982025D01*
X19481467Y-22104107D01*
X19900000Y-22145329D01*
X20318533Y-22104107D01*
X20720982Y-21982025D01*
X21091881Y-21783776D01*
X21335510Y-21583835D01*
X21769345Y-21150000D01*
X33761203Y-21150000D01*
X33765000Y-21188553D01*
X33765001Y-23611437D01*
X33761203Y-23650000D01*
X33776359Y-23803886D01*
X33821246Y-23951859D01*
X33843004Y-23992565D01*
X33894139Y-24088233D01*
X33925796Y-24126806D01*
X33967655Y-24177812D01*
X33967659Y-24177816D01*
X33992237Y-24207764D01*
X34022185Y-24232342D01*
X34617653Y-24827810D01*
X34642236Y-24857764D01*
X34761767Y-24955862D01*
X34872127Y-25014850D01*
X34898140Y-25028754D01*
X35046113Y-25073642D01*
X35121026Y-25081020D01*
X35161439Y-25085000D01*
X35161444Y-25085000D01*
X35200000Y-25088797D01*
X35238556Y-25085000D01*
X40792024Y-25085000D01*
X40836595Y-25168386D01*
X40947038Y-25302962D01*
X41081614Y-25413405D01*
X41235150Y-25495472D01*
X41401746Y-25546008D01*
X41575000Y-25563072D01*
X42825000Y-25563072D01*
X42998254Y-25546008D01*
X43164850Y-25495472D01*
X43318386Y-25413405D01*
X43452962Y-25302962D01*
X43506091Y-25238223D01*
X43512304Y-25243322D01*
X43578492Y-25278701D01*
X43650311Y-25300487D01*
X43725000Y-25307843D01*
X44377750Y-25306000D01*
X44473000Y-25210750D01*
X44473000Y-24427000D01*
X44453000Y-24427000D01*
X44453000Y-24173000D01*
X44473000Y-24173000D01*
X44473000Y-23389250D01*
X44377750Y-23294000D01*
X43725000Y-23292157D01*
X43650311Y-23299513D01*
X43578492Y-23321299D01*
X43512304Y-23356678D01*
X43506091Y-23361777D01*
X43452962Y-23297038D01*
X43318386Y-23186595D01*
X43164850Y-23104528D01*
X42998254Y-23053992D01*
X42825000Y-23036928D01*
X41575000Y-23036928D01*
X41401746Y-23053992D01*
X41235150Y-23104528D01*
X41081614Y-23186595D01*
X40947038Y-23297038D01*
X40836595Y-23431614D01*
X40792024Y-23515000D01*
X35525157Y-23515000D01*
X35335000Y-23324843D01*
X35335000Y-21681515D01*
X35490256Y-21617205D01*
X35659774Y-21503937D01*
X35803937Y-21359774D01*
X35917205Y-21190256D01*
X35995226Y-21001898D01*
X36035000Y-20801939D01*
X36035000Y-20598061D01*
X35995226Y-20398102D01*
X35917205Y-20209744D01*
X35843877Y-20100000D01*
X51829657Y-20100000D01*
X51831500Y-20577750D01*
X51926750Y-20673000D01*
X52573000Y-20673000D01*
X52573000Y-19814250D01*
X52477750Y-19719000D01*
X52212500Y-19717157D01*
X52137811Y-19724513D01*
X52065992Y-19746299D01*
X51999804Y-19781678D01*
X51941789Y-19829289D01*
X51894178Y-19887304D01*
X51858799Y-19953492D01*
X51837013Y-20025311D01*
X51829657Y-20100000D01*
X35843877Y-20100000D01*
X35803937Y-20040226D01*
X35659774Y-19896063D01*
X35490256Y-19782795D01*
X35301898Y-19704774D01*
X35101939Y-19665000D01*
X34898061Y-19665000D01*
X34698102Y-19704774D01*
X34509744Y-19782795D01*
X34340226Y-19896063D01*
X34196063Y-20040226D01*
X34082795Y-20209744D01*
X34004774Y-20398102D01*
X33965000Y-20598061D01*
X33965000Y-20625423D01*
X33894138Y-20711768D01*
X33821246Y-20848141D01*
X33776359Y-20996114D01*
X33765000Y-21111440D01*
X33765000Y-21111447D01*
X33761203Y-21150000D01*
X21769345Y-21150000D01*
X23484346Y-19435000D01*
X53660992Y-19435000D01*
X53413286Y-19638286D01*
X53326509Y-19744024D01*
X53262189Y-19724513D01*
X53187500Y-19717157D01*
X52922250Y-19719000D01*
X52827000Y-19814250D01*
X52827000Y-20673000D01*
X52847000Y-20673000D01*
X52847000Y-20927000D01*
X52827000Y-20927000D01*
X52827000Y-21785750D01*
X52922250Y-21881000D01*
X53187500Y-21882843D01*
X53262189Y-21875487D01*
X53326509Y-21855976D01*
X53413286Y-21961714D01*
X53662248Y-22166031D01*
X53946285Y-22317852D01*
X54254484Y-22411343D01*
X54494678Y-22435000D01*
X55851205Y-22435000D01*
X56008120Y-22563777D01*
X56379019Y-22762026D01*
X56781468Y-22884108D01*
X57200000Y-22925330D01*
X57618533Y-22884108D01*
X58020982Y-22762026D01*
X58391881Y-22563777D01*
X58573166Y-22415000D01*
X58865001Y-22415000D01*
X58865000Y-24649869D01*
X58835000Y-24619869D01*
X58835000Y-24428967D01*
X58772168Y-24113088D01*
X58648918Y-23815537D01*
X58469987Y-23547748D01*
X58242252Y-23320013D01*
X57974463Y-23141082D01*
X57676912Y-23017832D01*
X57361033Y-22955000D01*
X57038967Y-22955000D01*
X56723088Y-23017832D01*
X56425537Y-23141082D01*
X56157748Y-23320013D01*
X55930013Y-23547748D01*
X55751082Y-23815537D01*
X55627832Y-24113088D01*
X55565000Y-24428967D01*
X55565000Y-24751033D01*
X55627832Y-25066912D01*
X55751082Y-25364463D01*
X55930013Y-25632252D01*
X56157748Y-25859987D01*
X56425537Y-26038918D01*
X56723088Y-26162168D01*
X57038967Y-26225000D01*
X57229869Y-26225000D01*
X57942860Y-26937992D01*
X57676912Y-26827832D01*
X57361033Y-26765000D01*
X57038967Y-26765000D01*
X56723088Y-26827832D01*
X56425537Y-26951082D01*
X56157748Y-27130013D01*
X55930013Y-27357748D01*
X55751082Y-27625537D01*
X55627832Y-27923088D01*
X55565000Y-28238967D01*
X55565000Y-28561033D01*
X55627832Y-28876912D01*
X55751082Y-29174463D01*
X55930013Y-29442252D01*
X56157748Y-29669987D01*
X56425537Y-29848918D01*
X56723088Y-29972168D01*
X57038967Y-30035000D01*
X57361033Y-30035000D01*
X57676912Y-29972168D01*
X57974463Y-29848918D01*
X58242252Y-29669987D01*
X58469987Y-29442252D01*
X58648918Y-29174463D01*
X58772168Y-28876912D01*
X58835000Y-28561033D01*
X58835000Y-28238967D01*
X58772168Y-27923088D01*
X58662009Y-27657141D01*
X58868009Y-27863141D01*
X58903551Y-27906449D01*
X59076377Y-28048284D01*
X59197216Y-28112873D01*
X59219463Y-28154494D01*
X59298815Y-28251185D01*
X59395506Y-28330537D01*
X59505820Y-28389502D01*
X59625518Y-28425812D01*
X59750000Y-28438072D01*
X61050000Y-28438072D01*
X61174482Y-28425812D01*
X61294180Y-28389502D01*
X61404494Y-28330537D01*
X61501185Y-28251185D01*
X61580537Y-28154494D01*
X61639502Y-28044180D01*
X61675812Y-27924482D01*
X61688072Y-27800000D01*
X61688072Y-27414575D01*
X61688657Y-27420515D01*
X61782148Y-27728714D01*
X61933969Y-28012751D01*
X62138286Y-28261714D01*
X62387248Y-28466031D01*
X62671285Y-28617852D01*
X62979484Y-28711343D01*
X63300000Y-28742911D01*
X63620515Y-28711343D01*
X63928714Y-28617852D01*
X64212751Y-28466031D01*
X64461714Y-28261714D01*
X64480381Y-28238967D01*
X70805000Y-28238967D01*
X70805000Y-28561033D01*
X70867832Y-28876912D01*
X70991082Y-29174463D01*
X71170013Y-29442252D01*
X71397748Y-29669987D01*
X71665537Y-29848918D01*
X71963088Y-29972168D01*
X72278967Y-30035000D01*
X72601033Y-30035000D01*
X72916912Y-29972168D01*
X73214463Y-29848918D01*
X73482252Y-29669987D01*
X73709987Y-29442252D01*
X73888918Y-29174463D01*
X74012168Y-28876912D01*
X74075000Y-28561033D01*
X74075000Y-28238967D01*
X74012168Y-27923088D01*
X73888918Y-27625537D01*
X73709987Y-27357748D01*
X73482252Y-27130013D01*
X73214463Y-26951082D01*
X72916912Y-26827832D01*
X72773306Y-26799267D01*
X81180338Y-26799267D01*
X81290510Y-26992596D01*
X81536806Y-27108095D01*
X81800903Y-27173324D01*
X82072651Y-27185778D01*
X82341607Y-27144977D01*
X82597435Y-27052490D01*
X82709490Y-26992596D01*
X82819662Y-26799267D01*
X88780338Y-26799267D01*
X88890510Y-26992596D01*
X89136806Y-27108095D01*
X89400903Y-27173324D01*
X89672651Y-27185778D01*
X89941607Y-27144977D01*
X90197435Y-27052490D01*
X90309490Y-26992596D01*
X90419662Y-26799267D01*
X89600000Y-25979605D01*
X88780338Y-26799267D01*
X82819662Y-26799267D01*
X82000000Y-25979605D01*
X81180338Y-26799267D01*
X72773306Y-26799267D01*
X72601033Y-26765000D01*
X72278967Y-26765000D01*
X71963088Y-26827832D01*
X71665537Y-26951082D01*
X71397748Y-27130013D01*
X71170013Y-27357748D01*
X70991082Y-27625537D01*
X70867832Y-27923088D01*
X70805000Y-28238967D01*
X64480381Y-28238967D01*
X64666031Y-28012752D01*
X64817852Y-27728715D01*
X64911343Y-27420516D01*
X64935000Y-27180322D01*
X64935000Y-25589267D01*
X71620338Y-25589267D01*
X71730510Y-25782596D01*
X71976806Y-25898095D01*
X72240903Y-25963324D01*
X72512651Y-25975778D01*
X72781607Y-25934977D01*
X72954006Y-25872651D01*
X80614222Y-25872651D01*
X80655023Y-26141607D01*
X80747510Y-26397435D01*
X80807404Y-26509490D01*
X81000733Y-26619662D01*
X81820395Y-25800000D01*
X82179605Y-25800000D01*
X82999267Y-26619662D01*
X83192596Y-26509490D01*
X83308095Y-26263194D01*
X83373324Y-25999097D01*
X83379118Y-25872651D01*
X88214222Y-25872651D01*
X88255023Y-26141607D01*
X88347510Y-26397435D01*
X88407404Y-26509490D01*
X88600733Y-26619662D01*
X89420395Y-25800000D01*
X89779605Y-25800000D01*
X90599267Y-26619662D01*
X90792596Y-26509490D01*
X90908095Y-26263194D01*
X90973324Y-25999097D01*
X90985778Y-25727349D01*
X90944977Y-25458393D01*
X90852490Y-25202565D01*
X90792596Y-25090510D01*
X90599267Y-24980338D01*
X89779605Y-25800000D01*
X89420395Y-25800000D01*
X88600733Y-24980338D01*
X88407404Y-25090510D01*
X88291905Y-25336806D01*
X88226676Y-25600903D01*
X88214222Y-25872651D01*
X83379118Y-25872651D01*
X83385778Y-25727349D01*
X83344977Y-25458393D01*
X83252490Y-25202565D01*
X83192596Y-25090510D01*
X82999267Y-24980338D01*
X82179605Y-25800000D01*
X81820395Y-25800000D01*
X81000733Y-24980338D01*
X80807404Y-25090510D01*
X80691905Y-25336806D01*
X80626676Y-25600903D01*
X80614222Y-25872651D01*
X72954006Y-25872651D01*
X73037435Y-25842490D01*
X73149490Y-25782596D01*
X73259662Y-25589267D01*
X72440000Y-24769605D01*
X71620338Y-25589267D01*
X64935000Y-25589267D01*
X64935000Y-24662651D01*
X71054222Y-24662651D01*
X71095023Y-24931607D01*
X71187510Y-25187435D01*
X71247404Y-25299490D01*
X71440733Y-25409662D01*
X72260395Y-24590000D01*
X72619605Y-24590000D01*
X73439267Y-25409662D01*
X73632596Y-25299490D01*
X73748095Y-25053194D01*
X73810450Y-24800733D01*
X81180338Y-24800733D01*
X82000000Y-25620395D01*
X82819662Y-24800733D01*
X88780338Y-24800733D01*
X89600000Y-25620395D01*
X90419662Y-24800733D01*
X90309490Y-24607404D01*
X90063194Y-24491905D01*
X89799097Y-24426676D01*
X89527349Y-24414222D01*
X89258393Y-24455023D01*
X89002565Y-24547510D01*
X88890510Y-24607404D01*
X88780338Y-24800733D01*
X82819662Y-24800733D01*
X82709490Y-24607404D01*
X82463194Y-24491905D01*
X82199097Y-24426676D01*
X81927349Y-24414222D01*
X81658393Y-24455023D01*
X81402565Y-24547510D01*
X81290510Y-24607404D01*
X81180338Y-24800733D01*
X73810450Y-24800733D01*
X73813324Y-24789097D01*
X73825778Y-24517349D01*
X73784977Y-24248393D01*
X73776520Y-24225000D01*
X83342157Y-24225000D01*
X83349513Y-24299689D01*
X83371299Y-24371508D01*
X83406678Y-24437696D01*
X83454289Y-24495711D01*
X83512304Y-24543322D01*
X83578492Y-24578701D01*
X83650311Y-24600487D01*
X83725000Y-24607843D01*
X84377750Y-24606000D01*
X84473000Y-24510750D01*
X84473000Y-23727000D01*
X84727000Y-23727000D01*
X84727000Y-24510750D01*
X84822250Y-24606000D01*
X85475000Y-24607843D01*
X85549689Y-24600487D01*
X85621508Y-24578701D01*
X85687696Y-24543322D01*
X85745711Y-24495711D01*
X85793322Y-24437696D01*
X85828701Y-24371508D01*
X85850487Y-24299689D01*
X85857843Y-24225000D01*
X85856000Y-23822250D01*
X85760750Y-23727000D01*
X84727000Y-23727000D01*
X84473000Y-23727000D01*
X83439250Y-23727000D01*
X83344000Y-23822250D01*
X83342157Y-24225000D01*
X73776520Y-24225000D01*
X73692490Y-23992565D01*
X73632596Y-23880510D01*
X73439267Y-23770338D01*
X72619605Y-24590000D01*
X72260395Y-24590000D01*
X71440733Y-23770338D01*
X71247404Y-23880510D01*
X71131905Y-24126806D01*
X71066676Y-24390903D01*
X71054222Y-24662651D01*
X64935000Y-24662651D01*
X64935000Y-23590733D01*
X71620338Y-23590733D01*
X72440000Y-24410395D01*
X73259662Y-23590733D01*
X73149490Y-23397404D01*
X72903194Y-23281905D01*
X72639097Y-23216676D01*
X72367349Y-23204222D01*
X72098393Y-23245023D01*
X71842565Y-23337510D01*
X71730510Y-23397404D01*
X71620338Y-23590733D01*
X64935000Y-23590733D01*
X64935000Y-22975000D01*
X83342157Y-22975000D01*
X83344000Y-23377750D01*
X83439250Y-23473000D01*
X84473000Y-23473000D01*
X84473000Y-22689250D01*
X84727000Y-22689250D01*
X84727000Y-23473000D01*
X85760750Y-23473000D01*
X85856000Y-23377750D01*
X85857843Y-22975000D01*
X85850487Y-22900311D01*
X85828701Y-22828492D01*
X85793322Y-22762304D01*
X85745711Y-22704289D01*
X85687696Y-22656678D01*
X85621508Y-22621299D01*
X85549689Y-22599513D01*
X85475000Y-22592157D01*
X84822250Y-22594000D01*
X84727000Y-22689250D01*
X84473000Y-22689250D01*
X84377750Y-22594000D01*
X83725000Y-22592157D01*
X83650311Y-22599513D01*
X83578492Y-22621299D01*
X83512304Y-22656678D01*
X83454289Y-22704289D01*
X83406678Y-22762304D01*
X83371299Y-22828492D01*
X83349513Y-22900311D01*
X83342157Y-22975000D01*
X64935000Y-22975000D01*
X64935000Y-20780000D01*
X70797089Y-20780000D01*
X70805000Y-20860322D01*
X70805000Y-20941033D01*
X70820746Y-21020193D01*
X70828657Y-21100516D01*
X70852086Y-21177751D01*
X70867832Y-21256912D01*
X70898719Y-21331479D01*
X70922148Y-21408715D01*
X70960196Y-21479898D01*
X70991082Y-21554463D01*
X71035921Y-21621569D01*
X71073969Y-21692752D01*
X71125174Y-21755146D01*
X71170013Y-21822252D01*
X71227080Y-21879319D01*
X71278286Y-21941714D01*
X71340681Y-21992920D01*
X71397748Y-22049987D01*
X71464854Y-22094826D01*
X71527248Y-22146031D01*
X71598431Y-22184079D01*
X71665537Y-22228918D01*
X71740102Y-22259804D01*
X71811285Y-22297852D01*
X71888521Y-22321281D01*
X71963088Y-22352168D01*
X72042249Y-22367914D01*
X72119484Y-22391343D01*
X72199807Y-22399254D01*
X72278967Y-22415000D01*
X75516623Y-22415000D01*
X75799999Y-22442911D01*
X76120516Y-22411342D01*
X76428714Y-22317851D01*
X76712752Y-22166030D01*
X76961713Y-21961713D01*
X77166030Y-21712752D01*
X77249999Y-21555656D01*
X77333969Y-21712752D01*
X77538286Y-21961714D01*
X77787248Y-22166031D01*
X78071285Y-22317852D01*
X78379484Y-22411343D01*
X78619678Y-22435000D01*
X80968808Y-22435000D01*
X81000000Y-22438072D01*
X83000000Y-22438072D01*
X83031192Y-22435000D01*
X89761033Y-22435000D01*
X89840193Y-22419254D01*
X89920516Y-22411343D01*
X89997751Y-22387914D01*
X90076912Y-22372168D01*
X90151479Y-22341281D01*
X90228715Y-22317852D01*
X90299898Y-22279804D01*
X90374463Y-22248918D01*
X90441569Y-22204079D01*
X90512752Y-22166031D01*
X90575146Y-22114826D01*
X90642252Y-22069987D01*
X90699319Y-22012920D01*
X90761714Y-21961714D01*
X90812920Y-21899319D01*
X90869987Y-21842252D01*
X90914826Y-21775146D01*
X90966031Y-21712752D01*
X91004079Y-21641569D01*
X91048918Y-21574463D01*
X91079804Y-21499898D01*
X91117852Y-21428715D01*
X91141281Y-21351479D01*
X91172168Y-21276912D01*
X91187914Y-21197751D01*
X91211343Y-21120516D01*
X91219254Y-21040193D01*
X91235000Y-20961033D01*
X91235000Y-20880322D01*
X91242911Y-20800000D01*
X91235000Y-20719678D01*
X91235000Y-20638967D01*
X91219254Y-20559807D01*
X91211343Y-20479484D01*
X91187914Y-20402249D01*
X91172168Y-20323088D01*
X91141281Y-20248521D01*
X91117852Y-20171285D01*
X91079804Y-20100102D01*
X91048918Y-20025537D01*
X91004079Y-19958431D01*
X90966031Y-19887248D01*
X90914826Y-19824854D01*
X90869987Y-19757748D01*
X90812920Y-19700681D01*
X90761714Y-19638286D01*
X90699319Y-19587080D01*
X90642252Y-19530013D01*
X90575146Y-19485174D01*
X90512752Y-19433969D01*
X90441569Y-19395921D01*
X90374463Y-19351082D01*
X90299898Y-19320196D01*
X90228715Y-19282148D01*
X90151479Y-19258719D01*
X90076912Y-19227832D01*
X89997751Y-19212086D01*
X89920516Y-19188657D01*
X89840193Y-19180746D01*
X89761033Y-19165000D01*
X83031192Y-19165000D01*
X83000000Y-19161928D01*
X81000000Y-19161928D01*
X80968808Y-19165000D01*
X78619678Y-19165000D01*
X78379484Y-19188657D01*
X78071285Y-19282148D01*
X77787248Y-19433969D01*
X77538286Y-19638286D01*
X77333969Y-19887248D01*
X77249999Y-20044344D01*
X77166030Y-19887248D01*
X77012915Y-19700677D01*
X76992925Y-19680687D01*
X76941714Y-19618286D01*
X76692752Y-19413969D01*
X76408715Y-19262148D01*
X76100516Y-19168657D01*
X75860322Y-19145000D01*
X75860319Y-19145000D01*
X75780000Y-19137089D01*
X75699681Y-19145000D01*
X72278967Y-19145000D01*
X72199807Y-19160746D01*
X72119484Y-19168657D01*
X72042249Y-19192086D01*
X71963088Y-19207832D01*
X71888521Y-19238719D01*
X71811285Y-19262148D01*
X71740102Y-19300196D01*
X71665537Y-19331082D01*
X71598431Y-19375921D01*
X71527248Y-19413969D01*
X71464854Y-19465174D01*
X71397748Y-19510013D01*
X71340681Y-19567080D01*
X71278286Y-19618286D01*
X71227080Y-19680681D01*
X71170013Y-19737748D01*
X71125174Y-19804854D01*
X71073969Y-19867248D01*
X71035921Y-19938431D01*
X70991082Y-20005537D01*
X70960196Y-20080102D01*
X70922148Y-20151285D01*
X70898719Y-20228521D01*
X70867832Y-20303088D01*
X70852086Y-20382249D01*
X70828657Y-20459484D01*
X70820746Y-20539807D01*
X70805000Y-20618967D01*
X70805000Y-20699678D01*
X70797089Y-20780000D01*
X64935000Y-20780000D01*
X64935000Y-17419678D01*
X64911343Y-17179484D01*
X64817852Y-16871285D01*
X64666031Y-16587248D01*
X64461714Y-16338286D01*
X64212752Y-16133969D01*
X63928715Y-15982148D01*
X63620516Y-15888657D01*
X63300000Y-15857089D01*
X62979485Y-15888657D01*
X62671286Y-15982148D01*
X62387249Y-16133969D01*
X62138287Y-16338286D01*
X61933970Y-16587248D01*
X61900001Y-16650800D01*
X61866031Y-16587248D01*
X61661714Y-16338286D01*
X61412752Y-16133969D01*
X61128715Y-15982148D01*
X60820516Y-15888657D01*
X60500000Y-15857089D01*
X60179485Y-15888657D01*
X59871286Y-15982148D01*
X59587249Y-16133969D01*
X59338287Y-16338286D01*
X59133970Y-16587248D01*
X58982149Y-16871285D01*
X58888658Y-17179484D01*
X58865001Y-17419678D01*
X58865001Y-17763390D01*
X58783835Y-17664489D01*
X58783833Y-17664487D01*
X58716977Y-17583023D01*
X58635513Y-17516167D01*
X56983837Y-15864492D01*
X56916977Y-15783023D01*
X56767073Y-15660000D01*
X93340001Y-15660000D01*
X93340000Y-40340000D01*
X15660000Y-40340000D01*
X15660000Y-37338967D01*
X42365000Y-37338967D01*
X42365000Y-37661033D01*
X42427832Y-37976912D01*
X42551082Y-38274463D01*
X42730013Y-38542252D01*
X42957748Y-38769987D01*
X43225537Y-38948918D01*
X43523088Y-39072168D01*
X43838967Y-39135000D01*
X44161033Y-39135000D01*
X44476912Y-39072168D01*
X44774463Y-38948918D01*
X45042252Y-38769987D01*
X45269987Y-38542252D01*
X45298708Y-38499267D01*
X48180338Y-38499267D01*
X48290510Y-38692596D01*
X48536806Y-38808095D01*
X48800903Y-38873324D01*
X49072651Y-38885778D01*
X49341607Y-38844977D01*
X49597435Y-38752490D01*
X49709490Y-38692596D01*
X49819662Y-38499267D01*
X49000000Y-37679605D01*
X48180338Y-38499267D01*
X45298708Y-38499267D01*
X45448918Y-38274463D01*
X45572168Y-37976912D01*
X45635000Y-37661033D01*
X45635000Y-37572651D01*
X47614222Y-37572651D01*
X47655023Y-37841607D01*
X47747510Y-38097435D01*
X47807404Y-38209490D01*
X48000733Y-38319662D01*
X48820395Y-37500000D01*
X49179605Y-37500000D01*
X49999267Y-38319662D01*
X50192596Y-38209490D01*
X50197390Y-38199267D01*
X81180338Y-38199267D01*
X81290510Y-38392596D01*
X81536806Y-38508095D01*
X81800903Y-38573324D01*
X82072651Y-38585778D01*
X82341607Y-38544977D01*
X82597435Y-38452490D01*
X82709490Y-38392596D01*
X82819662Y-38199267D01*
X88680338Y-38199267D01*
X88790510Y-38392596D01*
X89036806Y-38508095D01*
X89300903Y-38573324D01*
X89572651Y-38585778D01*
X89841607Y-38544977D01*
X90097435Y-38452490D01*
X90209490Y-38392596D01*
X90319662Y-38199267D01*
X89500000Y-37379605D01*
X88680338Y-38199267D01*
X82819662Y-38199267D01*
X82000000Y-37379605D01*
X81180338Y-38199267D01*
X50197390Y-38199267D01*
X50308095Y-37963194D01*
X50373324Y-37699097D01*
X50385778Y-37427349D01*
X50344977Y-37158393D01*
X50294681Y-37019267D01*
X56380338Y-37019267D01*
X56490510Y-37212596D01*
X56736806Y-37328095D01*
X57000903Y-37393324D01*
X57272651Y-37405778D01*
X57541607Y-37364977D01*
X57797435Y-37272490D01*
X57909490Y-37212596D01*
X58019662Y-37019267D01*
X71620338Y-37019267D01*
X71730510Y-37212596D01*
X71976806Y-37328095D01*
X72240903Y-37393324D01*
X72512651Y-37405778D01*
X72781607Y-37364977D01*
X73036989Y-37272651D01*
X80614222Y-37272651D01*
X80655023Y-37541607D01*
X80747510Y-37797435D01*
X80807404Y-37909490D01*
X81000733Y-38019662D01*
X81820395Y-37200000D01*
X82179605Y-37200000D01*
X82999267Y-38019662D01*
X83192596Y-37909490D01*
X83308095Y-37663194D01*
X83373324Y-37399097D01*
X83379118Y-37272651D01*
X88114222Y-37272651D01*
X88155023Y-37541607D01*
X88247510Y-37797435D01*
X88307404Y-37909490D01*
X88500733Y-38019662D01*
X89320395Y-37200000D01*
X89679605Y-37200000D01*
X90499267Y-38019662D01*
X90692596Y-37909490D01*
X90808095Y-37663194D01*
X90873324Y-37399097D01*
X90885778Y-37127349D01*
X90844977Y-36858393D01*
X90752490Y-36602565D01*
X90692596Y-36490510D01*
X90499267Y-36380338D01*
X89679605Y-37200000D01*
X89320395Y-37200000D01*
X88500733Y-36380338D01*
X88307404Y-36490510D01*
X88191905Y-36736806D01*
X88126676Y-37000903D01*
X88114222Y-37272651D01*
X83379118Y-37272651D01*
X83385778Y-37127349D01*
X83344977Y-36858393D01*
X83252490Y-36602565D01*
X83192596Y-36490510D01*
X82999267Y-36380338D01*
X82179605Y-37200000D01*
X81820395Y-37200000D01*
X81000733Y-36380338D01*
X80807404Y-36490510D01*
X80691905Y-36736806D01*
X80626676Y-37000903D01*
X80614222Y-37272651D01*
X73036989Y-37272651D01*
X73037435Y-37272490D01*
X73149490Y-37212596D01*
X73259662Y-37019267D01*
X72440000Y-36199605D01*
X71620338Y-37019267D01*
X58019662Y-37019267D01*
X57200000Y-36199605D01*
X56380338Y-37019267D01*
X50294681Y-37019267D01*
X50252490Y-36902565D01*
X50192596Y-36790510D01*
X49999267Y-36680338D01*
X49179605Y-37500000D01*
X48820395Y-37500000D01*
X48000733Y-36680338D01*
X47807404Y-36790510D01*
X47691905Y-37036806D01*
X47626676Y-37300903D01*
X47614222Y-37572651D01*
X45635000Y-37572651D01*
X45635000Y-37338967D01*
X45572168Y-37023088D01*
X45448918Y-36725537D01*
X45298709Y-36500733D01*
X48180338Y-36500733D01*
X49000000Y-37320395D01*
X49819662Y-36500733D01*
X49709490Y-36307404D01*
X49463194Y-36191905D01*
X49199097Y-36126676D01*
X48927349Y-36114222D01*
X48658393Y-36155023D01*
X48402565Y-36247510D01*
X48290510Y-36307404D01*
X48180338Y-36500733D01*
X45298709Y-36500733D01*
X45269987Y-36457748D01*
X45042252Y-36230013D01*
X44836676Y-36092651D01*
X55814222Y-36092651D01*
X55855023Y-36361607D01*
X55947510Y-36617435D01*
X56007404Y-36729490D01*
X56200733Y-36839662D01*
X57020395Y-36020000D01*
X57379605Y-36020000D01*
X58199267Y-36839662D01*
X58392596Y-36729490D01*
X58508095Y-36483194D01*
X58573324Y-36219097D01*
X58579118Y-36092651D01*
X71054222Y-36092651D01*
X71095023Y-36361607D01*
X71187510Y-36617435D01*
X71247404Y-36729490D01*
X71440733Y-36839662D01*
X72260395Y-36020000D01*
X72619605Y-36020000D01*
X73439267Y-36839662D01*
X73632596Y-36729490D01*
X73748095Y-36483194D01*
X73813324Y-36219097D01*
X73814165Y-36200733D01*
X81180338Y-36200733D01*
X82000000Y-37020395D01*
X82819662Y-36200733D01*
X88680338Y-36200733D01*
X89500000Y-37020395D01*
X90319662Y-36200733D01*
X90209490Y-36007404D01*
X89963194Y-35891905D01*
X89699097Y-35826676D01*
X89427349Y-35814222D01*
X89158393Y-35855023D01*
X88902565Y-35947510D01*
X88790510Y-36007404D01*
X88680338Y-36200733D01*
X82819662Y-36200733D01*
X82709490Y-36007404D01*
X82463194Y-35891905D01*
X82199097Y-35826676D01*
X81927349Y-35814222D01*
X81658393Y-35855023D01*
X81402565Y-35947510D01*
X81290510Y-36007404D01*
X81180338Y-36200733D01*
X73814165Y-36200733D01*
X73825778Y-35947349D01*
X73784977Y-35678393D01*
X73765675Y-35625000D01*
X83242157Y-35625000D01*
X83249513Y-35699689D01*
X83271299Y-35771508D01*
X83306678Y-35837696D01*
X83354289Y-35895711D01*
X83412304Y-35943322D01*
X83478492Y-35978701D01*
X83550311Y-36000487D01*
X83625000Y-36007843D01*
X84277750Y-36006000D01*
X84373000Y-35910750D01*
X84373000Y-35127000D01*
X84627000Y-35127000D01*
X84627000Y-35910750D01*
X84722250Y-36006000D01*
X85375000Y-36007843D01*
X85449689Y-36000487D01*
X85521508Y-35978701D01*
X85587696Y-35943322D01*
X85645711Y-35895711D01*
X85693322Y-35837696D01*
X85728701Y-35771508D01*
X85750487Y-35699689D01*
X85757843Y-35625000D01*
X85756000Y-35222250D01*
X85660750Y-35127000D01*
X84627000Y-35127000D01*
X84373000Y-35127000D01*
X83339250Y-35127000D01*
X83244000Y-35222250D01*
X83242157Y-35625000D01*
X73765675Y-35625000D01*
X73692490Y-35422565D01*
X73632596Y-35310510D01*
X73439267Y-35200338D01*
X72619605Y-36020000D01*
X72260395Y-36020000D01*
X71440733Y-35200338D01*
X71247404Y-35310510D01*
X71131905Y-35556806D01*
X71066676Y-35820903D01*
X71054222Y-36092651D01*
X58579118Y-36092651D01*
X58585778Y-35947349D01*
X58544977Y-35678393D01*
X58452490Y-35422565D01*
X58392596Y-35310510D01*
X58199267Y-35200338D01*
X57379605Y-36020000D01*
X57020395Y-36020000D01*
X56200733Y-35200338D01*
X56007404Y-35310510D01*
X55891905Y-35556806D01*
X55826676Y-35820903D01*
X55814222Y-36092651D01*
X44836676Y-36092651D01*
X44774463Y-36051082D01*
X44476912Y-35927832D01*
X44161033Y-35865000D01*
X43838967Y-35865000D01*
X43523088Y-35927832D01*
X43225537Y-36051082D01*
X42957748Y-36230013D01*
X42730013Y-36457748D01*
X42551082Y-36725537D01*
X42427832Y-37023088D01*
X42365000Y-37338967D01*
X15660000Y-37338967D01*
X15660000Y-32300000D01*
X18161928Y-32300000D01*
X18161928Y-34300000D01*
X18174188Y-34424482D01*
X18210498Y-34544180D01*
X18269463Y-34654494D01*
X18348815Y-34751185D01*
X18445506Y-34830537D01*
X18555820Y-34889502D01*
X18675518Y-34925812D01*
X18800000Y-34938072D01*
X20800000Y-34938072D01*
X20924482Y-34925812D01*
X21044180Y-34889502D01*
X21154494Y-34830537D01*
X21251185Y-34751185D01*
X21330537Y-34654494D01*
X21389502Y-34544180D01*
X21425812Y-34424482D01*
X21438072Y-34300000D01*
X21438072Y-34299267D01*
X23980338Y-34299267D01*
X24090510Y-34492596D01*
X24336806Y-34608095D01*
X24600903Y-34673324D01*
X24872651Y-34685778D01*
X25141607Y-34644977D01*
X25397435Y-34552490D01*
X25509490Y-34492596D01*
X25619662Y-34299267D01*
X24800000Y-33479605D01*
X23980338Y-34299267D01*
X21438072Y-34299267D01*
X21438072Y-33372651D01*
X23414222Y-33372651D01*
X23455023Y-33641607D01*
X23547510Y-33897435D01*
X23607404Y-34009490D01*
X23800733Y-34119662D01*
X24620395Y-33300000D01*
X24979605Y-33300000D01*
X25799267Y-34119662D01*
X25992596Y-34009490D01*
X26108095Y-33763194D01*
X26173324Y-33499097D01*
X26185778Y-33227349D01*
X26144977Y-32958393D01*
X26052490Y-32702565D01*
X25992596Y-32590510D01*
X25799267Y-32480338D01*
X24979605Y-33300000D01*
X24620395Y-33300000D01*
X23800733Y-32480338D01*
X23607404Y-32590510D01*
X23491905Y-32836806D01*
X23426676Y-33100903D01*
X23414222Y-33372651D01*
X21438072Y-33372651D01*
X21438072Y-32300733D01*
X23980338Y-32300733D01*
X24800000Y-33120395D01*
X25619662Y-32300733D01*
X25509490Y-32107404D01*
X25263194Y-31991905D01*
X24999097Y-31926676D01*
X24727349Y-31914222D01*
X24458393Y-31955023D01*
X24202565Y-32047510D01*
X24090510Y-32107404D01*
X23980338Y-32300733D01*
X21438072Y-32300733D01*
X21438072Y-32300000D01*
X21425812Y-32175518D01*
X21389502Y-32055820D01*
X21330537Y-31945506D01*
X21251185Y-31848815D01*
X21154494Y-31769463D01*
X21044180Y-31710498D01*
X20924482Y-31674188D01*
X20800000Y-31661928D01*
X18800000Y-31661928D01*
X18675518Y-31674188D01*
X18555820Y-31710498D01*
X18445506Y-31769463D01*
X18348815Y-31848815D01*
X18269463Y-31945506D01*
X18210498Y-32055820D01*
X18174188Y-32175518D01*
X18161928Y-32300000D01*
X15660000Y-32300000D01*
X15660000Y-31198967D01*
X28765000Y-31198967D01*
X28765000Y-31521033D01*
X28827832Y-31836912D01*
X28951082Y-32134463D01*
X29130013Y-32402252D01*
X29357748Y-32629987D01*
X29357767Y-32630000D01*
X29357748Y-32630013D01*
X29130013Y-32857748D01*
X28951082Y-33125537D01*
X28827832Y-33423088D01*
X28765000Y-33738967D01*
X28765000Y-34061033D01*
X28827832Y-34376912D01*
X28951082Y-34674463D01*
X29130013Y-34942252D01*
X29357748Y-35169987D01*
X29625537Y-35348918D01*
X29923088Y-35472168D01*
X30238967Y-35535000D01*
X30561033Y-35535000D01*
X30876912Y-35472168D01*
X31174463Y-35348918D01*
X31442252Y-35169987D01*
X31577239Y-35035000D01*
X36877379Y-35035000D01*
X36910498Y-35144180D01*
X36969463Y-35254494D01*
X37048815Y-35351185D01*
X37145506Y-35430537D01*
X37255820Y-35489502D01*
X37375518Y-35525812D01*
X37500000Y-35538072D01*
X39500000Y-35538072D01*
X39531192Y-35535000D01*
X41080322Y-35535000D01*
X41320516Y-35511343D01*
X41628715Y-35417852D01*
X41912752Y-35266031D01*
X42161714Y-35061714D01*
X42195346Y-35020733D01*
X56380338Y-35020733D01*
X57200000Y-35840395D01*
X58019662Y-35020733D01*
X71620338Y-35020733D01*
X72440000Y-35840395D01*
X73259662Y-35020733D01*
X73149490Y-34827404D01*
X72903194Y-34711905D01*
X72639097Y-34646676D01*
X72367349Y-34634222D01*
X72098393Y-34675023D01*
X71842565Y-34767510D01*
X71730510Y-34827404D01*
X71620338Y-35020733D01*
X58019662Y-35020733D01*
X57909490Y-34827404D01*
X57663194Y-34711905D01*
X57399097Y-34646676D01*
X57127349Y-34634222D01*
X56858393Y-34675023D01*
X56602565Y-34767510D01*
X56490510Y-34827404D01*
X56380338Y-35020733D01*
X42195346Y-35020733D01*
X42366031Y-34812752D01*
X42517852Y-34528715D01*
X42564480Y-34375000D01*
X83242157Y-34375000D01*
X83244000Y-34777750D01*
X83339250Y-34873000D01*
X84373000Y-34873000D01*
X84373000Y-34089250D01*
X84627000Y-34089250D01*
X84627000Y-34873000D01*
X85660750Y-34873000D01*
X85756000Y-34777750D01*
X85757843Y-34375000D01*
X85750487Y-34300311D01*
X85728701Y-34228492D01*
X85693322Y-34162304D01*
X85645711Y-34104289D01*
X85587696Y-34056678D01*
X85521508Y-34021299D01*
X85449689Y-33999513D01*
X85375000Y-33992157D01*
X84722250Y-33994000D01*
X84627000Y-34089250D01*
X84373000Y-34089250D01*
X84277750Y-33994000D01*
X83625000Y-33992157D01*
X83550311Y-33999513D01*
X83478492Y-34021299D01*
X83412304Y-34056678D01*
X83354289Y-34104289D01*
X83306678Y-34162304D01*
X83271299Y-34228492D01*
X83249513Y-34300311D01*
X83242157Y-34375000D01*
X42564480Y-34375000D01*
X42611343Y-34220516D01*
X42642911Y-33900000D01*
X42611343Y-33579484D01*
X42517852Y-33271285D01*
X42439662Y-33125000D01*
X46142157Y-33125000D01*
X46149513Y-33199689D01*
X46171299Y-33271508D01*
X46206678Y-33337696D01*
X46254289Y-33395711D01*
X46312304Y-33443322D01*
X46378492Y-33478701D01*
X46450311Y-33500487D01*
X46525000Y-33507843D01*
X47177750Y-33506000D01*
X47273000Y-33410750D01*
X47273000Y-32627000D01*
X47527000Y-32627000D01*
X47527000Y-33410750D01*
X47622250Y-33506000D01*
X48275000Y-33507843D01*
X48349689Y-33500487D01*
X48421508Y-33478701D01*
X48487696Y-33443322D01*
X48545711Y-33395711D01*
X48593322Y-33337696D01*
X48628701Y-33271508D01*
X48650487Y-33199689D01*
X48657843Y-33125000D01*
X48656000Y-32722250D01*
X48560750Y-32627000D01*
X47527000Y-32627000D01*
X47273000Y-32627000D01*
X46239250Y-32627000D01*
X46144000Y-32722250D01*
X46142157Y-33125000D01*
X42439662Y-33125000D01*
X42366031Y-32987248D01*
X42161714Y-32738286D01*
X41912752Y-32533969D01*
X41628715Y-32382148D01*
X41320516Y-32288657D01*
X41080322Y-32265000D01*
X39531192Y-32265000D01*
X39500000Y-32261928D01*
X37500000Y-32261928D01*
X37375518Y-32274188D01*
X37255820Y-32310498D01*
X37145506Y-32369463D01*
X37048815Y-32448815D01*
X36969463Y-32545506D01*
X36910498Y-32655820D01*
X36877379Y-32765000D01*
X31577239Y-32765000D01*
X31442252Y-32630013D01*
X31442233Y-32630000D01*
X31442252Y-32629987D01*
X31577239Y-32495000D01*
X31940724Y-32495000D01*
X32035150Y-32545472D01*
X32201746Y-32596008D01*
X32375000Y-32613072D01*
X33625000Y-32613072D01*
X33798254Y-32596008D01*
X33964850Y-32545472D01*
X34118386Y-32463405D01*
X34252962Y-32352962D01*
X34363405Y-32218386D01*
X34445472Y-32064850D01*
X34496008Y-31898254D01*
X34513072Y-31725000D01*
X39742157Y-31725000D01*
X39749513Y-31799689D01*
X39771299Y-31871508D01*
X39806678Y-31937696D01*
X39854289Y-31995711D01*
X39912304Y-32043322D01*
X39978492Y-32078701D01*
X40050311Y-32100487D01*
X40125000Y-32107843D01*
X40777750Y-32106000D01*
X40873000Y-32010750D01*
X40873000Y-31227000D01*
X41127000Y-31227000D01*
X41127000Y-32010750D01*
X41222250Y-32106000D01*
X41875000Y-32107843D01*
X41949689Y-32100487D01*
X42021508Y-32078701D01*
X42087696Y-32043322D01*
X42145711Y-31995711D01*
X42193322Y-31937696D01*
X42226834Y-31875000D01*
X46142157Y-31875000D01*
X46144000Y-32277750D01*
X46239250Y-32373000D01*
X47273000Y-32373000D01*
X47273000Y-31589250D01*
X47527000Y-31589250D01*
X47527000Y-32373000D01*
X48560750Y-32373000D01*
X48656000Y-32277750D01*
X48657046Y-32048967D01*
X55565000Y-32048967D01*
X55565000Y-32371033D01*
X55627832Y-32686912D01*
X55751082Y-32984463D01*
X55930013Y-33252252D01*
X56157748Y-33479987D01*
X56425537Y-33658918D01*
X56723088Y-33782168D01*
X57038967Y-33845000D01*
X57361033Y-33845000D01*
X57676912Y-33782168D01*
X57974463Y-33658918D01*
X58242252Y-33479987D01*
X58469987Y-33252252D01*
X58648918Y-32984463D01*
X58772168Y-32686912D01*
X58835000Y-32371033D01*
X58835000Y-32210000D01*
X70797089Y-32210000D01*
X70805000Y-32290322D01*
X70805000Y-32371033D01*
X70820746Y-32450193D01*
X70828657Y-32530516D01*
X70852086Y-32607751D01*
X70867832Y-32686912D01*
X70898719Y-32761479D01*
X70922148Y-32838715D01*
X70960196Y-32909898D01*
X70991082Y-32984463D01*
X71035921Y-33051569D01*
X71073969Y-33122752D01*
X71125174Y-33185146D01*
X71170013Y-33252252D01*
X71227080Y-33309319D01*
X71278286Y-33371714D01*
X71340681Y-33422920D01*
X71397748Y-33479987D01*
X71464854Y-33524826D01*
X71527248Y-33576031D01*
X71598431Y-33614079D01*
X71665537Y-33658918D01*
X71740102Y-33689804D01*
X71811285Y-33727852D01*
X71888521Y-33751281D01*
X71963088Y-33782168D01*
X72042249Y-33797914D01*
X72119484Y-33821343D01*
X72199807Y-33829254D01*
X72278967Y-33845000D01*
X75709681Y-33845000D01*
X75790000Y-33852911D01*
X75870319Y-33845000D01*
X75870322Y-33845000D01*
X76110516Y-33821343D01*
X76418715Y-33727852D01*
X76702752Y-33576031D01*
X76951714Y-33371714D01*
X77002925Y-33309313D01*
X77012915Y-33299323D01*
X77166030Y-33112752D01*
X77249999Y-32955656D01*
X77333969Y-33112752D01*
X77538286Y-33361714D01*
X77787248Y-33566031D01*
X78071285Y-33717852D01*
X78379484Y-33811343D01*
X78619678Y-33835000D01*
X80968808Y-33835000D01*
X81000000Y-33838072D01*
X83000000Y-33838072D01*
X83031192Y-33835000D01*
X89661033Y-33835000D01*
X89740193Y-33819254D01*
X89820516Y-33811343D01*
X89897751Y-33787914D01*
X89976912Y-33772168D01*
X90051479Y-33741281D01*
X90128715Y-33717852D01*
X90199898Y-33679804D01*
X90274463Y-33648918D01*
X90341569Y-33604079D01*
X90412752Y-33566031D01*
X90475146Y-33514826D01*
X90542252Y-33469987D01*
X90599319Y-33412920D01*
X90661714Y-33361714D01*
X90712920Y-33299319D01*
X90769987Y-33242252D01*
X90814826Y-33175146D01*
X90866031Y-33112752D01*
X90904079Y-33041569D01*
X90948918Y-32974463D01*
X90979804Y-32899898D01*
X91017852Y-32828715D01*
X91041281Y-32751479D01*
X91072168Y-32676912D01*
X91087914Y-32597751D01*
X91111343Y-32520516D01*
X91119254Y-32440193D01*
X91135000Y-32361033D01*
X91135000Y-32280322D01*
X91142911Y-32200000D01*
X91135000Y-32119678D01*
X91135000Y-32038967D01*
X91119254Y-31959807D01*
X91111343Y-31879484D01*
X91087914Y-31802249D01*
X91072168Y-31723088D01*
X91041281Y-31648521D01*
X91017852Y-31571285D01*
X90979804Y-31500102D01*
X90948918Y-31425537D01*
X90904079Y-31358431D01*
X90866031Y-31287248D01*
X90814826Y-31224854D01*
X90769987Y-31157748D01*
X90712920Y-31100681D01*
X90661714Y-31038286D01*
X90599319Y-30987080D01*
X90542252Y-30930013D01*
X90475146Y-30885174D01*
X90412752Y-30833969D01*
X90341569Y-30795921D01*
X90274463Y-30751082D01*
X90199898Y-30720196D01*
X90128715Y-30682148D01*
X90051479Y-30658719D01*
X89976912Y-30627832D01*
X89897751Y-30612086D01*
X89820516Y-30588657D01*
X89740193Y-30580746D01*
X89661033Y-30565000D01*
X83031192Y-30565000D01*
X83000000Y-30561928D01*
X81000000Y-30561928D01*
X80968808Y-30565000D01*
X78619678Y-30565000D01*
X78379484Y-30588657D01*
X78071285Y-30682148D01*
X77787248Y-30833969D01*
X77538286Y-31038286D01*
X77333969Y-31287248D01*
X77249999Y-31444344D01*
X77166030Y-31287248D01*
X76961713Y-31038287D01*
X76712752Y-30833970D01*
X76428714Y-30682149D01*
X76120516Y-30588658D01*
X75799999Y-30557089D01*
X75618151Y-30575000D01*
X72278967Y-30575000D01*
X72199807Y-30590746D01*
X72119484Y-30598657D01*
X72042249Y-30622086D01*
X71963088Y-30637832D01*
X71888521Y-30668719D01*
X71811285Y-30692148D01*
X71740102Y-30730196D01*
X71665537Y-30761082D01*
X71598431Y-30805921D01*
X71527248Y-30843969D01*
X71464854Y-30895174D01*
X71397748Y-30940013D01*
X71340681Y-30997080D01*
X71278286Y-31048286D01*
X71227080Y-31110681D01*
X71170013Y-31167748D01*
X71125174Y-31234854D01*
X71073969Y-31297248D01*
X71035921Y-31368431D01*
X70991082Y-31435537D01*
X70960196Y-31510102D01*
X70922148Y-31581285D01*
X70898719Y-31658521D01*
X70867832Y-31733088D01*
X70852086Y-31812249D01*
X70828657Y-31889484D01*
X70820746Y-31969807D01*
X70805000Y-32048967D01*
X70805000Y-32129678D01*
X70797089Y-32210000D01*
X58835000Y-32210000D01*
X58835000Y-32048967D01*
X58772168Y-31733088D01*
X58648918Y-31435537D01*
X58469987Y-31167748D01*
X58242252Y-30940013D01*
X57974463Y-30761082D01*
X57676912Y-30637832D01*
X57361033Y-30575000D01*
X57038967Y-30575000D01*
X56723088Y-30637832D01*
X56425537Y-30761082D01*
X56157748Y-30940013D01*
X55930013Y-31167748D01*
X55751082Y-31435537D01*
X55627832Y-31733088D01*
X55565000Y-32048967D01*
X48657046Y-32048967D01*
X48657843Y-31875000D01*
X48650487Y-31800311D01*
X48628701Y-31728492D01*
X48593322Y-31662304D01*
X48545711Y-31604289D01*
X48487696Y-31556678D01*
X48421508Y-31521299D01*
X48349689Y-31499513D01*
X48275000Y-31492157D01*
X47622250Y-31494000D01*
X47527000Y-31589250D01*
X47273000Y-31589250D01*
X47177750Y-31494000D01*
X46525000Y-31492157D01*
X46450311Y-31499513D01*
X46378492Y-31521299D01*
X46312304Y-31556678D01*
X46254289Y-31604289D01*
X46206678Y-31662304D01*
X46171299Y-31728492D01*
X46149513Y-31800311D01*
X46142157Y-31875000D01*
X42226834Y-31875000D01*
X42228701Y-31871508D01*
X42250487Y-31799689D01*
X42257843Y-31725000D01*
X42256000Y-31322250D01*
X42160750Y-31227000D01*
X41127000Y-31227000D01*
X40873000Y-31227000D01*
X39839250Y-31227000D01*
X39744000Y-31322250D01*
X39742157Y-31725000D01*
X34513072Y-31725000D01*
X34513072Y-30975000D01*
X34496008Y-30801746D01*
X34445472Y-30635150D01*
X34363405Y-30481614D01*
X34357978Y-30475000D01*
X39742157Y-30475000D01*
X39744000Y-30877750D01*
X39839250Y-30973000D01*
X40873000Y-30973000D01*
X40873000Y-30189250D01*
X41127000Y-30189250D01*
X41127000Y-30973000D01*
X42160750Y-30973000D01*
X42256000Y-30877750D01*
X42257843Y-30475000D01*
X42250487Y-30400311D01*
X42228701Y-30328492D01*
X42193322Y-30262304D01*
X42145711Y-30204289D01*
X42087696Y-30156678D01*
X42021508Y-30121299D01*
X41949689Y-30099513D01*
X41875000Y-30092157D01*
X41222250Y-30094000D01*
X41127000Y-30189250D01*
X40873000Y-30189250D01*
X40777750Y-30094000D01*
X40125000Y-30092157D01*
X40050311Y-30099513D01*
X39978492Y-30121299D01*
X39912304Y-30156678D01*
X39854289Y-30204289D01*
X39806678Y-30262304D01*
X39771299Y-30328492D01*
X39749513Y-30400311D01*
X39742157Y-30475000D01*
X34357978Y-30475000D01*
X34252962Y-30347038D01*
X34118386Y-30236595D01*
X33964850Y-30154528D01*
X33798254Y-30103992D01*
X33625000Y-30086928D01*
X32375000Y-30086928D01*
X32201746Y-30103992D01*
X32035150Y-30154528D01*
X31903307Y-30225000D01*
X31577239Y-30225000D01*
X31442252Y-30090013D01*
X31174463Y-29911082D01*
X31168700Y-29908695D01*
X31174072Y-29899267D01*
X37680338Y-29899267D01*
X37790510Y-30092596D01*
X38036806Y-30208095D01*
X38300903Y-30273324D01*
X38572651Y-30285778D01*
X38841607Y-30244977D01*
X39097435Y-30152490D01*
X39209490Y-30092596D01*
X39319662Y-29899267D01*
X38500000Y-29079605D01*
X37680338Y-29899267D01*
X31174072Y-29899267D01*
X31219662Y-29819267D01*
X30400000Y-28999605D01*
X29580338Y-29819267D01*
X29631300Y-29908695D01*
X29625537Y-29911082D01*
X29357748Y-30090013D01*
X29130013Y-30317748D01*
X28951082Y-30585537D01*
X28827832Y-30883088D01*
X28765000Y-31198967D01*
X15660000Y-31198967D01*
X15660000Y-28892651D01*
X29014222Y-28892651D01*
X29055023Y-29161607D01*
X29147510Y-29417435D01*
X29207404Y-29529490D01*
X29400733Y-29639662D01*
X30220395Y-28820000D01*
X30579605Y-28820000D01*
X31399267Y-29639662D01*
X31592596Y-29529490D01*
X31708095Y-29283194D01*
X31742296Y-29144724D01*
X31742157Y-29175000D01*
X31749513Y-29249689D01*
X31771299Y-29321508D01*
X31806678Y-29387696D01*
X31854289Y-29445711D01*
X31912304Y-29493322D01*
X31978492Y-29528701D01*
X32050311Y-29550487D01*
X32125000Y-29557843D01*
X32777750Y-29556000D01*
X32873000Y-29460750D01*
X32873000Y-28677000D01*
X33127000Y-28677000D01*
X33127000Y-29460750D01*
X33222250Y-29556000D01*
X33875000Y-29557843D01*
X33949689Y-29550487D01*
X34021508Y-29528701D01*
X34087696Y-29493322D01*
X34145711Y-29445711D01*
X34193322Y-29387696D01*
X34228701Y-29321508D01*
X34250487Y-29249689D01*
X34257843Y-29175000D01*
X34256918Y-28972651D01*
X37114222Y-28972651D01*
X37155023Y-29241607D01*
X37247510Y-29497435D01*
X37307404Y-29609490D01*
X37500733Y-29719662D01*
X38320395Y-28900000D01*
X38679605Y-28900000D01*
X39499267Y-29719662D01*
X39692596Y-29609490D01*
X39808095Y-29363194D01*
X39873324Y-29099097D01*
X39885778Y-28827349D01*
X39844977Y-28558393D01*
X39752490Y-28302565D01*
X39692596Y-28190510D01*
X39499267Y-28080338D01*
X38679605Y-28900000D01*
X38320395Y-28900000D01*
X37500733Y-28080338D01*
X37307404Y-28190510D01*
X37191905Y-28436806D01*
X37126676Y-28700903D01*
X37114222Y-28972651D01*
X34256918Y-28972651D01*
X34256000Y-28772250D01*
X34160750Y-28677000D01*
X33127000Y-28677000D01*
X32873000Y-28677000D01*
X32853000Y-28677000D01*
X32853000Y-28423000D01*
X32873000Y-28423000D01*
X32873000Y-27639250D01*
X33127000Y-27639250D01*
X33127000Y-28423000D01*
X34160750Y-28423000D01*
X34256000Y-28327750D01*
X34257843Y-27925000D01*
X34255453Y-27900733D01*
X37680338Y-27900733D01*
X38500000Y-28720395D01*
X39319662Y-27900733D01*
X39209490Y-27707404D01*
X38963194Y-27591905D01*
X38699097Y-27526676D01*
X38427349Y-27514222D01*
X38158393Y-27555023D01*
X37902565Y-27647510D01*
X37790510Y-27707404D01*
X37680338Y-27900733D01*
X34255453Y-27900733D01*
X34250487Y-27850311D01*
X34228701Y-27778492D01*
X34193322Y-27712304D01*
X34145711Y-27654289D01*
X34087696Y-27606678D01*
X34021508Y-27571299D01*
X33949689Y-27549513D01*
X33875000Y-27542157D01*
X33222250Y-27544000D01*
X33127000Y-27639250D01*
X32873000Y-27639250D01*
X32777750Y-27544000D01*
X32125000Y-27542157D01*
X32050311Y-27549513D01*
X31978492Y-27571299D01*
X31912304Y-27606678D01*
X31854289Y-27654289D01*
X31806678Y-27712304D01*
X31771299Y-27778492D01*
X31749513Y-27850311D01*
X31742157Y-27925000D01*
X31744000Y-28327750D01*
X31839248Y-28422998D01*
X31744000Y-28422998D01*
X31744000Y-28475691D01*
X31652490Y-28222565D01*
X31592596Y-28110510D01*
X31399267Y-28000338D01*
X30579605Y-28820000D01*
X30220395Y-28820000D01*
X29400733Y-28000338D01*
X29207404Y-28110510D01*
X29091905Y-28356806D01*
X29026676Y-28620903D01*
X29014222Y-28892651D01*
X15660000Y-28892651D01*
X15660000Y-27820733D01*
X29580338Y-27820733D01*
X30400000Y-28640395D01*
X31219662Y-27820733D01*
X31109490Y-27627404D01*
X30863194Y-27511905D01*
X30599097Y-27446676D01*
X30327349Y-27434222D01*
X30058393Y-27475023D01*
X29802565Y-27567510D01*
X29690510Y-27627404D01*
X29580338Y-27820733D01*
X15660000Y-27820733D01*
X15660000Y-26725000D01*
X40686928Y-26725000D01*
X40686928Y-27475000D01*
X40703992Y-27648254D01*
X40754528Y-27814850D01*
X40836595Y-27968386D01*
X40947038Y-28102962D01*
X41081614Y-28213405D01*
X41235150Y-28295472D01*
X41401746Y-28346008D01*
X41575000Y-28363072D01*
X42825000Y-28363072D01*
X42998254Y-28346008D01*
X43164850Y-28295472D01*
X43277985Y-28235000D01*
X43522015Y-28235000D01*
X43635150Y-28295472D01*
X43801746Y-28346008D01*
X43975000Y-28363072D01*
X45225000Y-28363072D01*
X45398254Y-28346008D01*
X45564850Y-28295472D01*
X45715402Y-28215000D01*
X46233112Y-28215000D01*
X46265000Y-28241171D01*
X46265001Y-28600229D01*
X46147038Y-28697038D01*
X46036595Y-28831614D01*
X45954528Y-28985150D01*
X45903992Y-29151746D01*
X45886928Y-29325000D01*
X45886928Y-30075000D01*
X45903992Y-30248254D01*
X45954528Y-30414850D01*
X46036595Y-30568386D01*
X46147038Y-30702962D01*
X46281614Y-30813405D01*
X46435150Y-30895472D01*
X46601746Y-30946008D01*
X46775000Y-30963072D01*
X48025000Y-30963072D01*
X48198254Y-30946008D01*
X48364850Y-30895472D01*
X48518386Y-30813405D01*
X48652962Y-30702962D01*
X48763405Y-30568386D01*
X48845472Y-30414850D01*
X48896008Y-30248254D01*
X48913072Y-30075000D01*
X48913072Y-29325000D01*
X48896008Y-29151746D01*
X48845472Y-28985150D01*
X48763405Y-28831614D01*
X48652962Y-28697038D01*
X48535000Y-28600230D01*
X48535000Y-28241170D01*
X48575463Y-28207963D01*
X48773845Y-27966235D01*
X48921255Y-27690449D01*
X49012030Y-27391204D01*
X49042681Y-27080000D01*
X49012030Y-26768796D01*
X48921255Y-26469551D01*
X48773845Y-26193765D01*
X48575463Y-25952037D01*
X48402391Y-25810000D01*
X48575463Y-25667963D01*
X48773845Y-25426235D01*
X48921255Y-25150449D01*
X49012030Y-24851204D01*
X49042681Y-24540000D01*
X49012030Y-24228796D01*
X48921255Y-23929551D01*
X48773845Y-23653765D01*
X48670554Y-23527905D01*
X48754494Y-23483037D01*
X48851185Y-23403685D01*
X48930537Y-23306994D01*
X48989502Y-23196680D01*
X49025812Y-23076982D01*
X49038072Y-22952500D01*
X49038072Y-21500000D01*
X51829657Y-21500000D01*
X51837013Y-21574689D01*
X51858799Y-21646508D01*
X51894178Y-21712696D01*
X51941789Y-21770711D01*
X51999804Y-21818322D01*
X52065992Y-21853701D01*
X52137811Y-21875487D01*
X52212500Y-21882843D01*
X52477750Y-21881000D01*
X52573000Y-21785750D01*
X52573000Y-20927000D01*
X51926750Y-20927000D01*
X51831500Y-21022250D01*
X51829657Y-21500000D01*
X49038072Y-21500000D01*
X49038072Y-21047500D01*
X49025812Y-20923018D01*
X48989502Y-20803320D01*
X48930537Y-20693006D01*
X48851185Y-20596315D01*
X48754494Y-20516963D01*
X48644180Y-20457998D01*
X48524482Y-20421688D01*
X48400000Y-20409428D01*
X46400000Y-20409428D01*
X46275518Y-20421688D01*
X46155820Y-20457998D01*
X46045506Y-20516963D01*
X45948815Y-20596315D01*
X45869463Y-20693006D01*
X45810498Y-20803320D01*
X45774188Y-20923018D01*
X45761928Y-21047500D01*
X45761928Y-22952500D01*
X45774188Y-23076982D01*
X45810498Y-23196680D01*
X45869463Y-23306994D01*
X45948815Y-23403685D01*
X46045506Y-23483037D01*
X46129446Y-23527905D01*
X46026155Y-23653765D01*
X45878745Y-23929551D01*
X45856340Y-24003410D01*
X45857843Y-23675000D01*
X45850487Y-23600311D01*
X45828701Y-23528492D01*
X45793322Y-23462304D01*
X45745711Y-23404289D01*
X45687696Y-23356678D01*
X45621508Y-23321299D01*
X45549689Y-23299513D01*
X45475000Y-23292157D01*
X44822250Y-23294000D01*
X44727000Y-23389250D01*
X44727000Y-24173000D01*
X44747000Y-24173000D01*
X44747000Y-24427000D01*
X44727000Y-24427000D01*
X44727000Y-25210750D01*
X44822250Y-25306000D01*
X45475000Y-25307843D01*
X45549689Y-25300487D01*
X45621508Y-25278701D01*
X45687696Y-25243322D01*
X45745711Y-25195711D01*
X45793322Y-25137696D01*
X45828701Y-25071508D01*
X45841750Y-25028492D01*
X45878745Y-25150449D01*
X46026155Y-25426235D01*
X46224537Y-25667963D01*
X46397609Y-25810000D01*
X46233112Y-25945000D01*
X45640568Y-25945000D01*
X45564850Y-25904528D01*
X45398254Y-25853992D01*
X45225000Y-25836928D01*
X43975000Y-25836928D01*
X43801746Y-25853992D01*
X43635150Y-25904528D01*
X43522015Y-25965000D01*
X43277985Y-25965000D01*
X43164850Y-25904528D01*
X42998254Y-25853992D01*
X42825000Y-25836928D01*
X41575000Y-25836928D01*
X41401746Y-25853992D01*
X41235150Y-25904528D01*
X41081614Y-25986595D01*
X40947038Y-26097038D01*
X40836595Y-26231614D01*
X40754528Y-26385150D01*
X40703992Y-26551746D01*
X40686928Y-26725000D01*
X15660000Y-26725000D01*
X15660000Y-25999267D01*
X19080338Y-25999267D01*
X19190510Y-26192596D01*
X19436806Y-26308095D01*
X19700903Y-26373324D01*
X19972651Y-26385778D01*
X20241607Y-26344977D01*
X20497435Y-26252490D01*
X20609490Y-26192596D01*
X20719662Y-25999267D01*
X19900000Y-25179605D01*
X19080338Y-25999267D01*
X15660000Y-25999267D01*
X15660000Y-25072651D01*
X18514222Y-25072651D01*
X18555023Y-25341607D01*
X18647510Y-25597435D01*
X18707404Y-25709490D01*
X18900733Y-25819662D01*
X19720395Y-25000000D01*
X20079605Y-25000000D01*
X20899267Y-25819662D01*
X21092596Y-25709490D01*
X21208095Y-25463194D01*
X21273324Y-25199097D01*
X21285778Y-24927349D01*
X21244977Y-24658393D01*
X21152490Y-24402565D01*
X21092596Y-24290510D01*
X20899267Y-24180338D01*
X20079605Y-25000000D01*
X19720395Y-25000000D01*
X18900733Y-24180338D01*
X18707404Y-24290510D01*
X18591905Y-24536806D01*
X18526676Y-24800903D01*
X18514222Y-25072651D01*
X15660000Y-25072651D01*
X15660000Y-24000733D01*
X19080338Y-24000733D01*
X19900000Y-24820395D01*
X20719662Y-24000733D01*
X20609490Y-23807404D01*
X20363194Y-23691905D01*
X20099097Y-23626676D01*
X19827349Y-23614222D01*
X19558393Y-23655023D01*
X19302565Y-23747510D01*
X19190510Y-23807404D01*
X19080338Y-24000733D01*
X15660000Y-24000733D01*
X15660000Y-15660000D01*
X21232926Y-15660000D01*
X21164490Y-15716164D01*
G37*
X21164490Y-15716164D02*
X21164487Y-15716167D01*
X21083023Y-15783023D01*
X21016167Y-15864487D01*
X18316165Y-18564490D01*
X18116224Y-18808119D01*
X17917975Y-19179018D01*
X17795893Y-19581467D01*
X17754671Y-20000000D01*
X17795893Y-20418533D01*
X17917975Y-20820982D01*
X18116224Y-21191881D01*
X18383023Y-21516977D01*
X18708119Y-21783776D01*
X19079018Y-21982025D01*
X19481467Y-22104107D01*
X19900000Y-22145329D01*
X20318533Y-22104107D01*
X20720982Y-21982025D01*
X21091881Y-21783776D01*
X21335510Y-21583835D01*
X21769345Y-21150000D01*
X33761203Y-21150000D01*
X33765000Y-21188553D01*
X33765001Y-23611437D01*
X33761203Y-23650000D01*
X33776359Y-23803886D01*
X33821246Y-23951859D01*
X33843004Y-23992565D01*
X33894139Y-24088233D01*
X33925796Y-24126806D01*
X33967655Y-24177812D01*
X33967659Y-24177816D01*
X33992237Y-24207764D01*
X34022185Y-24232342D01*
X34617653Y-24827810D01*
X34642236Y-24857764D01*
X34761767Y-24955862D01*
X34872127Y-25014850D01*
X34898140Y-25028754D01*
X35046113Y-25073642D01*
X35121026Y-25081020D01*
X35161439Y-25085000D01*
X35161444Y-25085000D01*
X35200000Y-25088797D01*
X35238556Y-25085000D01*
X40792024Y-25085000D01*
X40836595Y-25168386D01*
X40947038Y-25302962D01*
X41081614Y-25413405D01*
X41235150Y-25495472D01*
X41401746Y-25546008D01*
X41575000Y-25563072D01*
X42825000Y-25563072D01*
X42998254Y-25546008D01*
X43164850Y-25495472D01*
X43318386Y-25413405D01*
X43452962Y-25302962D01*
X43506091Y-25238223D01*
X43512304Y-25243322D01*
X43578492Y-25278701D01*
X43650311Y-25300487D01*
X43725000Y-25307843D01*
X44377750Y-25306000D01*
X44473000Y-25210750D01*
X44473000Y-24427000D01*
X44453000Y-24427000D01*
X44453000Y-24173000D01*
X44473000Y-24173000D01*
X44473000Y-23389250D01*
X44377750Y-23294000D01*
X43725000Y-23292157D01*
X43650311Y-23299513D01*
X43578492Y-23321299D01*
X43512304Y-23356678D01*
X43506091Y-23361777D01*
X43452962Y-23297038D01*
X43318386Y-23186595D01*
X43164850Y-23104528D01*
X42998254Y-23053992D01*
X42825000Y-23036928D01*
X41575000Y-23036928D01*
X41401746Y-23053992D01*
X41235150Y-23104528D01*
X41081614Y-23186595D01*
X40947038Y-23297038D01*
X40836595Y-23431614D01*
X40792024Y-23515000D01*
X35525157Y-23515000D01*
X35335000Y-23324843D01*
X35335000Y-21681515D01*
X35490256Y-21617205D01*
X35659774Y-21503937D01*
X35803937Y-21359774D01*
X35917205Y-21190256D01*
X35995226Y-21001898D01*
X36035000Y-20801939D01*
X36035000Y-20598061D01*
X35995226Y-20398102D01*
X35917205Y-20209744D01*
X35843877Y-20100000D01*
X51829657Y-20100000D01*
X51831500Y-20577750D01*
X51926750Y-20673000D01*
X52573000Y-20673000D01*
X52573000Y-19814250D01*
X52477750Y-19719000D01*
X52212500Y-19717157D01*
X52137811Y-19724513D01*
X52065992Y-19746299D01*
X51999804Y-19781678D01*
X51941789Y-19829289D01*
X51894178Y-19887304D01*
X51858799Y-19953492D01*
X51837013Y-20025311D01*
X51829657Y-20100000D01*
X35843877Y-20100000D01*
X35803937Y-20040226D01*
X35659774Y-19896063D01*
X35490256Y-19782795D01*
X35301898Y-19704774D01*
X35101939Y-19665000D01*
X34898061Y-19665000D01*
X34698102Y-19704774D01*
X34509744Y-19782795D01*
X34340226Y-19896063D01*
X34196063Y-20040226D01*
X34082795Y-20209744D01*
X34004774Y-20398102D01*
X33965000Y-20598061D01*
X33965000Y-20625423D01*
X33894138Y-20711768D01*
X33821246Y-20848141D01*
X33776359Y-20996114D01*
X33765000Y-21111440D01*
X33765000Y-21111447D01*
X33761203Y-21150000D01*
X21769345Y-21150000D01*
X23484346Y-19435000D01*
X53660992Y-19435000D01*
X53413286Y-19638286D01*
X53326509Y-19744024D01*
X53262189Y-19724513D01*
X53187500Y-19717157D01*
X52922250Y-19719000D01*
X52827000Y-19814250D01*
X52827000Y-20673000D01*
X52847000Y-20673000D01*
X52847000Y-20927000D01*
X52827000Y-20927000D01*
X52827000Y-21785750D01*
X52922250Y-21881000D01*
X53187500Y-21882843D01*
X53262189Y-21875487D01*
X53326509Y-21855976D01*
X53413286Y-21961714D01*
X53662248Y-22166031D01*
X53946285Y-22317852D01*
X54254484Y-22411343D01*
X54494678Y-22435000D01*
X55851205Y-22435000D01*
X56008120Y-22563777D01*
X56379019Y-22762026D01*
X56781468Y-22884108D01*
X57200000Y-22925330D01*
X57618533Y-22884108D01*
X58020982Y-22762026D01*
X58391881Y-22563777D01*
X58573166Y-22415000D01*
X58865001Y-22415000D01*
X58865000Y-24649869D01*
X58835000Y-24619869D01*
X58835000Y-24428967D01*
X58772168Y-24113088D01*
X58648918Y-23815537D01*
X58469987Y-23547748D01*
X58242252Y-23320013D01*
X57974463Y-23141082D01*
X57676912Y-23017832D01*
X57361033Y-22955000D01*
X57038967Y-22955000D01*
X56723088Y-23017832D01*
X56425537Y-23141082D01*
X56157748Y-23320013D01*
X55930013Y-23547748D01*
X55751082Y-23815537D01*
X55627832Y-24113088D01*
X55565000Y-24428967D01*
X55565000Y-24751033D01*
X55627832Y-25066912D01*
X55751082Y-25364463D01*
X55930013Y-25632252D01*
X56157748Y-25859987D01*
X56425537Y-26038918D01*
X56723088Y-26162168D01*
X57038967Y-26225000D01*
X57229869Y-26225000D01*
X57942860Y-26937992D01*
X57676912Y-26827832D01*
X57361033Y-26765000D01*
X57038967Y-26765000D01*
X56723088Y-26827832D01*
X56425537Y-26951082D01*
X56157748Y-27130013D01*
X55930013Y-27357748D01*
X55751082Y-27625537D01*
X55627832Y-27923088D01*
X55565000Y-28238967D01*
X55565000Y-28561033D01*
X55627832Y-28876912D01*
X55751082Y-29174463D01*
X55930013Y-29442252D01*
X56157748Y-29669987D01*
X56425537Y-29848918D01*
X56723088Y-29972168D01*
X57038967Y-30035000D01*
X57361033Y-30035000D01*
X57676912Y-29972168D01*
X57974463Y-29848918D01*
X58242252Y-29669987D01*
X58469987Y-29442252D01*
X58648918Y-29174463D01*
X58772168Y-28876912D01*
X58835000Y-28561033D01*
X58835000Y-28238967D01*
X58772168Y-27923088D01*
X58662009Y-27657141D01*
X58868009Y-27863141D01*
X58903551Y-27906449D01*
X59076377Y-28048284D01*
X59197216Y-28112873D01*
X59219463Y-28154494D01*
X59298815Y-28251185D01*
X59395506Y-28330537D01*
X59505820Y-28389502D01*
X59625518Y-28425812D01*
X59750000Y-28438072D01*
X61050000Y-28438072D01*
X61174482Y-28425812D01*
X61294180Y-28389502D01*
X61404494Y-28330537D01*
X61501185Y-28251185D01*
X61580537Y-28154494D01*
X61639502Y-28044180D01*
X61675812Y-27924482D01*
X61688072Y-27800000D01*
X61688072Y-27414575D01*
X61688657Y-27420515D01*
X61782148Y-27728714D01*
X61933969Y-28012751D01*
X62138286Y-28261714D01*
X62387248Y-28466031D01*
X62671285Y-28617852D01*
X62979484Y-28711343D01*
X63300000Y-28742911D01*
X63620515Y-28711343D01*
X63928714Y-28617852D01*
X64212751Y-28466031D01*
X64461714Y-28261714D01*
X64480381Y-28238967D01*
X70805000Y-28238967D01*
X70805000Y-28561033D01*
X70867832Y-28876912D01*
X70991082Y-29174463D01*
X71170013Y-29442252D01*
X71397748Y-29669987D01*
X71665537Y-29848918D01*
X71963088Y-29972168D01*
X72278967Y-30035000D01*
X72601033Y-30035000D01*
X72916912Y-29972168D01*
X73214463Y-29848918D01*
X73482252Y-29669987D01*
X73709987Y-29442252D01*
X73888918Y-29174463D01*
X74012168Y-28876912D01*
X74075000Y-28561033D01*
X74075000Y-28238967D01*
X74012168Y-27923088D01*
X73888918Y-27625537D01*
X73709987Y-27357748D01*
X73482252Y-27130013D01*
X73214463Y-26951082D01*
X72916912Y-26827832D01*
X72773306Y-26799267D01*
X81180338Y-26799267D01*
X81290510Y-26992596D01*
X81536806Y-27108095D01*
X81800903Y-27173324D01*
X82072651Y-27185778D01*
X82341607Y-27144977D01*
X82597435Y-27052490D01*
X82709490Y-26992596D01*
X82819662Y-26799267D01*
X88780338Y-26799267D01*
X88890510Y-26992596D01*
X89136806Y-27108095D01*
X89400903Y-27173324D01*
X89672651Y-27185778D01*
X89941607Y-27144977D01*
X90197435Y-27052490D01*
X90309490Y-26992596D01*
X90419662Y-26799267D01*
X89600000Y-25979605D01*
X88780338Y-26799267D01*
X82819662Y-26799267D01*
X82000000Y-25979605D01*
X81180338Y-26799267D01*
X72773306Y-26799267D01*
X72601033Y-26765000D01*
X72278967Y-26765000D01*
X71963088Y-26827832D01*
X71665537Y-26951082D01*
X71397748Y-27130013D01*
X71170013Y-27357748D01*
X70991082Y-27625537D01*
X70867832Y-27923088D01*
X70805000Y-28238967D01*
X64480381Y-28238967D01*
X64666031Y-28012752D01*
X64817852Y-27728715D01*
X64911343Y-27420516D01*
X64935000Y-27180322D01*
X64935000Y-25589267D01*
X71620338Y-25589267D01*
X71730510Y-25782596D01*
X71976806Y-25898095D01*
X72240903Y-25963324D01*
X72512651Y-25975778D01*
X72781607Y-25934977D01*
X72954006Y-25872651D01*
X80614222Y-25872651D01*
X80655023Y-26141607D01*
X80747510Y-26397435D01*
X80807404Y-26509490D01*
X81000733Y-26619662D01*
X81820395Y-25800000D01*
X82179605Y-25800000D01*
X82999267Y-26619662D01*
X83192596Y-26509490D01*
X83308095Y-26263194D01*
X83373324Y-25999097D01*
X83379118Y-25872651D01*
X88214222Y-25872651D01*
X88255023Y-26141607D01*
X88347510Y-26397435D01*
X88407404Y-26509490D01*
X88600733Y-26619662D01*
X89420395Y-25800000D01*
X89779605Y-25800000D01*
X90599267Y-26619662D01*
X90792596Y-26509490D01*
X90908095Y-26263194D01*
X90973324Y-25999097D01*
X90985778Y-25727349D01*
X90944977Y-25458393D01*
X90852490Y-25202565D01*
X90792596Y-25090510D01*
X90599267Y-24980338D01*
X89779605Y-25800000D01*
X89420395Y-25800000D01*
X88600733Y-24980338D01*
X88407404Y-25090510D01*
X88291905Y-25336806D01*
X88226676Y-25600903D01*
X88214222Y-25872651D01*
X83379118Y-25872651D01*
X83385778Y-25727349D01*
X83344977Y-25458393D01*
X83252490Y-25202565D01*
X83192596Y-25090510D01*
X82999267Y-24980338D01*
X82179605Y-25800000D01*
X81820395Y-25800000D01*
X81000733Y-24980338D01*
X80807404Y-25090510D01*
X80691905Y-25336806D01*
X80626676Y-25600903D01*
X80614222Y-25872651D01*
X72954006Y-25872651D01*
X73037435Y-25842490D01*
X73149490Y-25782596D01*
X73259662Y-25589267D01*
X72440000Y-24769605D01*
X71620338Y-25589267D01*
X64935000Y-25589267D01*
X64935000Y-24662651D01*
X71054222Y-24662651D01*
X71095023Y-24931607D01*
X71187510Y-25187435D01*
X71247404Y-25299490D01*
X71440733Y-25409662D01*
X72260395Y-24590000D01*
X72619605Y-24590000D01*
X73439267Y-25409662D01*
X73632596Y-25299490D01*
X73748095Y-25053194D01*
X73810450Y-24800733D01*
X81180338Y-24800733D01*
X82000000Y-25620395D01*
X82819662Y-24800733D01*
X88780338Y-24800733D01*
X89600000Y-25620395D01*
X90419662Y-24800733D01*
X90309490Y-24607404D01*
X90063194Y-24491905D01*
X89799097Y-24426676D01*
X89527349Y-24414222D01*
X89258393Y-24455023D01*
X89002565Y-24547510D01*
X88890510Y-24607404D01*
X88780338Y-24800733D01*
X82819662Y-24800733D01*
X82709490Y-24607404D01*
X82463194Y-24491905D01*
X82199097Y-24426676D01*
X81927349Y-24414222D01*
X81658393Y-24455023D01*
X81402565Y-24547510D01*
X81290510Y-24607404D01*
X81180338Y-24800733D01*
X73810450Y-24800733D01*
X73813324Y-24789097D01*
X73825778Y-24517349D01*
X73784977Y-24248393D01*
X73776520Y-24225000D01*
X83342157Y-24225000D01*
X83349513Y-24299689D01*
X83371299Y-24371508D01*
X83406678Y-24437696D01*
X83454289Y-24495711D01*
X83512304Y-24543322D01*
X83578492Y-24578701D01*
X83650311Y-24600487D01*
X83725000Y-24607843D01*
X84377750Y-24606000D01*
X84473000Y-24510750D01*
X84473000Y-23727000D01*
X84727000Y-23727000D01*
X84727000Y-24510750D01*
X84822250Y-24606000D01*
X85475000Y-24607843D01*
X85549689Y-24600487D01*
X85621508Y-24578701D01*
X85687696Y-24543322D01*
X85745711Y-24495711D01*
X85793322Y-24437696D01*
X85828701Y-24371508D01*
X85850487Y-24299689D01*
X85857843Y-24225000D01*
X85856000Y-23822250D01*
X85760750Y-23727000D01*
X84727000Y-23727000D01*
X84473000Y-23727000D01*
X83439250Y-23727000D01*
X83344000Y-23822250D01*
X83342157Y-24225000D01*
X73776520Y-24225000D01*
X73692490Y-23992565D01*
X73632596Y-23880510D01*
X73439267Y-23770338D01*
X72619605Y-24590000D01*
X72260395Y-24590000D01*
X71440733Y-23770338D01*
X71247404Y-23880510D01*
X71131905Y-24126806D01*
X71066676Y-24390903D01*
X71054222Y-24662651D01*
X64935000Y-24662651D01*
X64935000Y-23590733D01*
X71620338Y-23590733D01*
X72440000Y-24410395D01*
X73259662Y-23590733D01*
X73149490Y-23397404D01*
X72903194Y-23281905D01*
X72639097Y-23216676D01*
X72367349Y-23204222D01*
X72098393Y-23245023D01*
X71842565Y-23337510D01*
X71730510Y-23397404D01*
X71620338Y-23590733D01*
X64935000Y-23590733D01*
X64935000Y-22975000D01*
X83342157Y-22975000D01*
X83344000Y-23377750D01*
X83439250Y-23473000D01*
X84473000Y-23473000D01*
X84473000Y-22689250D01*
X84727000Y-22689250D01*
X84727000Y-23473000D01*
X85760750Y-23473000D01*
X85856000Y-23377750D01*
X85857843Y-22975000D01*
X85850487Y-22900311D01*
X85828701Y-22828492D01*
X85793322Y-22762304D01*
X85745711Y-22704289D01*
X85687696Y-22656678D01*
X85621508Y-22621299D01*
X85549689Y-22599513D01*
X85475000Y-22592157D01*
X84822250Y-22594000D01*
X84727000Y-22689250D01*
X84473000Y-22689250D01*
X84377750Y-22594000D01*
X83725000Y-22592157D01*
X83650311Y-22599513D01*
X83578492Y-22621299D01*
X83512304Y-22656678D01*
X83454289Y-22704289D01*
X83406678Y-22762304D01*
X83371299Y-22828492D01*
X83349513Y-22900311D01*
X83342157Y-22975000D01*
X64935000Y-22975000D01*
X64935000Y-20780000D01*
X70797089Y-20780000D01*
X70805000Y-20860322D01*
X70805000Y-20941033D01*
X70820746Y-21020193D01*
X70828657Y-21100516D01*
X70852086Y-21177751D01*
X70867832Y-21256912D01*
X70898719Y-21331479D01*
X70922148Y-21408715D01*
X70960196Y-21479898D01*
X70991082Y-21554463D01*
X71035921Y-21621569D01*
X71073969Y-21692752D01*
X71125174Y-21755146D01*
X71170013Y-21822252D01*
X71227080Y-21879319D01*
X71278286Y-21941714D01*
X71340681Y-21992920D01*
X71397748Y-22049987D01*
X71464854Y-22094826D01*
X71527248Y-22146031D01*
X71598431Y-22184079D01*
X71665537Y-22228918D01*
X71740102Y-22259804D01*
X71811285Y-22297852D01*
X71888521Y-22321281D01*
X71963088Y-22352168D01*
X72042249Y-22367914D01*
X72119484Y-22391343D01*
X72199807Y-22399254D01*
X72278967Y-22415000D01*
X75516623Y-22415000D01*
X75799999Y-22442911D01*
X76120516Y-22411342D01*
X76428714Y-22317851D01*
X76712752Y-22166030D01*
X76961713Y-21961713D01*
X77166030Y-21712752D01*
X77249999Y-21555656D01*
X77333969Y-21712752D01*
X77538286Y-21961714D01*
X77787248Y-22166031D01*
X78071285Y-22317852D01*
X78379484Y-22411343D01*
X78619678Y-22435000D01*
X80968808Y-22435000D01*
X81000000Y-22438072D01*
X83000000Y-22438072D01*
X83031192Y-22435000D01*
X89761033Y-22435000D01*
X89840193Y-22419254D01*
X89920516Y-22411343D01*
X89997751Y-22387914D01*
X90076912Y-22372168D01*
X90151479Y-22341281D01*
X90228715Y-22317852D01*
X90299898Y-22279804D01*
X90374463Y-22248918D01*
X90441569Y-22204079D01*
X90512752Y-22166031D01*
X90575146Y-22114826D01*
X90642252Y-22069987D01*
X90699319Y-22012920D01*
X90761714Y-21961714D01*
X90812920Y-21899319D01*
X90869987Y-21842252D01*
X90914826Y-21775146D01*
X90966031Y-21712752D01*
X91004079Y-21641569D01*
X91048918Y-21574463D01*
X91079804Y-21499898D01*
X91117852Y-21428715D01*
X91141281Y-21351479D01*
X91172168Y-21276912D01*
X91187914Y-21197751D01*
X91211343Y-21120516D01*
X91219254Y-21040193D01*
X91235000Y-20961033D01*
X91235000Y-20880322D01*
X91242911Y-20800000D01*
X91235000Y-20719678D01*
X91235000Y-20638967D01*
X91219254Y-20559807D01*
X91211343Y-20479484D01*
X91187914Y-20402249D01*
X91172168Y-20323088D01*
X91141281Y-20248521D01*
X91117852Y-20171285D01*
X91079804Y-20100102D01*
X91048918Y-20025537D01*
X91004079Y-19958431D01*
X90966031Y-19887248D01*
X90914826Y-19824854D01*
X90869987Y-19757748D01*
X90812920Y-19700681D01*
X90761714Y-19638286D01*
X90699319Y-19587080D01*
X90642252Y-19530013D01*
X90575146Y-19485174D01*
X90512752Y-19433969D01*
X90441569Y-19395921D01*
X90374463Y-19351082D01*
X90299898Y-19320196D01*
X90228715Y-19282148D01*
X90151479Y-19258719D01*
X90076912Y-19227832D01*
X89997751Y-19212086D01*
X89920516Y-19188657D01*
X89840193Y-19180746D01*
X89761033Y-19165000D01*
X83031192Y-19165000D01*
X83000000Y-19161928D01*
X81000000Y-19161928D01*
X80968808Y-19165000D01*
X78619678Y-19165000D01*
X78379484Y-19188657D01*
X78071285Y-19282148D01*
X77787248Y-19433969D01*
X77538286Y-19638286D01*
X77333969Y-19887248D01*
X77249999Y-20044344D01*
X77166030Y-19887248D01*
X77012915Y-19700677D01*
X76992925Y-19680687D01*
X76941714Y-19618286D01*
X76692752Y-19413969D01*
X76408715Y-19262148D01*
X76100516Y-19168657D01*
X75860322Y-19145000D01*
X75860319Y-19145000D01*
X75780000Y-19137089D01*
X75699681Y-19145000D01*
X72278967Y-19145000D01*
X72199807Y-19160746D01*
X72119484Y-19168657D01*
X72042249Y-19192086D01*
X71963088Y-19207832D01*
X71888521Y-19238719D01*
X71811285Y-19262148D01*
X71740102Y-19300196D01*
X71665537Y-19331082D01*
X71598431Y-19375921D01*
X71527248Y-19413969D01*
X71464854Y-19465174D01*
X71397748Y-19510013D01*
X71340681Y-19567080D01*
X71278286Y-19618286D01*
X71227080Y-19680681D01*
X71170013Y-19737748D01*
X71125174Y-19804854D01*
X71073969Y-19867248D01*
X71035921Y-19938431D01*
X70991082Y-20005537D01*
X70960196Y-20080102D01*
X70922148Y-20151285D01*
X70898719Y-20228521D01*
X70867832Y-20303088D01*
X70852086Y-20382249D01*
X70828657Y-20459484D01*
X70820746Y-20539807D01*
X70805000Y-20618967D01*
X70805000Y-20699678D01*
X70797089Y-20780000D01*
X64935000Y-20780000D01*
X64935000Y-17419678D01*
X64911343Y-17179484D01*
X64817852Y-16871285D01*
X64666031Y-16587248D01*
X64461714Y-16338286D01*
X64212752Y-16133969D01*
X63928715Y-15982148D01*
X63620516Y-15888657D01*
X63300000Y-15857089D01*
X62979485Y-15888657D01*
X62671286Y-15982148D01*
X62387249Y-16133969D01*
X62138287Y-16338286D01*
X61933970Y-16587248D01*
X61900001Y-16650800D01*
X61866031Y-16587248D01*
X61661714Y-16338286D01*
X61412752Y-16133969D01*
X61128715Y-15982148D01*
X60820516Y-15888657D01*
X60500000Y-15857089D01*
X60179485Y-15888657D01*
X59871286Y-15982148D01*
X59587249Y-16133969D01*
X59338287Y-16338286D01*
X59133970Y-16587248D01*
X58982149Y-16871285D01*
X58888658Y-17179484D01*
X58865001Y-17419678D01*
X58865001Y-17763390D01*
X58783835Y-17664489D01*
X58783833Y-17664487D01*
X58716977Y-17583023D01*
X58635513Y-17516167D01*
X56983837Y-15864492D01*
X56916977Y-15783023D01*
X56767073Y-15660000D01*
X93340001Y-15660000D01*
X93340000Y-40340000D01*
X15660000Y-40340000D01*
X15660000Y-37338967D01*
X42365000Y-37338967D01*
X42365000Y-37661033D01*
X42427832Y-37976912D01*
X42551082Y-38274463D01*
X42730013Y-38542252D01*
X42957748Y-38769987D01*
X43225537Y-38948918D01*
X43523088Y-39072168D01*
X43838967Y-39135000D01*
X44161033Y-39135000D01*
X44476912Y-39072168D01*
X44774463Y-38948918D01*
X45042252Y-38769987D01*
X45269987Y-38542252D01*
X45298708Y-38499267D01*
X48180338Y-38499267D01*
X48290510Y-38692596D01*
X48536806Y-38808095D01*
X48800903Y-38873324D01*
X49072651Y-38885778D01*
X49341607Y-38844977D01*
X49597435Y-38752490D01*
X49709490Y-38692596D01*
X49819662Y-38499267D01*
X49000000Y-37679605D01*
X48180338Y-38499267D01*
X45298708Y-38499267D01*
X45448918Y-38274463D01*
X45572168Y-37976912D01*
X45635000Y-37661033D01*
X45635000Y-37572651D01*
X47614222Y-37572651D01*
X47655023Y-37841607D01*
X47747510Y-38097435D01*
X47807404Y-38209490D01*
X48000733Y-38319662D01*
X48820395Y-37500000D01*
X49179605Y-37500000D01*
X49999267Y-38319662D01*
X50192596Y-38209490D01*
X50197390Y-38199267D01*
X81180338Y-38199267D01*
X81290510Y-38392596D01*
X81536806Y-38508095D01*
X81800903Y-38573324D01*
X82072651Y-38585778D01*
X82341607Y-38544977D01*
X82597435Y-38452490D01*
X82709490Y-38392596D01*
X82819662Y-38199267D01*
X88680338Y-38199267D01*
X88790510Y-38392596D01*
X89036806Y-38508095D01*
X89300903Y-38573324D01*
X89572651Y-38585778D01*
X89841607Y-38544977D01*
X90097435Y-38452490D01*
X90209490Y-38392596D01*
X90319662Y-38199267D01*
X89500000Y-37379605D01*
X88680338Y-38199267D01*
X82819662Y-38199267D01*
X82000000Y-37379605D01*
X81180338Y-38199267D01*
X50197390Y-38199267D01*
X50308095Y-37963194D01*
X50373324Y-37699097D01*
X50385778Y-37427349D01*
X50344977Y-37158393D01*
X50294681Y-37019267D01*
X56380338Y-37019267D01*
X56490510Y-37212596D01*
X56736806Y-37328095D01*
X57000903Y-37393324D01*
X57272651Y-37405778D01*
X57541607Y-37364977D01*
X57797435Y-37272490D01*
X57909490Y-37212596D01*
X58019662Y-37019267D01*
X71620338Y-37019267D01*
X71730510Y-37212596D01*
X71976806Y-37328095D01*
X72240903Y-37393324D01*
X72512651Y-37405778D01*
X72781607Y-37364977D01*
X73036989Y-37272651D01*
X80614222Y-37272651D01*
X80655023Y-37541607D01*
X80747510Y-37797435D01*
X80807404Y-37909490D01*
X81000733Y-38019662D01*
X81820395Y-37200000D01*
X82179605Y-37200000D01*
X82999267Y-38019662D01*
X83192596Y-37909490D01*
X83308095Y-37663194D01*
X83373324Y-37399097D01*
X83379118Y-37272651D01*
X88114222Y-37272651D01*
X88155023Y-37541607D01*
X88247510Y-37797435D01*
X88307404Y-37909490D01*
X88500733Y-38019662D01*
X89320395Y-37200000D01*
X89679605Y-37200000D01*
X90499267Y-38019662D01*
X90692596Y-37909490D01*
X90808095Y-37663194D01*
X90873324Y-37399097D01*
X90885778Y-37127349D01*
X90844977Y-36858393D01*
X90752490Y-36602565D01*
X90692596Y-36490510D01*
X90499267Y-36380338D01*
X89679605Y-37200000D01*
X89320395Y-37200000D01*
X88500733Y-36380338D01*
X88307404Y-36490510D01*
X88191905Y-36736806D01*
X88126676Y-37000903D01*
X88114222Y-37272651D01*
X83379118Y-37272651D01*
X83385778Y-37127349D01*
X83344977Y-36858393D01*
X83252490Y-36602565D01*
X83192596Y-36490510D01*
X82999267Y-36380338D01*
X82179605Y-37200000D01*
X81820395Y-37200000D01*
X81000733Y-36380338D01*
X80807404Y-36490510D01*
X80691905Y-36736806D01*
X80626676Y-37000903D01*
X80614222Y-37272651D01*
X73036989Y-37272651D01*
X73037435Y-37272490D01*
X73149490Y-37212596D01*
X73259662Y-37019267D01*
X72440000Y-36199605D01*
X71620338Y-37019267D01*
X58019662Y-37019267D01*
X57200000Y-36199605D01*
X56380338Y-37019267D01*
X50294681Y-37019267D01*
X50252490Y-36902565D01*
X50192596Y-36790510D01*
X49999267Y-36680338D01*
X49179605Y-37500000D01*
X48820395Y-37500000D01*
X48000733Y-36680338D01*
X47807404Y-36790510D01*
X47691905Y-37036806D01*
X47626676Y-37300903D01*
X47614222Y-37572651D01*
X45635000Y-37572651D01*
X45635000Y-37338967D01*
X45572168Y-37023088D01*
X45448918Y-36725537D01*
X45298709Y-36500733D01*
X48180338Y-36500733D01*
X49000000Y-37320395D01*
X49819662Y-36500733D01*
X49709490Y-36307404D01*
X49463194Y-36191905D01*
X49199097Y-36126676D01*
X48927349Y-36114222D01*
X48658393Y-36155023D01*
X48402565Y-36247510D01*
X48290510Y-36307404D01*
X48180338Y-36500733D01*
X45298709Y-36500733D01*
X45269987Y-36457748D01*
X45042252Y-36230013D01*
X44836676Y-36092651D01*
X55814222Y-36092651D01*
X55855023Y-36361607D01*
X55947510Y-36617435D01*
X56007404Y-36729490D01*
X56200733Y-36839662D01*
X57020395Y-36020000D01*
X57379605Y-36020000D01*
X58199267Y-36839662D01*
X58392596Y-36729490D01*
X58508095Y-36483194D01*
X58573324Y-36219097D01*
X58579118Y-36092651D01*
X71054222Y-36092651D01*
X71095023Y-36361607D01*
X71187510Y-36617435D01*
X71247404Y-36729490D01*
X71440733Y-36839662D01*
X72260395Y-36020000D01*
X72619605Y-36020000D01*
X73439267Y-36839662D01*
X73632596Y-36729490D01*
X73748095Y-36483194D01*
X73813324Y-36219097D01*
X73814165Y-36200733D01*
X81180338Y-36200733D01*
X82000000Y-37020395D01*
X82819662Y-36200733D01*
X88680338Y-36200733D01*
X89500000Y-37020395D01*
X90319662Y-36200733D01*
X90209490Y-36007404D01*
X89963194Y-35891905D01*
X89699097Y-35826676D01*
X89427349Y-35814222D01*
X89158393Y-35855023D01*
X88902565Y-35947510D01*
X88790510Y-36007404D01*
X88680338Y-36200733D01*
X82819662Y-36200733D01*
X82709490Y-36007404D01*
X82463194Y-35891905D01*
X82199097Y-35826676D01*
X81927349Y-35814222D01*
X81658393Y-35855023D01*
X81402565Y-35947510D01*
X81290510Y-36007404D01*
X81180338Y-36200733D01*
X73814165Y-36200733D01*
X73825778Y-35947349D01*
X73784977Y-35678393D01*
X73765675Y-35625000D01*
X83242157Y-35625000D01*
X83249513Y-35699689D01*
X83271299Y-35771508D01*
X83306678Y-35837696D01*
X83354289Y-35895711D01*
X83412304Y-35943322D01*
X83478492Y-35978701D01*
X83550311Y-36000487D01*
X83625000Y-36007843D01*
X84277750Y-36006000D01*
X84373000Y-35910750D01*
X84373000Y-35127000D01*
X84627000Y-35127000D01*
X84627000Y-35910750D01*
X84722250Y-36006000D01*
X85375000Y-36007843D01*
X85449689Y-36000487D01*
X85521508Y-35978701D01*
X85587696Y-35943322D01*
X85645711Y-35895711D01*
X85693322Y-35837696D01*
X85728701Y-35771508D01*
X85750487Y-35699689D01*
X85757843Y-35625000D01*
X85756000Y-35222250D01*
X85660750Y-35127000D01*
X84627000Y-35127000D01*
X84373000Y-35127000D01*
X83339250Y-35127000D01*
X83244000Y-35222250D01*
X83242157Y-35625000D01*
X73765675Y-35625000D01*
X73692490Y-35422565D01*
X73632596Y-35310510D01*
X73439267Y-35200338D01*
X72619605Y-36020000D01*
X72260395Y-36020000D01*
X71440733Y-35200338D01*
X71247404Y-35310510D01*
X71131905Y-35556806D01*
X71066676Y-35820903D01*
X71054222Y-36092651D01*
X58579118Y-36092651D01*
X58585778Y-35947349D01*
X58544977Y-35678393D01*
X58452490Y-35422565D01*
X58392596Y-35310510D01*
X58199267Y-35200338D01*
X57379605Y-36020000D01*
X57020395Y-36020000D01*
X56200733Y-35200338D01*
X56007404Y-35310510D01*
X55891905Y-35556806D01*
X55826676Y-35820903D01*
X55814222Y-36092651D01*
X44836676Y-36092651D01*
X44774463Y-36051082D01*
X44476912Y-35927832D01*
X44161033Y-35865000D01*
X43838967Y-35865000D01*
X43523088Y-35927832D01*
X43225537Y-36051082D01*
X42957748Y-36230013D01*
X42730013Y-36457748D01*
X42551082Y-36725537D01*
X42427832Y-37023088D01*
X42365000Y-37338967D01*
X15660000Y-37338967D01*
X15660000Y-32300000D01*
X18161928Y-32300000D01*
X18161928Y-34300000D01*
X18174188Y-34424482D01*
X18210498Y-34544180D01*
X18269463Y-34654494D01*
X18348815Y-34751185D01*
X18445506Y-34830537D01*
X18555820Y-34889502D01*
X18675518Y-34925812D01*
X18800000Y-34938072D01*
X20800000Y-34938072D01*
X20924482Y-34925812D01*
X21044180Y-34889502D01*
X21154494Y-34830537D01*
X21251185Y-34751185D01*
X21330537Y-34654494D01*
X21389502Y-34544180D01*
X21425812Y-34424482D01*
X21438072Y-34300000D01*
X21438072Y-34299267D01*
X23980338Y-34299267D01*
X24090510Y-34492596D01*
X24336806Y-34608095D01*
X24600903Y-34673324D01*
X24872651Y-34685778D01*
X25141607Y-34644977D01*
X25397435Y-34552490D01*
X25509490Y-34492596D01*
X25619662Y-34299267D01*
X24800000Y-33479605D01*
X23980338Y-34299267D01*
X21438072Y-34299267D01*
X21438072Y-33372651D01*
X23414222Y-33372651D01*
X23455023Y-33641607D01*
X23547510Y-33897435D01*
X23607404Y-34009490D01*
X23800733Y-34119662D01*
X24620395Y-33300000D01*
X24979605Y-33300000D01*
X25799267Y-34119662D01*
X25992596Y-34009490D01*
X26108095Y-33763194D01*
X26173324Y-33499097D01*
X26185778Y-33227349D01*
X26144977Y-32958393D01*
X26052490Y-32702565D01*
X25992596Y-32590510D01*
X25799267Y-32480338D01*
X24979605Y-33300000D01*
X24620395Y-33300000D01*
X23800733Y-32480338D01*
X23607404Y-32590510D01*
X23491905Y-32836806D01*
X23426676Y-33100903D01*
X23414222Y-33372651D01*
X21438072Y-33372651D01*
X21438072Y-32300733D01*
X23980338Y-32300733D01*
X24800000Y-33120395D01*
X25619662Y-32300733D01*
X25509490Y-32107404D01*
X25263194Y-31991905D01*
X24999097Y-31926676D01*
X24727349Y-31914222D01*
X24458393Y-31955023D01*
X24202565Y-32047510D01*
X24090510Y-32107404D01*
X23980338Y-32300733D01*
X21438072Y-32300733D01*
X21438072Y-32300000D01*
X21425812Y-32175518D01*
X21389502Y-32055820D01*
X21330537Y-31945506D01*
X21251185Y-31848815D01*
X21154494Y-31769463D01*
X21044180Y-31710498D01*
X20924482Y-31674188D01*
X20800000Y-31661928D01*
X18800000Y-31661928D01*
X18675518Y-31674188D01*
X18555820Y-31710498D01*
X18445506Y-31769463D01*
X18348815Y-31848815D01*
X18269463Y-31945506D01*
X18210498Y-32055820D01*
X18174188Y-32175518D01*
X18161928Y-32300000D01*
X15660000Y-32300000D01*
X15660000Y-31198967D01*
X28765000Y-31198967D01*
X28765000Y-31521033D01*
X28827832Y-31836912D01*
X28951082Y-32134463D01*
X29130013Y-32402252D01*
X29357748Y-32629987D01*
X29357767Y-32630000D01*
X29357748Y-32630013D01*
X29130013Y-32857748D01*
X28951082Y-33125537D01*
X28827832Y-33423088D01*
X28765000Y-33738967D01*
X28765000Y-34061033D01*
X28827832Y-34376912D01*
X28951082Y-34674463D01*
X29130013Y-34942252D01*
X29357748Y-35169987D01*
X29625537Y-35348918D01*
X29923088Y-35472168D01*
X30238967Y-35535000D01*
X30561033Y-35535000D01*
X30876912Y-35472168D01*
X31174463Y-35348918D01*
X31442252Y-35169987D01*
X31577239Y-35035000D01*
X36877379Y-35035000D01*
X36910498Y-35144180D01*
X36969463Y-35254494D01*
X37048815Y-35351185D01*
X37145506Y-35430537D01*
X37255820Y-35489502D01*
X37375518Y-35525812D01*
X37500000Y-35538072D01*
X39500000Y-35538072D01*
X39531192Y-35535000D01*
X41080322Y-35535000D01*
X41320516Y-35511343D01*
X41628715Y-35417852D01*
X41912752Y-35266031D01*
X42161714Y-35061714D01*
X42195346Y-35020733D01*
X56380338Y-35020733D01*
X57200000Y-35840395D01*
X58019662Y-35020733D01*
X71620338Y-35020733D01*
X72440000Y-35840395D01*
X73259662Y-35020733D01*
X73149490Y-34827404D01*
X72903194Y-34711905D01*
X72639097Y-34646676D01*
X72367349Y-34634222D01*
X72098393Y-34675023D01*
X71842565Y-34767510D01*
X71730510Y-34827404D01*
X71620338Y-35020733D01*
X58019662Y-35020733D01*
X57909490Y-34827404D01*
X57663194Y-34711905D01*
X57399097Y-34646676D01*
X57127349Y-34634222D01*
X56858393Y-34675023D01*
X56602565Y-34767510D01*
X56490510Y-34827404D01*
X56380338Y-35020733D01*
X42195346Y-35020733D01*
X42366031Y-34812752D01*
X42517852Y-34528715D01*
X42564480Y-34375000D01*
X83242157Y-34375000D01*
X83244000Y-34777750D01*
X83339250Y-34873000D01*
X84373000Y-34873000D01*
X84373000Y-34089250D01*
X84627000Y-34089250D01*
X84627000Y-34873000D01*
X85660750Y-34873000D01*
X85756000Y-34777750D01*
X85757843Y-34375000D01*
X85750487Y-34300311D01*
X85728701Y-34228492D01*
X85693322Y-34162304D01*
X85645711Y-34104289D01*
X85587696Y-34056678D01*
X85521508Y-34021299D01*
X85449689Y-33999513D01*
X85375000Y-33992157D01*
X84722250Y-33994000D01*
X84627000Y-34089250D01*
X84373000Y-34089250D01*
X84277750Y-33994000D01*
X83625000Y-33992157D01*
X83550311Y-33999513D01*
X83478492Y-34021299D01*
X83412304Y-34056678D01*
X83354289Y-34104289D01*
X83306678Y-34162304D01*
X83271299Y-34228492D01*
X83249513Y-34300311D01*
X83242157Y-34375000D01*
X42564480Y-34375000D01*
X42611343Y-34220516D01*
X42642911Y-33900000D01*
X42611343Y-33579484D01*
X42517852Y-33271285D01*
X42439662Y-33125000D01*
X46142157Y-33125000D01*
X46149513Y-33199689D01*
X46171299Y-33271508D01*
X46206678Y-33337696D01*
X46254289Y-33395711D01*
X46312304Y-33443322D01*
X46378492Y-33478701D01*
X46450311Y-33500487D01*
X46525000Y-33507843D01*
X47177750Y-33506000D01*
X47273000Y-33410750D01*
X47273000Y-32627000D01*
X47527000Y-32627000D01*
X47527000Y-33410750D01*
X47622250Y-33506000D01*
X48275000Y-33507843D01*
X48349689Y-33500487D01*
X48421508Y-33478701D01*
X48487696Y-33443322D01*
X48545711Y-33395711D01*
X48593322Y-33337696D01*
X48628701Y-33271508D01*
X48650487Y-33199689D01*
X48657843Y-33125000D01*
X48656000Y-32722250D01*
X48560750Y-32627000D01*
X47527000Y-32627000D01*
X47273000Y-32627000D01*
X46239250Y-32627000D01*
X46144000Y-32722250D01*
X46142157Y-33125000D01*
X42439662Y-33125000D01*
X42366031Y-32987248D01*
X42161714Y-32738286D01*
X41912752Y-32533969D01*
X41628715Y-32382148D01*
X41320516Y-32288657D01*
X41080322Y-32265000D01*
X39531192Y-32265000D01*
X39500000Y-32261928D01*
X37500000Y-32261928D01*
X37375518Y-32274188D01*
X37255820Y-32310498D01*
X37145506Y-32369463D01*
X37048815Y-32448815D01*
X36969463Y-32545506D01*
X36910498Y-32655820D01*
X36877379Y-32765000D01*
X31577239Y-32765000D01*
X31442252Y-32630013D01*
X31442233Y-32630000D01*
X31442252Y-32629987D01*
X31577239Y-32495000D01*
X31940724Y-32495000D01*
X32035150Y-32545472D01*
X32201746Y-32596008D01*
X32375000Y-32613072D01*
X33625000Y-32613072D01*
X33798254Y-32596008D01*
X33964850Y-32545472D01*
X34118386Y-32463405D01*
X34252962Y-32352962D01*
X34363405Y-32218386D01*
X34445472Y-32064850D01*
X34496008Y-31898254D01*
X34513072Y-31725000D01*
X39742157Y-31725000D01*
X39749513Y-31799689D01*
X39771299Y-31871508D01*
X39806678Y-31937696D01*
X39854289Y-31995711D01*
X39912304Y-32043322D01*
X39978492Y-32078701D01*
X40050311Y-32100487D01*
X40125000Y-32107843D01*
X40777750Y-32106000D01*
X40873000Y-32010750D01*
X40873000Y-31227000D01*
X41127000Y-31227000D01*
X41127000Y-32010750D01*
X41222250Y-32106000D01*
X41875000Y-32107843D01*
X41949689Y-32100487D01*
X42021508Y-32078701D01*
X42087696Y-32043322D01*
X42145711Y-31995711D01*
X42193322Y-31937696D01*
X42226834Y-31875000D01*
X46142157Y-31875000D01*
X46144000Y-32277750D01*
X46239250Y-32373000D01*
X47273000Y-32373000D01*
X47273000Y-31589250D01*
X47527000Y-31589250D01*
X47527000Y-32373000D01*
X48560750Y-32373000D01*
X48656000Y-32277750D01*
X48657046Y-32048967D01*
X55565000Y-32048967D01*
X55565000Y-32371033D01*
X55627832Y-32686912D01*
X55751082Y-32984463D01*
X55930013Y-33252252D01*
X56157748Y-33479987D01*
X56425537Y-33658918D01*
X56723088Y-33782168D01*
X57038967Y-33845000D01*
X57361033Y-33845000D01*
X57676912Y-33782168D01*
X57974463Y-33658918D01*
X58242252Y-33479987D01*
X58469987Y-33252252D01*
X58648918Y-32984463D01*
X58772168Y-32686912D01*
X58835000Y-32371033D01*
X58835000Y-32210000D01*
X70797089Y-32210000D01*
X70805000Y-32290322D01*
X70805000Y-32371033D01*
X70820746Y-32450193D01*
X70828657Y-32530516D01*
X70852086Y-32607751D01*
X70867832Y-32686912D01*
X70898719Y-32761479D01*
X70922148Y-32838715D01*
X70960196Y-32909898D01*
X70991082Y-32984463D01*
X71035921Y-33051569D01*
X71073969Y-33122752D01*
X71125174Y-33185146D01*
X71170013Y-33252252D01*
X71227080Y-33309319D01*
X71278286Y-33371714D01*
X71340681Y-33422920D01*
X71397748Y-33479987D01*
X71464854Y-33524826D01*
X71527248Y-33576031D01*
X71598431Y-33614079D01*
X71665537Y-33658918D01*
X71740102Y-33689804D01*
X71811285Y-33727852D01*
X71888521Y-33751281D01*
X71963088Y-33782168D01*
X72042249Y-33797914D01*
X72119484Y-33821343D01*
X72199807Y-33829254D01*
X72278967Y-33845000D01*
X75709681Y-33845000D01*
X75790000Y-33852911D01*
X75870319Y-33845000D01*
X75870322Y-33845000D01*
X76110516Y-33821343D01*
X76418715Y-33727852D01*
X76702752Y-33576031D01*
X76951714Y-33371714D01*
X77002925Y-33309313D01*
X77012915Y-33299323D01*
X77166030Y-33112752D01*
X77249999Y-32955656D01*
X77333969Y-33112752D01*
X77538286Y-33361714D01*
X77787248Y-33566031D01*
X78071285Y-33717852D01*
X78379484Y-33811343D01*
X78619678Y-33835000D01*
X80968808Y-33835000D01*
X81000000Y-33838072D01*
X83000000Y-33838072D01*
X83031192Y-33835000D01*
X89661033Y-33835000D01*
X89740193Y-33819254D01*
X89820516Y-33811343D01*
X89897751Y-33787914D01*
X89976912Y-33772168D01*
X90051479Y-33741281D01*
X90128715Y-33717852D01*
X90199898Y-33679804D01*
X90274463Y-33648918D01*
X90341569Y-33604079D01*
X90412752Y-33566031D01*
X90475146Y-33514826D01*
X90542252Y-33469987D01*
X90599319Y-33412920D01*
X90661714Y-33361714D01*
X90712920Y-33299319D01*
X90769987Y-33242252D01*
X90814826Y-33175146D01*
X90866031Y-33112752D01*
X90904079Y-33041569D01*
X90948918Y-32974463D01*
X90979804Y-32899898D01*
X91017852Y-32828715D01*
X91041281Y-32751479D01*
X91072168Y-32676912D01*
X91087914Y-32597751D01*
X91111343Y-32520516D01*
X91119254Y-32440193D01*
X91135000Y-32361033D01*
X91135000Y-32280322D01*
X91142911Y-32200000D01*
X91135000Y-32119678D01*
X91135000Y-32038967D01*
X91119254Y-31959807D01*
X91111343Y-31879484D01*
X91087914Y-31802249D01*
X91072168Y-31723088D01*
X91041281Y-31648521D01*
X91017852Y-31571285D01*
X90979804Y-31500102D01*
X90948918Y-31425537D01*
X90904079Y-31358431D01*
X90866031Y-31287248D01*
X90814826Y-31224854D01*
X90769987Y-31157748D01*
X90712920Y-31100681D01*
X90661714Y-31038286D01*
X90599319Y-30987080D01*
X90542252Y-30930013D01*
X90475146Y-30885174D01*
X90412752Y-30833969D01*
X90341569Y-30795921D01*
X90274463Y-30751082D01*
X90199898Y-30720196D01*
X90128715Y-30682148D01*
X90051479Y-30658719D01*
X89976912Y-30627832D01*
X89897751Y-30612086D01*
X89820516Y-30588657D01*
X89740193Y-30580746D01*
X89661033Y-30565000D01*
X83031192Y-30565000D01*
X83000000Y-30561928D01*
X81000000Y-30561928D01*
X80968808Y-30565000D01*
X78619678Y-30565000D01*
X78379484Y-30588657D01*
X78071285Y-30682148D01*
X77787248Y-30833969D01*
X77538286Y-31038286D01*
X77333969Y-31287248D01*
X77249999Y-31444344D01*
X77166030Y-31287248D01*
X76961713Y-31038287D01*
X76712752Y-30833970D01*
X76428714Y-30682149D01*
X76120516Y-30588658D01*
X75799999Y-30557089D01*
X75618151Y-30575000D01*
X72278967Y-30575000D01*
X72199807Y-30590746D01*
X72119484Y-30598657D01*
X72042249Y-30622086D01*
X71963088Y-30637832D01*
X71888521Y-30668719D01*
X71811285Y-30692148D01*
X71740102Y-30730196D01*
X71665537Y-30761082D01*
X71598431Y-30805921D01*
X71527248Y-30843969D01*
X71464854Y-30895174D01*
X71397748Y-30940013D01*
X71340681Y-30997080D01*
X71278286Y-31048286D01*
X71227080Y-31110681D01*
X71170013Y-31167748D01*
X71125174Y-31234854D01*
X71073969Y-31297248D01*
X71035921Y-31368431D01*
X70991082Y-31435537D01*
X70960196Y-31510102D01*
X70922148Y-31581285D01*
X70898719Y-31658521D01*
X70867832Y-31733088D01*
X70852086Y-31812249D01*
X70828657Y-31889484D01*
X70820746Y-31969807D01*
X70805000Y-32048967D01*
X70805000Y-32129678D01*
X70797089Y-32210000D01*
X58835000Y-32210000D01*
X58835000Y-32048967D01*
X58772168Y-31733088D01*
X58648918Y-31435537D01*
X58469987Y-31167748D01*
X58242252Y-30940013D01*
X57974463Y-30761082D01*
X57676912Y-30637832D01*
X57361033Y-30575000D01*
X57038967Y-30575000D01*
X56723088Y-30637832D01*
X56425537Y-30761082D01*
X56157748Y-30940013D01*
X55930013Y-31167748D01*
X55751082Y-31435537D01*
X55627832Y-31733088D01*
X55565000Y-32048967D01*
X48657046Y-32048967D01*
X48657843Y-31875000D01*
X48650487Y-31800311D01*
X48628701Y-31728492D01*
X48593322Y-31662304D01*
X48545711Y-31604289D01*
X48487696Y-31556678D01*
X48421508Y-31521299D01*
X48349689Y-31499513D01*
X48275000Y-31492157D01*
X47622250Y-31494000D01*
X47527000Y-31589250D01*
X47273000Y-31589250D01*
X47177750Y-31494000D01*
X46525000Y-31492157D01*
X46450311Y-31499513D01*
X46378492Y-31521299D01*
X46312304Y-31556678D01*
X46254289Y-31604289D01*
X46206678Y-31662304D01*
X46171299Y-31728492D01*
X46149513Y-31800311D01*
X46142157Y-31875000D01*
X42226834Y-31875000D01*
X42228701Y-31871508D01*
X42250487Y-31799689D01*
X42257843Y-31725000D01*
X42256000Y-31322250D01*
X42160750Y-31227000D01*
X41127000Y-31227000D01*
X40873000Y-31227000D01*
X39839250Y-31227000D01*
X39744000Y-31322250D01*
X39742157Y-31725000D01*
X34513072Y-31725000D01*
X34513072Y-30975000D01*
X34496008Y-30801746D01*
X34445472Y-30635150D01*
X34363405Y-30481614D01*
X34357978Y-30475000D01*
X39742157Y-30475000D01*
X39744000Y-30877750D01*
X39839250Y-30973000D01*
X40873000Y-30973000D01*
X40873000Y-30189250D01*
X41127000Y-30189250D01*
X41127000Y-30973000D01*
X42160750Y-30973000D01*
X42256000Y-30877750D01*
X42257843Y-30475000D01*
X42250487Y-30400311D01*
X42228701Y-30328492D01*
X42193322Y-30262304D01*
X42145711Y-30204289D01*
X42087696Y-30156678D01*
X42021508Y-30121299D01*
X41949689Y-30099513D01*
X41875000Y-30092157D01*
X41222250Y-30094000D01*
X41127000Y-30189250D01*
X40873000Y-30189250D01*
X40777750Y-30094000D01*
X40125000Y-30092157D01*
X40050311Y-30099513D01*
X39978492Y-30121299D01*
X39912304Y-30156678D01*
X39854289Y-30204289D01*
X39806678Y-30262304D01*
X39771299Y-30328492D01*
X39749513Y-30400311D01*
X39742157Y-30475000D01*
X34357978Y-30475000D01*
X34252962Y-30347038D01*
X34118386Y-30236595D01*
X33964850Y-30154528D01*
X33798254Y-30103992D01*
X33625000Y-30086928D01*
X32375000Y-30086928D01*
X32201746Y-30103992D01*
X32035150Y-30154528D01*
X31903307Y-30225000D01*
X31577239Y-30225000D01*
X31442252Y-30090013D01*
X31174463Y-29911082D01*
X31168700Y-29908695D01*
X31174072Y-29899267D01*
X37680338Y-29899267D01*
X37790510Y-30092596D01*
X38036806Y-30208095D01*
X38300903Y-30273324D01*
X38572651Y-30285778D01*
X38841607Y-30244977D01*
X39097435Y-30152490D01*
X39209490Y-30092596D01*
X39319662Y-29899267D01*
X38500000Y-29079605D01*
X37680338Y-29899267D01*
X31174072Y-29899267D01*
X31219662Y-29819267D01*
X30400000Y-28999605D01*
X29580338Y-29819267D01*
X29631300Y-29908695D01*
X29625537Y-29911082D01*
X29357748Y-30090013D01*
X29130013Y-30317748D01*
X28951082Y-30585537D01*
X28827832Y-30883088D01*
X28765000Y-31198967D01*
X15660000Y-31198967D01*
X15660000Y-28892651D01*
X29014222Y-28892651D01*
X29055023Y-29161607D01*
X29147510Y-29417435D01*
X29207404Y-29529490D01*
X29400733Y-29639662D01*
X30220395Y-28820000D01*
X30579605Y-28820000D01*
X31399267Y-29639662D01*
X31592596Y-29529490D01*
X31708095Y-29283194D01*
X31742296Y-29144724D01*
X31742157Y-29175000D01*
X31749513Y-29249689D01*
X31771299Y-29321508D01*
X31806678Y-29387696D01*
X31854289Y-29445711D01*
X31912304Y-29493322D01*
X31978492Y-29528701D01*
X32050311Y-29550487D01*
X32125000Y-29557843D01*
X32777750Y-29556000D01*
X32873000Y-29460750D01*
X32873000Y-28677000D01*
X33127000Y-28677000D01*
X33127000Y-29460750D01*
X33222250Y-29556000D01*
X33875000Y-29557843D01*
X33949689Y-29550487D01*
X34021508Y-29528701D01*
X34087696Y-29493322D01*
X34145711Y-29445711D01*
X34193322Y-29387696D01*
X34228701Y-29321508D01*
X34250487Y-29249689D01*
X34257843Y-29175000D01*
X34256918Y-28972651D01*
X37114222Y-28972651D01*
X37155023Y-29241607D01*
X37247510Y-29497435D01*
X37307404Y-29609490D01*
X37500733Y-29719662D01*
X38320395Y-28900000D01*
X38679605Y-28900000D01*
X39499267Y-29719662D01*
X39692596Y-29609490D01*
X39808095Y-29363194D01*
X39873324Y-29099097D01*
X39885778Y-28827349D01*
X39844977Y-28558393D01*
X39752490Y-28302565D01*
X39692596Y-28190510D01*
X39499267Y-28080338D01*
X38679605Y-28900000D01*
X38320395Y-28900000D01*
X37500733Y-28080338D01*
X37307404Y-28190510D01*
X37191905Y-28436806D01*
X37126676Y-28700903D01*
X37114222Y-28972651D01*
X34256918Y-28972651D01*
X34256000Y-28772250D01*
X34160750Y-28677000D01*
X33127000Y-28677000D01*
X32873000Y-28677000D01*
X32853000Y-28677000D01*
X32853000Y-28423000D01*
X32873000Y-28423000D01*
X32873000Y-27639250D01*
X33127000Y-27639250D01*
X33127000Y-28423000D01*
X34160750Y-28423000D01*
X34256000Y-28327750D01*
X34257843Y-27925000D01*
X34255453Y-27900733D01*
X37680338Y-27900733D01*
X38500000Y-28720395D01*
X39319662Y-27900733D01*
X39209490Y-27707404D01*
X38963194Y-27591905D01*
X38699097Y-27526676D01*
X38427349Y-27514222D01*
X38158393Y-27555023D01*
X37902565Y-27647510D01*
X37790510Y-27707404D01*
X37680338Y-27900733D01*
X34255453Y-27900733D01*
X34250487Y-27850311D01*
X34228701Y-27778492D01*
X34193322Y-27712304D01*
X34145711Y-27654289D01*
X34087696Y-27606678D01*
X34021508Y-27571299D01*
X33949689Y-27549513D01*
X33875000Y-27542157D01*
X33222250Y-27544000D01*
X33127000Y-27639250D01*
X32873000Y-27639250D01*
X32777750Y-27544000D01*
X32125000Y-27542157D01*
X32050311Y-27549513D01*
X31978492Y-27571299D01*
X31912304Y-27606678D01*
X31854289Y-27654289D01*
X31806678Y-27712304D01*
X31771299Y-27778492D01*
X31749513Y-27850311D01*
X31742157Y-27925000D01*
X31744000Y-28327750D01*
X31839248Y-28422998D01*
X31744000Y-28422998D01*
X31744000Y-28475691D01*
X31652490Y-28222565D01*
X31592596Y-28110510D01*
X31399267Y-28000338D01*
X30579605Y-28820000D01*
X30220395Y-28820000D01*
X29400733Y-28000338D01*
X29207404Y-28110510D01*
X29091905Y-28356806D01*
X29026676Y-28620903D01*
X29014222Y-28892651D01*
X15660000Y-28892651D01*
X15660000Y-27820733D01*
X29580338Y-27820733D01*
X30400000Y-28640395D01*
X31219662Y-27820733D01*
X31109490Y-27627404D01*
X30863194Y-27511905D01*
X30599097Y-27446676D01*
X30327349Y-27434222D01*
X30058393Y-27475023D01*
X29802565Y-27567510D01*
X29690510Y-27627404D01*
X29580338Y-27820733D01*
X15660000Y-27820733D01*
X15660000Y-26725000D01*
X40686928Y-26725000D01*
X40686928Y-27475000D01*
X40703992Y-27648254D01*
X40754528Y-27814850D01*
X40836595Y-27968386D01*
X40947038Y-28102962D01*
X41081614Y-28213405D01*
X41235150Y-28295472D01*
X41401746Y-28346008D01*
X41575000Y-28363072D01*
X42825000Y-28363072D01*
X42998254Y-28346008D01*
X43164850Y-28295472D01*
X43277985Y-28235000D01*
X43522015Y-28235000D01*
X43635150Y-28295472D01*
X43801746Y-28346008D01*
X43975000Y-28363072D01*
X45225000Y-28363072D01*
X45398254Y-28346008D01*
X45564850Y-28295472D01*
X45715402Y-28215000D01*
X46233112Y-28215000D01*
X46265000Y-28241171D01*
X46265001Y-28600229D01*
X46147038Y-28697038D01*
X46036595Y-28831614D01*
X45954528Y-28985150D01*
X45903992Y-29151746D01*
X45886928Y-29325000D01*
X45886928Y-30075000D01*
X45903992Y-30248254D01*
X45954528Y-30414850D01*
X46036595Y-30568386D01*
X46147038Y-30702962D01*
X46281614Y-30813405D01*
X46435150Y-30895472D01*
X46601746Y-30946008D01*
X46775000Y-30963072D01*
X48025000Y-30963072D01*
X48198254Y-30946008D01*
X48364850Y-30895472D01*
X48518386Y-30813405D01*
X48652962Y-30702962D01*
X48763405Y-30568386D01*
X48845472Y-30414850D01*
X48896008Y-30248254D01*
X48913072Y-30075000D01*
X48913072Y-29325000D01*
X48896008Y-29151746D01*
X48845472Y-28985150D01*
X48763405Y-28831614D01*
X48652962Y-28697038D01*
X48535000Y-28600230D01*
X48535000Y-28241170D01*
X48575463Y-28207963D01*
X48773845Y-27966235D01*
X48921255Y-27690449D01*
X49012030Y-27391204D01*
X49042681Y-27080000D01*
X49012030Y-26768796D01*
X48921255Y-26469551D01*
X48773845Y-26193765D01*
X48575463Y-25952037D01*
X48402391Y-25810000D01*
X48575463Y-25667963D01*
X48773845Y-25426235D01*
X48921255Y-25150449D01*
X49012030Y-24851204D01*
X49042681Y-24540000D01*
X49012030Y-24228796D01*
X48921255Y-23929551D01*
X48773845Y-23653765D01*
X48670554Y-23527905D01*
X48754494Y-23483037D01*
X48851185Y-23403685D01*
X48930537Y-23306994D01*
X48989502Y-23196680D01*
X49025812Y-23076982D01*
X49038072Y-22952500D01*
X49038072Y-21500000D01*
X51829657Y-21500000D01*
X51837013Y-21574689D01*
X51858799Y-21646508D01*
X51894178Y-21712696D01*
X51941789Y-21770711D01*
X51999804Y-21818322D01*
X52065992Y-21853701D01*
X52137811Y-21875487D01*
X52212500Y-21882843D01*
X52477750Y-21881000D01*
X52573000Y-21785750D01*
X52573000Y-20927000D01*
X51926750Y-20927000D01*
X51831500Y-21022250D01*
X51829657Y-21500000D01*
X49038072Y-21500000D01*
X49038072Y-21047500D01*
X49025812Y-20923018D01*
X48989502Y-20803320D01*
X48930537Y-20693006D01*
X48851185Y-20596315D01*
X48754494Y-20516963D01*
X48644180Y-20457998D01*
X48524482Y-20421688D01*
X48400000Y-20409428D01*
X46400000Y-20409428D01*
X46275518Y-20421688D01*
X46155820Y-20457998D01*
X46045506Y-20516963D01*
X45948815Y-20596315D01*
X45869463Y-20693006D01*
X45810498Y-20803320D01*
X45774188Y-20923018D01*
X45761928Y-21047500D01*
X45761928Y-22952500D01*
X45774188Y-23076982D01*
X45810498Y-23196680D01*
X45869463Y-23306994D01*
X45948815Y-23403685D01*
X46045506Y-23483037D01*
X46129446Y-23527905D01*
X46026155Y-23653765D01*
X45878745Y-23929551D01*
X45856340Y-24003410D01*
X45857843Y-23675000D01*
X45850487Y-23600311D01*
X45828701Y-23528492D01*
X45793322Y-23462304D01*
X45745711Y-23404289D01*
X45687696Y-23356678D01*
X45621508Y-23321299D01*
X45549689Y-23299513D01*
X45475000Y-23292157D01*
X44822250Y-23294000D01*
X44727000Y-23389250D01*
X44727000Y-24173000D01*
X44747000Y-24173000D01*
X44747000Y-24427000D01*
X44727000Y-24427000D01*
X44727000Y-25210750D01*
X44822250Y-25306000D01*
X45475000Y-25307843D01*
X45549689Y-25300487D01*
X45621508Y-25278701D01*
X45687696Y-25243322D01*
X45745711Y-25195711D01*
X45793322Y-25137696D01*
X45828701Y-25071508D01*
X45841750Y-25028492D01*
X45878745Y-25150449D01*
X46026155Y-25426235D01*
X46224537Y-25667963D01*
X46397609Y-25810000D01*
X46233112Y-25945000D01*
X45640568Y-25945000D01*
X45564850Y-25904528D01*
X45398254Y-25853992D01*
X45225000Y-25836928D01*
X43975000Y-25836928D01*
X43801746Y-25853992D01*
X43635150Y-25904528D01*
X43522015Y-25965000D01*
X43277985Y-25965000D01*
X43164850Y-25904528D01*
X42998254Y-25853992D01*
X42825000Y-25836928D01*
X41575000Y-25836928D01*
X41401746Y-25853992D01*
X41235150Y-25904528D01*
X41081614Y-25986595D01*
X40947038Y-26097038D01*
X40836595Y-26231614D01*
X40754528Y-26385150D01*
X40703992Y-26551746D01*
X40686928Y-26725000D01*
X15660000Y-26725000D01*
X15660000Y-25999267D01*
X19080338Y-25999267D01*
X19190510Y-26192596D01*
X19436806Y-26308095D01*
X19700903Y-26373324D01*
X19972651Y-26385778D01*
X20241607Y-26344977D01*
X20497435Y-26252490D01*
X20609490Y-26192596D01*
X20719662Y-25999267D01*
X19900000Y-25179605D01*
X19080338Y-25999267D01*
X15660000Y-25999267D01*
X15660000Y-25072651D01*
X18514222Y-25072651D01*
X18555023Y-25341607D01*
X18647510Y-25597435D01*
X18707404Y-25709490D01*
X18900733Y-25819662D01*
X19720395Y-25000000D01*
X20079605Y-25000000D01*
X20899267Y-25819662D01*
X21092596Y-25709490D01*
X21208095Y-25463194D01*
X21273324Y-25199097D01*
X21285778Y-24927349D01*
X21244977Y-24658393D01*
X21152490Y-24402565D01*
X21092596Y-24290510D01*
X20899267Y-24180338D01*
X20079605Y-25000000D01*
X19720395Y-25000000D01*
X18900733Y-24180338D01*
X18707404Y-24290510D01*
X18591905Y-24536806D01*
X18526676Y-24800903D01*
X18514222Y-25072651D01*
X15660000Y-25072651D01*
X15660000Y-24000733D01*
X19080338Y-24000733D01*
X19900000Y-24820395D01*
X20719662Y-24000733D01*
X20609490Y-23807404D01*
X20363194Y-23691905D01*
X20099097Y-23626676D01*
X19827349Y-23614222D01*
X19558393Y-23655023D01*
X19302565Y-23747510D01*
X19190510Y-23807404D01*
X19080338Y-24000733D01*
X15660000Y-24000733D01*
X15660000Y-15660000D01*
X21232926Y-15660000D01*
X21164490Y-15716164D01*
M02*
