G04 #@! TF.GenerationSoftware,KiCad,Pcbnew,5.1.5+dfsg1-2build2*
G04 #@! TF.CreationDate,2021-02-02T09:52:32+02:00*
G04 #@! TF.ProjectId,lm3488_dcdc,6c6d3334-3838-45f6-9463-64632e6b6963,rev?*
G04 #@! TF.SameCoordinates,Original*
G04 #@! TF.FileFunction,Copper,L1,Top*
G04 #@! TF.FilePolarity,Positive*
%FSLAX46Y46*%
G04 Gerber Fmt 4.6, Leading zero omitted, Abs format (unit mm)*
G04 Created by KiCad (PCBNEW 5.1.5+dfsg1-2build2) date 2021-02-02 09:52:32*
%MOMM*%
%LPD*%
G04 APERTURE LIST*
%ADD10C,0.100000*%
%ADD11R,2.000000X2.000000*%
%ADD12C,2.000000*%
%ADD13R,2.000000X1.905000*%
%ADD14O,2.000000X1.905000*%
%ADD15R,2.000000X0.500000*%
%ADD16R,1.300000X1.400000*%
%ADD17C,0.800000*%
%ADD18C,0.300000*%
%ADD19C,2.000000*%
%ADD20C,0.700000*%
%ADD21C,0.254000*%
G04 APERTURE END LIST*
G04 #@! TA.AperFunction,SMDPad,CuDef*
D10*
G36*
X25999504Y-22926204D02*
G01*
X26023773Y-22929804D01*
X26047571Y-22935765D01*
X26070671Y-22944030D01*
X26092849Y-22954520D01*
X26113893Y-22967133D01*
X26133598Y-22981747D01*
X26151777Y-22998223D01*
X26168253Y-23016402D01*
X26182867Y-23036107D01*
X26195480Y-23057151D01*
X26205970Y-23079329D01*
X26214235Y-23102429D01*
X26220196Y-23126227D01*
X26223796Y-23150496D01*
X26225000Y-23175000D01*
X26225000Y-24425000D01*
X26223796Y-24449504D01*
X26220196Y-24473773D01*
X26214235Y-24497571D01*
X26205970Y-24520671D01*
X26195480Y-24542849D01*
X26182867Y-24563893D01*
X26168253Y-24583598D01*
X26151777Y-24601777D01*
X26133598Y-24618253D01*
X26113893Y-24632867D01*
X26092849Y-24645480D01*
X26070671Y-24655970D01*
X26047571Y-24664235D01*
X26023773Y-24670196D01*
X25999504Y-24673796D01*
X25975000Y-24675000D01*
X25225000Y-24675000D01*
X25200496Y-24673796D01*
X25176227Y-24670196D01*
X25152429Y-24664235D01*
X25129329Y-24655970D01*
X25107151Y-24645480D01*
X25086107Y-24632867D01*
X25066402Y-24618253D01*
X25048223Y-24601777D01*
X25031747Y-24583598D01*
X25017133Y-24563893D01*
X25004520Y-24542849D01*
X24994030Y-24520671D01*
X24985765Y-24497571D01*
X24979804Y-24473773D01*
X24976204Y-24449504D01*
X24975000Y-24425000D01*
X24975000Y-23175000D01*
X24976204Y-23150496D01*
X24979804Y-23126227D01*
X24985765Y-23102429D01*
X24994030Y-23079329D01*
X25004520Y-23057151D01*
X25017133Y-23036107D01*
X25031747Y-23016402D01*
X25048223Y-22998223D01*
X25066402Y-22981747D01*
X25086107Y-22967133D01*
X25107151Y-22954520D01*
X25129329Y-22944030D01*
X25152429Y-22935765D01*
X25176227Y-22929804D01*
X25200496Y-22926204D01*
X25225000Y-22925000D01*
X25975000Y-22925000D01*
X25999504Y-22926204D01*
G37*
G04 #@! TD.AperFunction*
G04 #@! TA.AperFunction,SMDPad,CuDef*
G36*
X28799504Y-22926204D02*
G01*
X28823773Y-22929804D01*
X28847571Y-22935765D01*
X28870671Y-22944030D01*
X28892849Y-22954520D01*
X28913893Y-22967133D01*
X28933598Y-22981747D01*
X28951777Y-22998223D01*
X28968253Y-23016402D01*
X28982867Y-23036107D01*
X28995480Y-23057151D01*
X29005970Y-23079329D01*
X29014235Y-23102429D01*
X29020196Y-23126227D01*
X29023796Y-23150496D01*
X29025000Y-23175000D01*
X29025000Y-24425000D01*
X29023796Y-24449504D01*
X29020196Y-24473773D01*
X29014235Y-24497571D01*
X29005970Y-24520671D01*
X28995480Y-24542849D01*
X28982867Y-24563893D01*
X28968253Y-24583598D01*
X28951777Y-24601777D01*
X28933598Y-24618253D01*
X28913893Y-24632867D01*
X28892849Y-24645480D01*
X28870671Y-24655970D01*
X28847571Y-24664235D01*
X28823773Y-24670196D01*
X28799504Y-24673796D01*
X28775000Y-24675000D01*
X28025000Y-24675000D01*
X28000496Y-24673796D01*
X27976227Y-24670196D01*
X27952429Y-24664235D01*
X27929329Y-24655970D01*
X27907151Y-24645480D01*
X27886107Y-24632867D01*
X27866402Y-24618253D01*
X27848223Y-24601777D01*
X27831747Y-24583598D01*
X27817133Y-24563893D01*
X27804520Y-24542849D01*
X27794030Y-24520671D01*
X27785765Y-24497571D01*
X27779804Y-24473773D01*
X27776204Y-24449504D01*
X27775000Y-24425000D01*
X27775000Y-23175000D01*
X27776204Y-23150496D01*
X27779804Y-23126227D01*
X27785765Y-23102429D01*
X27794030Y-23079329D01*
X27804520Y-23057151D01*
X27817133Y-23036107D01*
X27831747Y-23016402D01*
X27848223Y-22998223D01*
X27866402Y-22981747D01*
X27886107Y-22967133D01*
X27907151Y-22954520D01*
X27929329Y-22944030D01*
X27952429Y-22935765D01*
X27976227Y-22929804D01*
X28000496Y-22926204D01*
X28025000Y-22925000D01*
X28775000Y-22925000D01*
X28799504Y-22926204D01*
G37*
G04 #@! TD.AperFunction*
G04 #@! TA.AperFunction,SMDPad,CuDef*
G36*
X35892642Y-18201174D02*
G01*
X35916303Y-18204684D01*
X35939507Y-18210496D01*
X35962029Y-18218554D01*
X35983653Y-18228782D01*
X36004170Y-18241079D01*
X36023383Y-18255329D01*
X36041107Y-18271393D01*
X36057171Y-18289117D01*
X36071421Y-18308330D01*
X36083718Y-18328847D01*
X36093946Y-18350471D01*
X36102004Y-18372993D01*
X36107816Y-18396197D01*
X36111326Y-18419858D01*
X36112500Y-18443750D01*
X36112500Y-19356250D01*
X36111326Y-19380142D01*
X36107816Y-19403803D01*
X36102004Y-19427007D01*
X36093946Y-19449529D01*
X36083718Y-19471153D01*
X36071421Y-19491670D01*
X36057171Y-19510883D01*
X36041107Y-19528607D01*
X36023383Y-19544671D01*
X36004170Y-19558921D01*
X35983653Y-19571218D01*
X35962029Y-19581446D01*
X35939507Y-19589504D01*
X35916303Y-19595316D01*
X35892642Y-19598826D01*
X35868750Y-19600000D01*
X35381250Y-19600000D01*
X35357358Y-19598826D01*
X35333697Y-19595316D01*
X35310493Y-19589504D01*
X35287971Y-19581446D01*
X35266347Y-19571218D01*
X35245830Y-19558921D01*
X35226617Y-19544671D01*
X35208893Y-19528607D01*
X35192829Y-19510883D01*
X35178579Y-19491670D01*
X35166282Y-19471153D01*
X35156054Y-19449529D01*
X35147996Y-19427007D01*
X35142184Y-19403803D01*
X35138674Y-19380142D01*
X35137500Y-19356250D01*
X35137500Y-18443750D01*
X35138674Y-18419858D01*
X35142184Y-18396197D01*
X35147996Y-18372993D01*
X35156054Y-18350471D01*
X35166282Y-18328847D01*
X35178579Y-18308330D01*
X35192829Y-18289117D01*
X35208893Y-18271393D01*
X35226617Y-18255329D01*
X35245830Y-18241079D01*
X35266347Y-18228782D01*
X35287971Y-18218554D01*
X35310493Y-18210496D01*
X35333697Y-18204684D01*
X35357358Y-18201174D01*
X35381250Y-18200000D01*
X35868750Y-18200000D01*
X35892642Y-18201174D01*
G37*
G04 #@! TD.AperFunction*
G04 #@! TA.AperFunction,SMDPad,CuDef*
G36*
X37767642Y-18201174D02*
G01*
X37791303Y-18204684D01*
X37814507Y-18210496D01*
X37837029Y-18218554D01*
X37858653Y-18228782D01*
X37879170Y-18241079D01*
X37898383Y-18255329D01*
X37916107Y-18271393D01*
X37932171Y-18289117D01*
X37946421Y-18308330D01*
X37958718Y-18328847D01*
X37968946Y-18350471D01*
X37977004Y-18372993D01*
X37982816Y-18396197D01*
X37986326Y-18419858D01*
X37987500Y-18443750D01*
X37987500Y-19356250D01*
X37986326Y-19380142D01*
X37982816Y-19403803D01*
X37977004Y-19427007D01*
X37968946Y-19449529D01*
X37958718Y-19471153D01*
X37946421Y-19491670D01*
X37932171Y-19510883D01*
X37916107Y-19528607D01*
X37898383Y-19544671D01*
X37879170Y-19558921D01*
X37858653Y-19571218D01*
X37837029Y-19581446D01*
X37814507Y-19589504D01*
X37791303Y-19595316D01*
X37767642Y-19598826D01*
X37743750Y-19600000D01*
X37256250Y-19600000D01*
X37232358Y-19598826D01*
X37208697Y-19595316D01*
X37185493Y-19589504D01*
X37162971Y-19581446D01*
X37141347Y-19571218D01*
X37120830Y-19558921D01*
X37101617Y-19544671D01*
X37083893Y-19528607D01*
X37067829Y-19510883D01*
X37053579Y-19491670D01*
X37041282Y-19471153D01*
X37031054Y-19449529D01*
X37022996Y-19427007D01*
X37017184Y-19403803D01*
X37013674Y-19380142D01*
X37012500Y-19356250D01*
X37012500Y-18443750D01*
X37013674Y-18419858D01*
X37017184Y-18396197D01*
X37022996Y-18372993D01*
X37031054Y-18350471D01*
X37041282Y-18328847D01*
X37053579Y-18308330D01*
X37067829Y-18289117D01*
X37083893Y-18271393D01*
X37101617Y-18255329D01*
X37120830Y-18241079D01*
X37141347Y-18228782D01*
X37162971Y-18218554D01*
X37185493Y-18210496D01*
X37208697Y-18204684D01*
X37232358Y-18201174D01*
X37256250Y-18200000D01*
X37743750Y-18200000D01*
X37767642Y-18201174D01*
G37*
G04 #@! TD.AperFunction*
D11*
X19800000Y-33300000D03*
D12*
X24800000Y-33300000D03*
D11*
X82000000Y-20800000D03*
D12*
X82000000Y-25800000D03*
X82000000Y-37200000D03*
D11*
X82000000Y-32200000D03*
D12*
X38500000Y-28900000D03*
D11*
X38500000Y-33900000D03*
D12*
X19900000Y-20000000D03*
X19900000Y-25000000D03*
X89600000Y-25800000D03*
X89600000Y-20800000D03*
X49000000Y-37500000D03*
X44000000Y-37500000D03*
X89500000Y-32200000D03*
X89500000Y-37200000D03*
D13*
X47400000Y-22000000D03*
D14*
X47400000Y-24540000D03*
X47400000Y-27080000D03*
G04 #@! TA.AperFunction,SMDPad,CuDef*
D10*
G36*
X28799504Y-20526204D02*
G01*
X28823773Y-20529804D01*
X28847571Y-20535765D01*
X28870671Y-20544030D01*
X28892849Y-20554520D01*
X28913893Y-20567133D01*
X28933598Y-20581747D01*
X28951777Y-20598223D01*
X28968253Y-20616402D01*
X28982867Y-20636107D01*
X28995480Y-20657151D01*
X29005970Y-20679329D01*
X29014235Y-20702429D01*
X29020196Y-20726227D01*
X29023796Y-20750496D01*
X29025000Y-20775000D01*
X29025000Y-22025000D01*
X29023796Y-22049504D01*
X29020196Y-22073773D01*
X29014235Y-22097571D01*
X29005970Y-22120671D01*
X28995480Y-22142849D01*
X28982867Y-22163893D01*
X28968253Y-22183598D01*
X28951777Y-22201777D01*
X28933598Y-22218253D01*
X28913893Y-22232867D01*
X28892849Y-22245480D01*
X28870671Y-22255970D01*
X28847571Y-22264235D01*
X28823773Y-22270196D01*
X28799504Y-22273796D01*
X28775000Y-22275000D01*
X28025000Y-22275000D01*
X28000496Y-22273796D01*
X27976227Y-22270196D01*
X27952429Y-22264235D01*
X27929329Y-22255970D01*
X27907151Y-22245480D01*
X27886107Y-22232867D01*
X27866402Y-22218253D01*
X27848223Y-22201777D01*
X27831747Y-22183598D01*
X27817133Y-22163893D01*
X27804520Y-22142849D01*
X27794030Y-22120671D01*
X27785765Y-22097571D01*
X27779804Y-22073773D01*
X27776204Y-22049504D01*
X27775000Y-22025000D01*
X27775000Y-20775000D01*
X27776204Y-20750496D01*
X27779804Y-20726227D01*
X27785765Y-20702429D01*
X27794030Y-20679329D01*
X27804520Y-20657151D01*
X27817133Y-20636107D01*
X27831747Y-20616402D01*
X27848223Y-20598223D01*
X27866402Y-20581747D01*
X27886107Y-20567133D01*
X27907151Y-20554520D01*
X27929329Y-20544030D01*
X27952429Y-20535765D01*
X27976227Y-20529804D01*
X28000496Y-20526204D01*
X28025000Y-20525000D01*
X28775000Y-20525000D01*
X28799504Y-20526204D01*
G37*
G04 #@! TD.AperFunction*
G04 #@! TA.AperFunction,SMDPad,CuDef*
G36*
X25999504Y-20526204D02*
G01*
X26023773Y-20529804D01*
X26047571Y-20535765D01*
X26070671Y-20544030D01*
X26092849Y-20554520D01*
X26113893Y-20567133D01*
X26133598Y-20581747D01*
X26151777Y-20598223D01*
X26168253Y-20616402D01*
X26182867Y-20636107D01*
X26195480Y-20657151D01*
X26205970Y-20679329D01*
X26214235Y-20702429D01*
X26220196Y-20726227D01*
X26223796Y-20750496D01*
X26225000Y-20775000D01*
X26225000Y-22025000D01*
X26223796Y-22049504D01*
X26220196Y-22073773D01*
X26214235Y-22097571D01*
X26205970Y-22120671D01*
X26195480Y-22142849D01*
X26182867Y-22163893D01*
X26168253Y-22183598D01*
X26151777Y-22201777D01*
X26133598Y-22218253D01*
X26113893Y-22232867D01*
X26092849Y-22245480D01*
X26070671Y-22255970D01*
X26047571Y-22264235D01*
X26023773Y-22270196D01*
X25999504Y-22273796D01*
X25975000Y-22275000D01*
X25225000Y-22275000D01*
X25200496Y-22273796D01*
X25176227Y-22270196D01*
X25152429Y-22264235D01*
X25129329Y-22255970D01*
X25107151Y-22245480D01*
X25086107Y-22232867D01*
X25066402Y-22218253D01*
X25048223Y-22201777D01*
X25031747Y-22183598D01*
X25017133Y-22163893D01*
X25004520Y-22142849D01*
X24994030Y-22120671D01*
X24985765Y-22097571D01*
X24979804Y-22073773D01*
X24976204Y-22049504D01*
X24975000Y-22025000D01*
X24975000Y-20775000D01*
X24976204Y-20750496D01*
X24979804Y-20726227D01*
X24985765Y-20702429D01*
X24994030Y-20679329D01*
X25004520Y-20657151D01*
X25017133Y-20636107D01*
X25031747Y-20616402D01*
X25048223Y-20598223D01*
X25066402Y-20581747D01*
X25086107Y-20567133D01*
X25107151Y-20554520D01*
X25129329Y-20544030D01*
X25152429Y-20535765D01*
X25176227Y-20529804D01*
X25200496Y-20526204D01*
X25225000Y-20525000D01*
X25975000Y-20525000D01*
X25999504Y-20526204D01*
G37*
G04 #@! TD.AperFunction*
G04 #@! TA.AperFunction,SMDPad,CuDef*
G36*
X41499504Y-18726204D02*
G01*
X41523773Y-18729804D01*
X41547571Y-18735765D01*
X41570671Y-18744030D01*
X41592849Y-18754520D01*
X41613893Y-18767133D01*
X41633598Y-18781747D01*
X41651777Y-18798223D01*
X41668253Y-18816402D01*
X41682867Y-18836107D01*
X41695480Y-18857151D01*
X41705970Y-18879329D01*
X41714235Y-18902429D01*
X41720196Y-18926227D01*
X41723796Y-18950496D01*
X41725000Y-18975000D01*
X41725000Y-20225000D01*
X41723796Y-20249504D01*
X41720196Y-20273773D01*
X41714235Y-20297571D01*
X41705970Y-20320671D01*
X41695480Y-20342849D01*
X41682867Y-20363893D01*
X41668253Y-20383598D01*
X41651777Y-20401777D01*
X41633598Y-20418253D01*
X41613893Y-20432867D01*
X41592849Y-20445480D01*
X41570671Y-20455970D01*
X41547571Y-20464235D01*
X41523773Y-20470196D01*
X41499504Y-20473796D01*
X41475000Y-20475000D01*
X40725000Y-20475000D01*
X40700496Y-20473796D01*
X40676227Y-20470196D01*
X40652429Y-20464235D01*
X40629329Y-20455970D01*
X40607151Y-20445480D01*
X40586107Y-20432867D01*
X40566402Y-20418253D01*
X40548223Y-20401777D01*
X40531747Y-20383598D01*
X40517133Y-20363893D01*
X40504520Y-20342849D01*
X40494030Y-20320671D01*
X40485765Y-20297571D01*
X40479804Y-20273773D01*
X40476204Y-20249504D01*
X40475000Y-20225000D01*
X40475000Y-18975000D01*
X40476204Y-18950496D01*
X40479804Y-18926227D01*
X40485765Y-18902429D01*
X40494030Y-18879329D01*
X40504520Y-18857151D01*
X40517133Y-18836107D01*
X40531747Y-18816402D01*
X40548223Y-18798223D01*
X40566402Y-18781747D01*
X40586107Y-18767133D01*
X40607151Y-18754520D01*
X40629329Y-18744030D01*
X40652429Y-18735765D01*
X40676227Y-18729804D01*
X40700496Y-18726204D01*
X40725000Y-18725000D01*
X41475000Y-18725000D01*
X41499504Y-18726204D01*
G37*
G04 #@! TD.AperFunction*
G04 #@! TA.AperFunction,SMDPad,CuDef*
G36*
X44299504Y-18726204D02*
G01*
X44323773Y-18729804D01*
X44347571Y-18735765D01*
X44370671Y-18744030D01*
X44392849Y-18754520D01*
X44413893Y-18767133D01*
X44433598Y-18781747D01*
X44451777Y-18798223D01*
X44468253Y-18816402D01*
X44482867Y-18836107D01*
X44495480Y-18857151D01*
X44505970Y-18879329D01*
X44514235Y-18902429D01*
X44520196Y-18926227D01*
X44523796Y-18950496D01*
X44525000Y-18975000D01*
X44525000Y-20225000D01*
X44523796Y-20249504D01*
X44520196Y-20273773D01*
X44514235Y-20297571D01*
X44505970Y-20320671D01*
X44495480Y-20342849D01*
X44482867Y-20363893D01*
X44468253Y-20383598D01*
X44451777Y-20401777D01*
X44433598Y-20418253D01*
X44413893Y-20432867D01*
X44392849Y-20445480D01*
X44370671Y-20455970D01*
X44347571Y-20464235D01*
X44323773Y-20470196D01*
X44299504Y-20473796D01*
X44275000Y-20475000D01*
X43525000Y-20475000D01*
X43500496Y-20473796D01*
X43476227Y-20470196D01*
X43452429Y-20464235D01*
X43429329Y-20455970D01*
X43407151Y-20445480D01*
X43386107Y-20432867D01*
X43366402Y-20418253D01*
X43348223Y-20401777D01*
X43331747Y-20383598D01*
X43317133Y-20363893D01*
X43304520Y-20342849D01*
X43294030Y-20320671D01*
X43285765Y-20297571D01*
X43279804Y-20273773D01*
X43276204Y-20249504D01*
X43275000Y-20225000D01*
X43275000Y-18975000D01*
X43276204Y-18950496D01*
X43279804Y-18926227D01*
X43285765Y-18902429D01*
X43294030Y-18879329D01*
X43304520Y-18857151D01*
X43317133Y-18836107D01*
X43331747Y-18816402D01*
X43348223Y-18798223D01*
X43366402Y-18781747D01*
X43386107Y-18767133D01*
X43407151Y-18754520D01*
X43429329Y-18744030D01*
X43452429Y-18735765D01*
X43476227Y-18729804D01*
X43500496Y-18726204D01*
X43525000Y-18725000D01*
X44275000Y-18725000D01*
X44299504Y-18726204D01*
G37*
G04 #@! TD.AperFunction*
G04 #@! TA.AperFunction,SMDPad,CuDef*
G36*
X44299504Y-21126204D02*
G01*
X44323773Y-21129804D01*
X44347571Y-21135765D01*
X44370671Y-21144030D01*
X44392849Y-21154520D01*
X44413893Y-21167133D01*
X44433598Y-21181747D01*
X44451777Y-21198223D01*
X44468253Y-21216402D01*
X44482867Y-21236107D01*
X44495480Y-21257151D01*
X44505970Y-21279329D01*
X44514235Y-21302429D01*
X44520196Y-21326227D01*
X44523796Y-21350496D01*
X44525000Y-21375000D01*
X44525000Y-22625000D01*
X44523796Y-22649504D01*
X44520196Y-22673773D01*
X44514235Y-22697571D01*
X44505970Y-22720671D01*
X44495480Y-22742849D01*
X44482867Y-22763893D01*
X44468253Y-22783598D01*
X44451777Y-22801777D01*
X44433598Y-22818253D01*
X44413893Y-22832867D01*
X44392849Y-22845480D01*
X44370671Y-22855970D01*
X44347571Y-22864235D01*
X44323773Y-22870196D01*
X44299504Y-22873796D01*
X44275000Y-22875000D01*
X43525000Y-22875000D01*
X43500496Y-22873796D01*
X43476227Y-22870196D01*
X43452429Y-22864235D01*
X43429329Y-22855970D01*
X43407151Y-22845480D01*
X43386107Y-22832867D01*
X43366402Y-22818253D01*
X43348223Y-22801777D01*
X43331747Y-22783598D01*
X43317133Y-22763893D01*
X43304520Y-22742849D01*
X43294030Y-22720671D01*
X43285765Y-22697571D01*
X43279804Y-22673773D01*
X43276204Y-22649504D01*
X43275000Y-22625000D01*
X43275000Y-21375000D01*
X43276204Y-21350496D01*
X43279804Y-21326227D01*
X43285765Y-21302429D01*
X43294030Y-21279329D01*
X43304520Y-21257151D01*
X43317133Y-21236107D01*
X43331747Y-21216402D01*
X43348223Y-21198223D01*
X43366402Y-21181747D01*
X43386107Y-21167133D01*
X43407151Y-21154520D01*
X43429329Y-21144030D01*
X43452429Y-21135765D01*
X43476227Y-21129804D01*
X43500496Y-21126204D01*
X43525000Y-21125000D01*
X44275000Y-21125000D01*
X44299504Y-21126204D01*
G37*
G04 #@! TD.AperFunction*
G04 #@! TA.AperFunction,SMDPad,CuDef*
G36*
X41499504Y-21126204D02*
G01*
X41523773Y-21129804D01*
X41547571Y-21135765D01*
X41570671Y-21144030D01*
X41592849Y-21154520D01*
X41613893Y-21167133D01*
X41633598Y-21181747D01*
X41651777Y-21198223D01*
X41668253Y-21216402D01*
X41682867Y-21236107D01*
X41695480Y-21257151D01*
X41705970Y-21279329D01*
X41714235Y-21302429D01*
X41720196Y-21326227D01*
X41723796Y-21350496D01*
X41725000Y-21375000D01*
X41725000Y-22625000D01*
X41723796Y-22649504D01*
X41720196Y-22673773D01*
X41714235Y-22697571D01*
X41705970Y-22720671D01*
X41695480Y-22742849D01*
X41682867Y-22763893D01*
X41668253Y-22783598D01*
X41651777Y-22801777D01*
X41633598Y-22818253D01*
X41613893Y-22832867D01*
X41592849Y-22845480D01*
X41570671Y-22855970D01*
X41547571Y-22864235D01*
X41523773Y-22870196D01*
X41499504Y-22873796D01*
X41475000Y-22875000D01*
X40725000Y-22875000D01*
X40700496Y-22873796D01*
X40676227Y-22870196D01*
X40652429Y-22864235D01*
X40629329Y-22855970D01*
X40607151Y-22845480D01*
X40586107Y-22832867D01*
X40566402Y-22818253D01*
X40548223Y-22801777D01*
X40531747Y-22783598D01*
X40517133Y-22763893D01*
X40504520Y-22742849D01*
X40494030Y-22720671D01*
X40485765Y-22697571D01*
X40479804Y-22673773D01*
X40476204Y-22649504D01*
X40475000Y-22625000D01*
X40475000Y-21375000D01*
X40476204Y-21350496D01*
X40479804Y-21326227D01*
X40485765Y-21302429D01*
X40494030Y-21279329D01*
X40504520Y-21257151D01*
X40517133Y-21236107D01*
X40531747Y-21216402D01*
X40548223Y-21198223D01*
X40566402Y-21181747D01*
X40586107Y-21167133D01*
X40607151Y-21154520D01*
X40629329Y-21144030D01*
X40652429Y-21135765D01*
X40676227Y-21129804D01*
X40700496Y-21126204D01*
X40725000Y-21125000D01*
X41475000Y-21125000D01*
X41499504Y-21126204D01*
G37*
G04 #@! TD.AperFunction*
D12*
X30400000Y-33900000D03*
X30400000Y-31360000D03*
X30400000Y-28820000D03*
D15*
X32950000Y-20700000D03*
X32950000Y-21350000D03*
X32950000Y-22000000D03*
X32950000Y-22650000D03*
X37500000Y-22650000D03*
X37500000Y-22000000D03*
X37500000Y-21350000D03*
X37500000Y-20700000D03*
D11*
X57200000Y-20780000D03*
D12*
X57200000Y-24590000D03*
X57200000Y-28400000D03*
X57200000Y-32210000D03*
X57200000Y-36020000D03*
X72440000Y-36020000D03*
X72440000Y-32210000D03*
X72440000Y-28400000D03*
X72440000Y-24590000D03*
X72440000Y-20780000D03*
D16*
X49550000Y-32200000D03*
X46650000Y-32200000D03*
D17*
X39100000Y-23300000D03*
X32900000Y-23700000D03*
X35750000Y-22650000D03*
X34300000Y-19500000D03*
X37700000Y-17300000D03*
X35000000Y-20700000D03*
D18*
X32950000Y-22000000D02*
X31250000Y-22000000D01*
X31250000Y-22000000D02*
X30450000Y-22800000D01*
X30450000Y-22800000D02*
X30450000Y-24450000D01*
X30450000Y-24450000D02*
X32500000Y-26500000D01*
X32500000Y-29260000D02*
X30400000Y-31360000D01*
X32500000Y-26500000D02*
X32500000Y-29260000D01*
X38450000Y-22650000D02*
X39100000Y-23300000D01*
X37500000Y-22650000D02*
X38450000Y-22650000D01*
X32950000Y-23650000D02*
X32900000Y-23700000D01*
X32950000Y-22650000D02*
X32950000Y-23650000D01*
X37500000Y-22650000D02*
X35750000Y-22650000D01*
X35025000Y-19500000D02*
X35625000Y-18900000D01*
X34300000Y-19500000D02*
X35025000Y-19500000D01*
X25600000Y-21400000D02*
X25600000Y-23800000D01*
X37500000Y-20700000D02*
X37500000Y-18900000D01*
D19*
X19800000Y-33300000D02*
X19300000Y-33300000D01*
X19300000Y-33300000D02*
X17000000Y-31000000D01*
X17000000Y-22900000D02*
X19900000Y-20000000D01*
X17000000Y-31000000D02*
X17000000Y-22900000D01*
D20*
X37500000Y-17500000D02*
X37700000Y-17300000D01*
X37500000Y-18900000D02*
X37500000Y-17500000D01*
D19*
X46650000Y-32200000D02*
X45300000Y-32200000D01*
X44000000Y-33500000D02*
X44000000Y-37500000D01*
X45300000Y-32200000D02*
X44000000Y-33500000D01*
X43600000Y-33900000D02*
X44000000Y-33500000D01*
X38500000Y-33900000D02*
X43600000Y-33900000D01*
X57150000Y-24540000D02*
X57200000Y-24590000D01*
X47400000Y-24540000D02*
X57150000Y-24540000D01*
X57190000Y-32200000D02*
X57200000Y-32210000D01*
X49550000Y-32200000D02*
X57190000Y-32200000D01*
D20*
X43900000Y-22000000D02*
X47400000Y-22000000D01*
D18*
X32950000Y-21350000D02*
X29550000Y-21350000D01*
X29500000Y-21400000D02*
X28400000Y-21400000D01*
X29550000Y-21350000D02*
X29500000Y-21400000D01*
X37500000Y-21350000D02*
X39350000Y-21350000D01*
X39350000Y-21350000D02*
X39700000Y-21000000D01*
X39700000Y-21000000D02*
X39700000Y-19900000D01*
X40000000Y-19600000D02*
X41100000Y-19600000D01*
X39700000Y-19900000D02*
X40000000Y-19600000D01*
X37500000Y-22000000D02*
X41100000Y-22000000D01*
X35000000Y-20700000D02*
X32950000Y-20700000D01*
D21*
G36*
X93340000Y-40340000D02*
G01*
X15660000Y-40340000D01*
X15660000Y-31944470D01*
X15838286Y-32161714D01*
X15900687Y-32212925D01*
X18087080Y-34399318D01*
X18138286Y-34461714D01*
X18201126Y-34513285D01*
X18210498Y-34544180D01*
X18269463Y-34654494D01*
X18348815Y-34751185D01*
X18445506Y-34830537D01*
X18555820Y-34889502D01*
X18675518Y-34925812D01*
X18800000Y-34938072D01*
X19250869Y-34938072D01*
X19299999Y-34942911D01*
X19349129Y-34938072D01*
X20800000Y-34938072D01*
X20924482Y-34925812D01*
X21044180Y-34889502D01*
X21154494Y-34830537D01*
X21251185Y-34751185D01*
X21330537Y-34654494D01*
X21389502Y-34544180D01*
X21425812Y-34424482D01*
X21438072Y-34300000D01*
X21438072Y-34299267D01*
X23980338Y-34299267D01*
X24090510Y-34492596D01*
X24336806Y-34608095D01*
X24600903Y-34673324D01*
X24872651Y-34685778D01*
X25141607Y-34644977D01*
X25397435Y-34552490D01*
X25509490Y-34492596D01*
X25619662Y-34299267D01*
X24800000Y-33479605D01*
X23980338Y-34299267D01*
X21438072Y-34299267D01*
X21438072Y-33372651D01*
X23414222Y-33372651D01*
X23455023Y-33641607D01*
X23547510Y-33897435D01*
X23607404Y-34009490D01*
X23800733Y-34119662D01*
X24620395Y-33300000D01*
X24979605Y-33300000D01*
X25799267Y-34119662D01*
X25992596Y-34009490D01*
X26108095Y-33763194D01*
X26173324Y-33499097D01*
X26185778Y-33227349D01*
X26144977Y-32958393D01*
X26052490Y-32702565D01*
X25992596Y-32590510D01*
X25799267Y-32480338D01*
X24979605Y-33300000D01*
X24620395Y-33300000D01*
X23800733Y-32480338D01*
X23607404Y-32590510D01*
X23491905Y-32836806D01*
X23426676Y-33100903D01*
X23414222Y-33372651D01*
X21438072Y-33372651D01*
X21438072Y-33349131D01*
X21442911Y-33300000D01*
X21438072Y-33250869D01*
X21438072Y-32300733D01*
X23980338Y-32300733D01*
X24800000Y-33120395D01*
X25619662Y-32300733D01*
X25509490Y-32107404D01*
X25263194Y-31991905D01*
X24999097Y-31926676D01*
X24727349Y-31914222D01*
X24458393Y-31955023D01*
X24202565Y-32047510D01*
X24090510Y-32107404D01*
X23980338Y-32300733D01*
X21438072Y-32300733D01*
X21438072Y-32300000D01*
X21425812Y-32175518D01*
X21389502Y-32055820D01*
X21330537Y-31945506D01*
X21251185Y-31848815D01*
X21154494Y-31769463D01*
X21044180Y-31710498D01*
X20924482Y-31674188D01*
X20800000Y-31661928D01*
X19974167Y-31661928D01*
X18635000Y-30322762D01*
X18635000Y-28892651D01*
X29014222Y-28892651D01*
X29055023Y-29161607D01*
X29147510Y-29417435D01*
X29207404Y-29529490D01*
X29400733Y-29639662D01*
X30220395Y-28820000D01*
X29400733Y-28000338D01*
X29207404Y-28110510D01*
X29091905Y-28356806D01*
X29026676Y-28620903D01*
X29014222Y-28892651D01*
X18635000Y-28892651D01*
X18635000Y-27820733D01*
X29580338Y-27820733D01*
X30400000Y-28640395D01*
X31219662Y-27820733D01*
X31109490Y-27627404D01*
X30863194Y-27511905D01*
X30599097Y-27446676D01*
X30327349Y-27434222D01*
X30058393Y-27475023D01*
X29802565Y-27567510D01*
X29690510Y-27627404D01*
X29580338Y-27820733D01*
X18635000Y-27820733D01*
X18635000Y-25999267D01*
X19080338Y-25999267D01*
X19190510Y-26192596D01*
X19436806Y-26308095D01*
X19700903Y-26373324D01*
X19972651Y-26385778D01*
X20241607Y-26344977D01*
X20497435Y-26252490D01*
X20609490Y-26192596D01*
X20719662Y-25999267D01*
X19900000Y-25179605D01*
X19080338Y-25999267D01*
X18635000Y-25999267D01*
X18635000Y-25562831D01*
X18647510Y-25597435D01*
X18707404Y-25709490D01*
X18900733Y-25819662D01*
X19720395Y-25000000D01*
X20079605Y-25000000D01*
X20899267Y-25819662D01*
X21092596Y-25709490D01*
X21208095Y-25463194D01*
X21273324Y-25199097D01*
X21285778Y-24927349D01*
X21244977Y-24658393D01*
X21152490Y-24402565D01*
X21092596Y-24290510D01*
X20899267Y-24180338D01*
X20079605Y-25000000D01*
X19720395Y-25000000D01*
X18900733Y-24180338D01*
X18707404Y-24290510D01*
X18635000Y-24444908D01*
X18635000Y-24000733D01*
X19080338Y-24000733D01*
X19900000Y-24820395D01*
X20719662Y-24000733D01*
X20609490Y-23807404D01*
X20363194Y-23691905D01*
X20099097Y-23626676D01*
X19827349Y-23614222D01*
X19558393Y-23655023D01*
X19302565Y-23747510D01*
X19190510Y-23807404D01*
X19080338Y-24000733D01*
X18635000Y-24000733D01*
X18635000Y-23577238D01*
X21112915Y-21099324D01*
X21169987Y-21042252D01*
X21214828Y-20975143D01*
X21266030Y-20912753D01*
X21304077Y-20841573D01*
X21348559Y-20775000D01*
X24336928Y-20775000D01*
X24336928Y-22025000D01*
X24353992Y-22198254D01*
X24404528Y-22364850D01*
X24486595Y-22518386D01*
X24553573Y-22600000D01*
X24486595Y-22681614D01*
X24404528Y-22835150D01*
X24353992Y-23001746D01*
X24336928Y-23175000D01*
X24336928Y-24425000D01*
X24353992Y-24598254D01*
X24404528Y-24764850D01*
X24486595Y-24918386D01*
X24597038Y-25052962D01*
X24731614Y-25163405D01*
X24885150Y-25245472D01*
X25051746Y-25296008D01*
X25225000Y-25313072D01*
X25975000Y-25313072D01*
X26148254Y-25296008D01*
X26314850Y-25245472D01*
X26468386Y-25163405D01*
X26602962Y-25052962D01*
X26713405Y-24918386D01*
X26795472Y-24764850D01*
X26822727Y-24675000D01*
X27392157Y-24675000D01*
X27399513Y-24749689D01*
X27421299Y-24821508D01*
X27456678Y-24887696D01*
X27504289Y-24945711D01*
X27562304Y-24993322D01*
X27628492Y-25028701D01*
X27700311Y-25050487D01*
X27775000Y-25057843D01*
X28177750Y-25056000D01*
X28273000Y-24960750D01*
X28273000Y-23927000D01*
X28527000Y-23927000D01*
X28527000Y-24960750D01*
X28622250Y-25056000D01*
X29025000Y-25057843D01*
X29099689Y-25050487D01*
X29171508Y-25028701D01*
X29237696Y-24993322D01*
X29295711Y-24945711D01*
X29343322Y-24887696D01*
X29378701Y-24821508D01*
X29400487Y-24749689D01*
X29407843Y-24675000D01*
X29406000Y-24022250D01*
X29310750Y-23927000D01*
X28527000Y-23927000D01*
X28273000Y-23927000D01*
X27489250Y-23927000D01*
X27394000Y-24022250D01*
X27392157Y-24675000D01*
X26822727Y-24675000D01*
X26846008Y-24598254D01*
X26863072Y-24425000D01*
X26863072Y-23175000D01*
X26846008Y-23001746D01*
X26795472Y-22835150D01*
X26713405Y-22681614D01*
X26646427Y-22600000D01*
X26713405Y-22518386D01*
X26795472Y-22364850D01*
X26846008Y-22198254D01*
X26863072Y-22025000D01*
X26863072Y-20775000D01*
X27136928Y-20775000D01*
X27136928Y-22025000D01*
X27153992Y-22198254D01*
X27204528Y-22364850D01*
X27286595Y-22518386D01*
X27397038Y-22652962D01*
X27461777Y-22706091D01*
X27456678Y-22712304D01*
X27421299Y-22778492D01*
X27399513Y-22850311D01*
X27392157Y-22925000D01*
X27394000Y-23577750D01*
X27489250Y-23673000D01*
X28273000Y-23673000D01*
X28273000Y-23653000D01*
X28527000Y-23653000D01*
X28527000Y-23673000D01*
X29310750Y-23673000D01*
X29406000Y-23577750D01*
X29407843Y-22925000D01*
X29400487Y-22850311D01*
X29378701Y-22778492D01*
X29343322Y-22712304D01*
X29338223Y-22706091D01*
X29402962Y-22652962D01*
X29513405Y-22518386D01*
X29595472Y-22364850D01*
X29646008Y-22198254D01*
X29648379Y-22174184D01*
X29653887Y-22173641D01*
X29781270Y-22135000D01*
X30004843Y-22135000D01*
X29922190Y-22217653D01*
X29892236Y-22242236D01*
X29794138Y-22361768D01*
X29721246Y-22498141D01*
X29676359Y-22646114D01*
X29665000Y-22761440D01*
X29665000Y-22761447D01*
X29661203Y-22800000D01*
X29665000Y-22838553D01*
X29665001Y-24411438D01*
X29661203Y-24450000D01*
X29676359Y-24603886D01*
X29721246Y-24751859D01*
X29741150Y-24789097D01*
X29794139Y-24888233D01*
X29826241Y-24927349D01*
X29867655Y-24977812D01*
X29867659Y-24977816D01*
X29892237Y-25007764D01*
X29922185Y-25032342D01*
X31715000Y-26825157D01*
X31715001Y-28395476D01*
X31652490Y-28222565D01*
X31592596Y-28110510D01*
X31399267Y-28000338D01*
X30579605Y-28820000D01*
X30593748Y-28834143D01*
X30414143Y-29013748D01*
X30400000Y-28999605D01*
X29580338Y-29819267D01*
X29631300Y-29908695D01*
X29625537Y-29911082D01*
X29357748Y-30090013D01*
X29130013Y-30317748D01*
X28951082Y-30585537D01*
X28827832Y-30883088D01*
X28765000Y-31198967D01*
X28765000Y-31521033D01*
X28827832Y-31836912D01*
X28951082Y-32134463D01*
X29130013Y-32402252D01*
X29357748Y-32629987D01*
X29357767Y-32630000D01*
X29357748Y-32630013D01*
X29130013Y-32857748D01*
X28951082Y-33125537D01*
X28827832Y-33423088D01*
X28765000Y-33738967D01*
X28765000Y-34061033D01*
X28827832Y-34376912D01*
X28951082Y-34674463D01*
X29130013Y-34942252D01*
X29357748Y-35169987D01*
X29625537Y-35348918D01*
X29923088Y-35472168D01*
X30238967Y-35535000D01*
X30561033Y-35535000D01*
X30876912Y-35472168D01*
X31174463Y-35348918D01*
X31442252Y-35169987D01*
X31669987Y-34942252D01*
X31848918Y-34674463D01*
X31972168Y-34376912D01*
X32035000Y-34061033D01*
X32035000Y-33900000D01*
X36857089Y-33900000D01*
X36861928Y-33949131D01*
X36861928Y-34900000D01*
X36874188Y-35024482D01*
X36910498Y-35144180D01*
X36969463Y-35254494D01*
X37048815Y-35351185D01*
X37145506Y-35430537D01*
X37255820Y-35489502D01*
X37375518Y-35525812D01*
X37500000Y-35538072D01*
X39500000Y-35538072D01*
X39531192Y-35535000D01*
X42365001Y-35535000D01*
X42365001Y-37338962D01*
X42365000Y-37338967D01*
X42365000Y-37661033D01*
X42380748Y-37740203D01*
X42388658Y-37820516D01*
X42412084Y-37897742D01*
X42427832Y-37976912D01*
X42458722Y-38051488D01*
X42482149Y-38128715D01*
X42520192Y-38199889D01*
X42551082Y-38274463D01*
X42595926Y-38341577D01*
X42633970Y-38412752D01*
X42685170Y-38475139D01*
X42730013Y-38542252D01*
X42787085Y-38599324D01*
X42838287Y-38661714D01*
X42900677Y-38712916D01*
X42957748Y-38769987D01*
X43024860Y-38814830D01*
X43087249Y-38866031D01*
X43158427Y-38904076D01*
X43225537Y-38948918D01*
X43300107Y-38979806D01*
X43371286Y-39017852D01*
X43448518Y-39041280D01*
X43523088Y-39072168D01*
X43602252Y-39087915D01*
X43679485Y-39111343D01*
X43759806Y-39119254D01*
X43838967Y-39135000D01*
X43919678Y-39135000D01*
X44000000Y-39142911D01*
X44080322Y-39135000D01*
X44161033Y-39135000D01*
X44240193Y-39119254D01*
X44320516Y-39111343D01*
X44397751Y-39087914D01*
X44476912Y-39072168D01*
X44551479Y-39041281D01*
X44628715Y-39017852D01*
X44699898Y-38979804D01*
X44774463Y-38948918D01*
X44841569Y-38904079D01*
X44912752Y-38866031D01*
X44975146Y-38814826D01*
X45042252Y-38769987D01*
X45099319Y-38712920D01*
X45161714Y-38661714D01*
X45212920Y-38599319D01*
X45269987Y-38542252D01*
X45298708Y-38499267D01*
X48180338Y-38499267D01*
X48290510Y-38692596D01*
X48536806Y-38808095D01*
X48800903Y-38873324D01*
X49072651Y-38885778D01*
X49341607Y-38844977D01*
X49597435Y-38752490D01*
X49709490Y-38692596D01*
X49819662Y-38499267D01*
X49000000Y-37679605D01*
X48180338Y-38499267D01*
X45298708Y-38499267D01*
X45314826Y-38475146D01*
X45366031Y-38412752D01*
X45404079Y-38341569D01*
X45448918Y-38274463D01*
X45479804Y-38199898D01*
X45517852Y-38128715D01*
X45541281Y-38051479D01*
X45572168Y-37976912D01*
X45587914Y-37897751D01*
X45611343Y-37820516D01*
X45619254Y-37740193D01*
X45635000Y-37661033D01*
X45635000Y-37572651D01*
X47614222Y-37572651D01*
X47655023Y-37841607D01*
X47747510Y-38097435D01*
X47807404Y-38209490D01*
X48000733Y-38319662D01*
X48820395Y-37500000D01*
X49179605Y-37500000D01*
X49999267Y-38319662D01*
X50192596Y-38209490D01*
X50197390Y-38199267D01*
X81180338Y-38199267D01*
X81290510Y-38392596D01*
X81536806Y-38508095D01*
X81800903Y-38573324D01*
X82072651Y-38585778D01*
X82341607Y-38544977D01*
X82597435Y-38452490D01*
X82709490Y-38392596D01*
X82819662Y-38199267D01*
X88680338Y-38199267D01*
X88790510Y-38392596D01*
X89036806Y-38508095D01*
X89300903Y-38573324D01*
X89572651Y-38585778D01*
X89841607Y-38544977D01*
X90097435Y-38452490D01*
X90209490Y-38392596D01*
X90319662Y-38199267D01*
X89500000Y-37379605D01*
X88680338Y-38199267D01*
X82819662Y-38199267D01*
X82000000Y-37379605D01*
X81180338Y-38199267D01*
X50197390Y-38199267D01*
X50308095Y-37963194D01*
X50373324Y-37699097D01*
X50385778Y-37427349D01*
X50344977Y-37158393D01*
X50294681Y-37019267D01*
X56380338Y-37019267D01*
X56490510Y-37212596D01*
X56736806Y-37328095D01*
X57000903Y-37393324D01*
X57272651Y-37405778D01*
X57541607Y-37364977D01*
X57797435Y-37272490D01*
X57909490Y-37212596D01*
X58019662Y-37019267D01*
X71620338Y-37019267D01*
X71730510Y-37212596D01*
X71976806Y-37328095D01*
X72240903Y-37393324D01*
X72512651Y-37405778D01*
X72781607Y-37364977D01*
X73036989Y-37272651D01*
X80614222Y-37272651D01*
X80655023Y-37541607D01*
X80747510Y-37797435D01*
X80807404Y-37909490D01*
X81000733Y-38019662D01*
X81820395Y-37200000D01*
X82179605Y-37200000D01*
X82999267Y-38019662D01*
X83192596Y-37909490D01*
X83308095Y-37663194D01*
X83373324Y-37399097D01*
X83379118Y-37272651D01*
X88114222Y-37272651D01*
X88155023Y-37541607D01*
X88247510Y-37797435D01*
X88307404Y-37909490D01*
X88500733Y-38019662D01*
X89320395Y-37200000D01*
X89679605Y-37200000D01*
X90499267Y-38019662D01*
X90692596Y-37909490D01*
X90808095Y-37663194D01*
X90873324Y-37399097D01*
X90885778Y-37127349D01*
X90844977Y-36858393D01*
X90752490Y-36602565D01*
X90692596Y-36490510D01*
X90499267Y-36380338D01*
X89679605Y-37200000D01*
X89320395Y-37200000D01*
X88500733Y-36380338D01*
X88307404Y-36490510D01*
X88191905Y-36736806D01*
X88126676Y-37000903D01*
X88114222Y-37272651D01*
X83379118Y-37272651D01*
X83385778Y-37127349D01*
X83344977Y-36858393D01*
X83252490Y-36602565D01*
X83192596Y-36490510D01*
X82999267Y-36380338D01*
X82179605Y-37200000D01*
X81820395Y-37200000D01*
X81000733Y-36380338D01*
X80807404Y-36490510D01*
X80691905Y-36736806D01*
X80626676Y-37000903D01*
X80614222Y-37272651D01*
X73036989Y-37272651D01*
X73037435Y-37272490D01*
X73149490Y-37212596D01*
X73259662Y-37019267D01*
X72440000Y-36199605D01*
X71620338Y-37019267D01*
X58019662Y-37019267D01*
X57200000Y-36199605D01*
X56380338Y-37019267D01*
X50294681Y-37019267D01*
X50252490Y-36902565D01*
X50192596Y-36790510D01*
X49999267Y-36680338D01*
X49179605Y-37500000D01*
X48820395Y-37500000D01*
X48000733Y-36680338D01*
X47807404Y-36790510D01*
X47691905Y-37036806D01*
X47626676Y-37300903D01*
X47614222Y-37572651D01*
X45635000Y-37572651D01*
X45635000Y-36500733D01*
X48180338Y-36500733D01*
X49000000Y-37320395D01*
X49819662Y-36500733D01*
X49709490Y-36307404D01*
X49463194Y-36191905D01*
X49199097Y-36126676D01*
X48927349Y-36114222D01*
X48658393Y-36155023D01*
X48402565Y-36247510D01*
X48290510Y-36307404D01*
X48180338Y-36500733D01*
X45635000Y-36500733D01*
X45635000Y-36092651D01*
X55814222Y-36092651D01*
X55855023Y-36361607D01*
X55947510Y-36617435D01*
X56007404Y-36729490D01*
X56200733Y-36839662D01*
X57020395Y-36020000D01*
X57379605Y-36020000D01*
X58199267Y-36839662D01*
X58392596Y-36729490D01*
X58508095Y-36483194D01*
X58573324Y-36219097D01*
X58579118Y-36092651D01*
X71054222Y-36092651D01*
X71095023Y-36361607D01*
X71187510Y-36617435D01*
X71247404Y-36729490D01*
X71440733Y-36839662D01*
X72260395Y-36020000D01*
X72619605Y-36020000D01*
X73439267Y-36839662D01*
X73632596Y-36729490D01*
X73748095Y-36483194D01*
X73813324Y-36219097D01*
X73814165Y-36200733D01*
X81180338Y-36200733D01*
X82000000Y-37020395D01*
X82819662Y-36200733D01*
X88680338Y-36200733D01*
X89500000Y-37020395D01*
X90319662Y-36200733D01*
X90209490Y-36007404D01*
X89963194Y-35891905D01*
X89699097Y-35826676D01*
X89427349Y-35814222D01*
X89158393Y-35855023D01*
X88902565Y-35947510D01*
X88790510Y-36007404D01*
X88680338Y-36200733D01*
X82819662Y-36200733D01*
X82709490Y-36007404D01*
X82463194Y-35891905D01*
X82199097Y-35826676D01*
X81927349Y-35814222D01*
X81658393Y-35855023D01*
X81402565Y-35947510D01*
X81290510Y-36007404D01*
X81180338Y-36200733D01*
X73814165Y-36200733D01*
X73825778Y-35947349D01*
X73784977Y-35678393D01*
X73692490Y-35422565D01*
X73632596Y-35310510D01*
X73439267Y-35200338D01*
X72619605Y-36020000D01*
X72260395Y-36020000D01*
X71440733Y-35200338D01*
X71247404Y-35310510D01*
X71131905Y-35556806D01*
X71066676Y-35820903D01*
X71054222Y-36092651D01*
X58579118Y-36092651D01*
X58585778Y-35947349D01*
X58544977Y-35678393D01*
X58452490Y-35422565D01*
X58392596Y-35310510D01*
X58199267Y-35200338D01*
X57379605Y-36020000D01*
X57020395Y-36020000D01*
X56200733Y-35200338D01*
X56007404Y-35310510D01*
X55891905Y-35556806D01*
X55826676Y-35820903D01*
X55814222Y-36092651D01*
X45635000Y-36092651D01*
X45635000Y-35020733D01*
X56380338Y-35020733D01*
X57200000Y-35840395D01*
X58019662Y-35020733D01*
X71620338Y-35020733D01*
X72440000Y-35840395D01*
X73259662Y-35020733D01*
X73149490Y-34827404D01*
X72903194Y-34711905D01*
X72639097Y-34646676D01*
X72367349Y-34634222D01*
X72098393Y-34675023D01*
X71842565Y-34767510D01*
X71730510Y-34827404D01*
X71620338Y-35020733D01*
X58019662Y-35020733D01*
X57909490Y-34827404D01*
X57663194Y-34711905D01*
X57399097Y-34646676D01*
X57127349Y-34634222D01*
X56858393Y-34675023D01*
X56602565Y-34767510D01*
X56490510Y-34827404D01*
X56380338Y-35020733D01*
X45635000Y-35020733D01*
X45635000Y-34177239D01*
X45977239Y-33835000D01*
X46730322Y-33835000D01*
X46970516Y-33811343D01*
X47278715Y-33717852D01*
X47562752Y-33566031D01*
X47811714Y-33361714D01*
X48016031Y-33112752D01*
X48100000Y-32955657D01*
X48183969Y-33112752D01*
X48388286Y-33361714D01*
X48637248Y-33566031D01*
X48921285Y-33717852D01*
X49229484Y-33811343D01*
X49469678Y-33835000D01*
X56988693Y-33835000D01*
X57038967Y-33845000D01*
X57119680Y-33845000D01*
X57199999Y-33852911D01*
X57280319Y-33845000D01*
X57361033Y-33845000D01*
X57440201Y-33829253D01*
X57520516Y-33821342D01*
X57597741Y-33797916D01*
X57676912Y-33782168D01*
X57751490Y-33751277D01*
X57828714Y-33727851D01*
X57899886Y-33689809D01*
X57974463Y-33658918D01*
X58041578Y-33614073D01*
X58112752Y-33576030D01*
X58175138Y-33524831D01*
X58242252Y-33479987D01*
X58299328Y-33422911D01*
X58361713Y-33371713D01*
X58412911Y-33309328D01*
X58469987Y-33252252D01*
X58514831Y-33185138D01*
X58566030Y-33122752D01*
X58604073Y-33051578D01*
X58648918Y-32984463D01*
X58679809Y-32909886D01*
X58717851Y-32838714D01*
X58741277Y-32761490D01*
X58772168Y-32686912D01*
X58787916Y-32607741D01*
X58811342Y-32530516D01*
X58819253Y-32450201D01*
X58835000Y-32371033D01*
X58835000Y-32290319D01*
X58842911Y-32209999D01*
X58835000Y-32129680D01*
X58835000Y-32048967D01*
X70805000Y-32048967D01*
X70805000Y-32371033D01*
X70867832Y-32686912D01*
X70991082Y-32984463D01*
X71170013Y-33252252D01*
X71397748Y-33479987D01*
X71665537Y-33658918D01*
X71963088Y-33782168D01*
X72278967Y-33845000D01*
X72601033Y-33845000D01*
X72916912Y-33782168D01*
X73214463Y-33658918D01*
X73482252Y-33479987D01*
X73709987Y-33252252D01*
X73888918Y-32984463D01*
X74012168Y-32686912D01*
X74075000Y-32371033D01*
X74075000Y-32048967D01*
X74012168Y-31733088D01*
X73888918Y-31435537D01*
X73731538Y-31200000D01*
X80361928Y-31200000D01*
X80361928Y-33200000D01*
X80374188Y-33324482D01*
X80410498Y-33444180D01*
X80469463Y-33554494D01*
X80548815Y-33651185D01*
X80645506Y-33730537D01*
X80755820Y-33789502D01*
X80875518Y-33825812D01*
X81000000Y-33838072D01*
X83000000Y-33838072D01*
X83124482Y-33825812D01*
X83244180Y-33789502D01*
X83354494Y-33730537D01*
X83451185Y-33651185D01*
X83530537Y-33554494D01*
X83589502Y-33444180D01*
X83625812Y-33324482D01*
X83638072Y-33200000D01*
X83638072Y-32038967D01*
X87865000Y-32038967D01*
X87865000Y-32361033D01*
X87927832Y-32676912D01*
X88051082Y-32974463D01*
X88230013Y-33242252D01*
X88457748Y-33469987D01*
X88725537Y-33648918D01*
X89023088Y-33772168D01*
X89338967Y-33835000D01*
X89661033Y-33835000D01*
X89976912Y-33772168D01*
X90274463Y-33648918D01*
X90542252Y-33469987D01*
X90769987Y-33242252D01*
X90948918Y-32974463D01*
X91072168Y-32676912D01*
X91135000Y-32361033D01*
X91135000Y-32038967D01*
X91072168Y-31723088D01*
X90948918Y-31425537D01*
X90769987Y-31157748D01*
X90542252Y-30930013D01*
X90274463Y-30751082D01*
X89976912Y-30627832D01*
X89661033Y-30565000D01*
X89338967Y-30565000D01*
X89023088Y-30627832D01*
X88725537Y-30751082D01*
X88457748Y-30930013D01*
X88230013Y-31157748D01*
X88051082Y-31425537D01*
X87927832Y-31723088D01*
X87865000Y-32038967D01*
X83638072Y-32038967D01*
X83638072Y-31200000D01*
X83625812Y-31075518D01*
X83589502Y-30955820D01*
X83530537Y-30845506D01*
X83451185Y-30748815D01*
X83354494Y-30669463D01*
X83244180Y-30610498D01*
X83124482Y-30574188D01*
X83000000Y-30561928D01*
X81000000Y-30561928D01*
X80875518Y-30574188D01*
X80755820Y-30610498D01*
X80645506Y-30669463D01*
X80548815Y-30748815D01*
X80469463Y-30845506D01*
X80410498Y-30955820D01*
X80374188Y-31075518D01*
X80361928Y-31200000D01*
X73731538Y-31200000D01*
X73709987Y-31167748D01*
X73482252Y-30940013D01*
X73214463Y-30761082D01*
X72916912Y-30637832D01*
X72601033Y-30575000D01*
X72278967Y-30575000D01*
X71963088Y-30637832D01*
X71665537Y-30761082D01*
X71397748Y-30940013D01*
X71170013Y-31167748D01*
X70991082Y-31435537D01*
X70867832Y-31733088D01*
X70805000Y-32048967D01*
X58835000Y-32048967D01*
X58819253Y-31969799D01*
X58811342Y-31889484D01*
X58787916Y-31812259D01*
X58772168Y-31733088D01*
X58741277Y-31658510D01*
X58717851Y-31581286D01*
X58679809Y-31510114D01*
X58648918Y-31435537D01*
X58604073Y-31368422D01*
X58566030Y-31297248D01*
X58514832Y-31234863D01*
X58469987Y-31167748D01*
X58402920Y-31100681D01*
X58351714Y-31038286D01*
X58289319Y-30987080D01*
X58242252Y-30940013D01*
X58186905Y-30903031D01*
X58102752Y-30833969D01*
X58006745Y-30782652D01*
X57974463Y-30761082D01*
X57938593Y-30746224D01*
X57818715Y-30682148D01*
X57688643Y-30642691D01*
X57676912Y-30637832D01*
X57664458Y-30635355D01*
X57510516Y-30588657D01*
X57270322Y-30565000D01*
X57270319Y-30565000D01*
X57190000Y-30557089D01*
X57109681Y-30565000D01*
X49469678Y-30565000D01*
X49229484Y-30588657D01*
X48921285Y-30682148D01*
X48637248Y-30833969D01*
X48388286Y-31038286D01*
X48183969Y-31287248D01*
X48100000Y-31444343D01*
X48016031Y-31287248D01*
X47811714Y-31038286D01*
X47562752Y-30833969D01*
X47278715Y-30682148D01*
X46970516Y-30588657D01*
X46730322Y-30565000D01*
X45380322Y-30565000D01*
X45300000Y-30557089D01*
X44979483Y-30588657D01*
X44850341Y-30627832D01*
X44671285Y-30682148D01*
X44387248Y-30833969D01*
X44138286Y-31038286D01*
X44087084Y-31100677D01*
X42922762Y-32265000D01*
X39531192Y-32265000D01*
X39500000Y-32261928D01*
X37500000Y-32261928D01*
X37375518Y-32274188D01*
X37255820Y-32310498D01*
X37145506Y-32369463D01*
X37048815Y-32448815D01*
X36969463Y-32545506D01*
X36910498Y-32655820D01*
X36874188Y-32775518D01*
X36861928Y-32900000D01*
X36861928Y-33850869D01*
X36857089Y-33900000D01*
X32035000Y-33900000D01*
X32035000Y-33738967D01*
X31972168Y-33423088D01*
X31848918Y-33125537D01*
X31669987Y-32857748D01*
X31442252Y-32630013D01*
X31442233Y-32630000D01*
X31442252Y-32629987D01*
X31669987Y-32402252D01*
X31848918Y-32134463D01*
X31972168Y-31836912D01*
X32035000Y-31521033D01*
X32035000Y-31198967D01*
X31974640Y-30895517D01*
X32970890Y-29899267D01*
X37680338Y-29899267D01*
X37790510Y-30092596D01*
X38036806Y-30208095D01*
X38300903Y-30273324D01*
X38572651Y-30285778D01*
X38841607Y-30244977D01*
X39097435Y-30152490D01*
X39209490Y-30092596D01*
X39319662Y-29899267D01*
X38500000Y-29079605D01*
X37680338Y-29899267D01*
X32970890Y-29899267D01*
X33027816Y-29842342D01*
X33057764Y-29817764D01*
X33155862Y-29698233D01*
X33228754Y-29561860D01*
X33273641Y-29413887D01*
X33285000Y-29298561D01*
X33285000Y-29298554D01*
X33288797Y-29260001D01*
X33285000Y-29221448D01*
X33285000Y-28972651D01*
X37114222Y-28972651D01*
X37155023Y-29241607D01*
X37247510Y-29497435D01*
X37307404Y-29609490D01*
X37500733Y-29719662D01*
X38320395Y-28900000D01*
X38679605Y-28900000D01*
X39499267Y-29719662D01*
X39692596Y-29609490D01*
X39808095Y-29363194D01*
X39873324Y-29099097D01*
X39885778Y-28827349D01*
X39844977Y-28558393D01*
X39752490Y-28302565D01*
X39692596Y-28190510D01*
X39499267Y-28080338D01*
X38679605Y-28900000D01*
X38320395Y-28900000D01*
X37500733Y-28080338D01*
X37307404Y-28190510D01*
X37191905Y-28436806D01*
X37126676Y-28700903D01*
X37114222Y-28972651D01*
X33285000Y-28972651D01*
X33285000Y-27900733D01*
X37680338Y-27900733D01*
X38500000Y-28720395D01*
X39319662Y-27900733D01*
X39209490Y-27707404D01*
X38963194Y-27591905D01*
X38699097Y-27526676D01*
X38427349Y-27514222D01*
X38158393Y-27555023D01*
X37902565Y-27647510D01*
X37790510Y-27707404D01*
X37680338Y-27900733D01*
X33285000Y-27900733D01*
X33285000Y-26538556D01*
X33288797Y-26500000D01*
X33285000Y-26461440D01*
X33285000Y-26461439D01*
X33277548Y-26385778D01*
X33273642Y-26346113D01*
X33228754Y-26198140D01*
X33225791Y-26192596D01*
X33155862Y-26061767D01*
X33057764Y-25942236D01*
X33027811Y-25917654D01*
X31235000Y-24124843D01*
X31235000Y-23125157D01*
X31575157Y-22785000D01*
X31603856Y-22785000D01*
X31635393Y-22801857D01*
X31569000Y-22868250D01*
X31567157Y-22900000D01*
X31574513Y-22974689D01*
X31596299Y-23046508D01*
X31631678Y-23112696D01*
X31679289Y-23170711D01*
X31737304Y-23218322D01*
X31803492Y-23253701D01*
X31875311Y-23275487D01*
X31950000Y-23282843D01*
X32727750Y-23281000D01*
X32823000Y-23185750D01*
X32823000Y-22888072D01*
X33077000Y-22888072D01*
X33077000Y-23185750D01*
X33172250Y-23281000D01*
X33950000Y-23282843D01*
X34024689Y-23275487D01*
X34096508Y-23253701D01*
X34162696Y-23218322D01*
X34220711Y-23170711D01*
X34268322Y-23112696D01*
X34303701Y-23046508D01*
X34325487Y-22974689D01*
X34332843Y-22900000D01*
X34331000Y-22868250D01*
X34264607Y-22801857D01*
X34304494Y-22780537D01*
X34308801Y-22777002D01*
X34331000Y-22777002D01*
X34331000Y-22758784D01*
X34401185Y-22701185D01*
X34480537Y-22604494D01*
X34539502Y-22494180D01*
X34575812Y-22374482D01*
X34588072Y-22250000D01*
X34588072Y-21750000D01*
X34580685Y-21675000D01*
X34583374Y-21647704D01*
X34698102Y-21695226D01*
X34898061Y-21735000D01*
X35101939Y-21735000D01*
X35301898Y-21695226D01*
X35490256Y-21617205D01*
X35659774Y-21503937D01*
X35803937Y-21359774D01*
X35861928Y-21272984D01*
X35861928Y-21600000D01*
X35869315Y-21675000D01*
X35861928Y-21750000D01*
X35861928Y-22250000D01*
X35874188Y-22374482D01*
X35910498Y-22494180D01*
X35969463Y-22604494D01*
X36048815Y-22701185D01*
X36119000Y-22758784D01*
X36119000Y-22777002D01*
X36141199Y-22777002D01*
X36145506Y-22780537D01*
X36185393Y-22801857D01*
X36119000Y-22868250D01*
X36117157Y-22900000D01*
X36124513Y-22974689D01*
X36146299Y-23046508D01*
X36181678Y-23112696D01*
X36229289Y-23170711D01*
X36287304Y-23218322D01*
X36353492Y-23253701D01*
X36425311Y-23275487D01*
X36500000Y-23282843D01*
X37277750Y-23281000D01*
X37373000Y-23185750D01*
X37373000Y-22888072D01*
X37627000Y-22888072D01*
X37627000Y-23185750D01*
X37722250Y-23281000D01*
X38500000Y-23282843D01*
X38574689Y-23275487D01*
X38646508Y-23253701D01*
X38712696Y-23218322D01*
X38770711Y-23170711D01*
X38818322Y-23112696D01*
X38853701Y-23046508D01*
X38875487Y-22974689D01*
X38882843Y-22900000D01*
X38881000Y-22868250D01*
X38814607Y-22801857D01*
X38846144Y-22785000D01*
X39852687Y-22785000D01*
X39853992Y-22798254D01*
X39904528Y-22964850D01*
X39986595Y-23118386D01*
X40097038Y-23252962D01*
X40231614Y-23363405D01*
X40385150Y-23445472D01*
X40551746Y-23496008D01*
X40725000Y-23513072D01*
X41475000Y-23513072D01*
X41648254Y-23496008D01*
X41814850Y-23445472D01*
X41968386Y-23363405D01*
X42102962Y-23252962D01*
X42213405Y-23118386D01*
X42295472Y-22964850D01*
X42346008Y-22798254D01*
X42363072Y-22625000D01*
X42363072Y-21375000D01*
X42636928Y-21375000D01*
X42636928Y-22625000D01*
X42653992Y-22798254D01*
X42704528Y-22964850D01*
X42786595Y-23118386D01*
X42897038Y-23252962D01*
X43031614Y-23363405D01*
X43185150Y-23445472D01*
X43351746Y-23496008D01*
X43525000Y-23513072D01*
X44275000Y-23513072D01*
X44448254Y-23496008D01*
X44614850Y-23445472D01*
X44768386Y-23363405D01*
X44902962Y-23252962D01*
X45013405Y-23118386D01*
X45084702Y-22985000D01*
X45765129Y-22985000D01*
X45774188Y-23076982D01*
X45810498Y-23196680D01*
X45869463Y-23306994D01*
X45948815Y-23403685D01*
X46045506Y-23483037D01*
X46119751Y-23522722D01*
X46033969Y-23627248D01*
X45882148Y-23911285D01*
X45788657Y-24219484D01*
X45757089Y-24540000D01*
X45788657Y-24860516D01*
X45882148Y-25168715D01*
X46033969Y-25452752D01*
X46238286Y-25701714D01*
X46383921Y-25821233D01*
X46224537Y-25952037D01*
X46026155Y-26193765D01*
X45878745Y-26469551D01*
X45787970Y-26768796D01*
X45757319Y-27080000D01*
X45787970Y-27391204D01*
X45878745Y-27690449D01*
X46026155Y-27966235D01*
X46224537Y-28207963D01*
X46466265Y-28406345D01*
X46742051Y-28553755D01*
X47041296Y-28644530D01*
X47274514Y-28667500D01*
X47525486Y-28667500D01*
X47758704Y-28644530D01*
X48057949Y-28553755D01*
X48333735Y-28406345D01*
X48537684Y-28238967D01*
X55565000Y-28238967D01*
X55565000Y-28561033D01*
X55627832Y-28876912D01*
X55751082Y-29174463D01*
X55930013Y-29442252D01*
X56157748Y-29669987D01*
X56425537Y-29848918D01*
X56723088Y-29972168D01*
X57038967Y-30035000D01*
X57361033Y-30035000D01*
X57676912Y-29972168D01*
X57974463Y-29848918D01*
X58242252Y-29669987D01*
X58469987Y-29442252D01*
X58648918Y-29174463D01*
X58772168Y-28876912D01*
X58835000Y-28561033D01*
X58835000Y-28238967D01*
X70805000Y-28238967D01*
X70805000Y-28561033D01*
X70867832Y-28876912D01*
X70991082Y-29174463D01*
X71170013Y-29442252D01*
X71397748Y-29669987D01*
X71665537Y-29848918D01*
X71963088Y-29972168D01*
X72278967Y-30035000D01*
X72601033Y-30035000D01*
X72916912Y-29972168D01*
X73214463Y-29848918D01*
X73482252Y-29669987D01*
X73709987Y-29442252D01*
X73888918Y-29174463D01*
X74012168Y-28876912D01*
X74075000Y-28561033D01*
X74075000Y-28238967D01*
X74012168Y-27923088D01*
X73888918Y-27625537D01*
X73709987Y-27357748D01*
X73482252Y-27130013D01*
X73214463Y-26951082D01*
X72916912Y-26827832D01*
X72773306Y-26799267D01*
X81180338Y-26799267D01*
X81290510Y-26992596D01*
X81536806Y-27108095D01*
X81800903Y-27173324D01*
X82072651Y-27185778D01*
X82341607Y-27144977D01*
X82597435Y-27052490D01*
X82709490Y-26992596D01*
X82819662Y-26799267D01*
X88780338Y-26799267D01*
X88890510Y-26992596D01*
X89136806Y-27108095D01*
X89400903Y-27173324D01*
X89672651Y-27185778D01*
X89941607Y-27144977D01*
X90197435Y-27052490D01*
X90309490Y-26992596D01*
X90419662Y-26799267D01*
X89600000Y-25979605D01*
X88780338Y-26799267D01*
X82819662Y-26799267D01*
X82000000Y-25979605D01*
X81180338Y-26799267D01*
X72773306Y-26799267D01*
X72601033Y-26765000D01*
X72278967Y-26765000D01*
X71963088Y-26827832D01*
X71665537Y-26951082D01*
X71397748Y-27130013D01*
X71170013Y-27357748D01*
X70991082Y-27625537D01*
X70867832Y-27923088D01*
X70805000Y-28238967D01*
X58835000Y-28238967D01*
X58772168Y-27923088D01*
X58648918Y-27625537D01*
X58469987Y-27357748D01*
X58242252Y-27130013D01*
X57974463Y-26951082D01*
X57676912Y-26827832D01*
X57361033Y-26765000D01*
X57038967Y-26765000D01*
X56723088Y-26827832D01*
X56425537Y-26951082D01*
X56157748Y-27130013D01*
X55930013Y-27357748D01*
X55751082Y-27625537D01*
X55627832Y-27923088D01*
X55565000Y-28238967D01*
X48537684Y-28238967D01*
X48575463Y-28207963D01*
X48773845Y-27966235D01*
X48921255Y-27690449D01*
X49012030Y-27391204D01*
X49042681Y-27080000D01*
X49012030Y-26768796D01*
X48921255Y-26469551D01*
X48773845Y-26193765D01*
X48758445Y-26175000D01*
X56787599Y-26175000D01*
X56802250Y-26177914D01*
X56879484Y-26201343D01*
X56959807Y-26209254D01*
X57038967Y-26225000D01*
X57119678Y-26225000D01*
X57200000Y-26232911D01*
X57280322Y-26225000D01*
X57361033Y-26225000D01*
X57440193Y-26209254D01*
X57520516Y-26201343D01*
X57597751Y-26177914D01*
X57676912Y-26162168D01*
X57751479Y-26131281D01*
X57828715Y-26107852D01*
X57899896Y-26069805D01*
X57974463Y-26038918D01*
X58041575Y-25994075D01*
X58112752Y-25956030D01*
X58175138Y-25904831D01*
X58242252Y-25859987D01*
X58299328Y-25802911D01*
X58361713Y-25751713D01*
X58412911Y-25689328D01*
X58469987Y-25632252D01*
X58498708Y-25589267D01*
X71620338Y-25589267D01*
X71730510Y-25782596D01*
X71976806Y-25898095D01*
X72240903Y-25963324D01*
X72512651Y-25975778D01*
X72781607Y-25934977D01*
X72954006Y-25872651D01*
X80614222Y-25872651D01*
X80655023Y-26141607D01*
X80747510Y-26397435D01*
X80807404Y-26509490D01*
X81000733Y-26619662D01*
X81820395Y-25800000D01*
X82179605Y-25800000D01*
X82999267Y-26619662D01*
X83192596Y-26509490D01*
X83308095Y-26263194D01*
X83373324Y-25999097D01*
X83379118Y-25872651D01*
X88214222Y-25872651D01*
X88255023Y-26141607D01*
X88347510Y-26397435D01*
X88407404Y-26509490D01*
X88600733Y-26619662D01*
X89420395Y-25800000D01*
X89779605Y-25800000D01*
X90599267Y-26619662D01*
X90792596Y-26509490D01*
X90908095Y-26263194D01*
X90973324Y-25999097D01*
X90985778Y-25727349D01*
X90944977Y-25458393D01*
X90852490Y-25202565D01*
X90792596Y-25090510D01*
X90599267Y-24980338D01*
X89779605Y-25800000D01*
X89420395Y-25800000D01*
X88600733Y-24980338D01*
X88407404Y-25090510D01*
X88291905Y-25336806D01*
X88226676Y-25600903D01*
X88214222Y-25872651D01*
X83379118Y-25872651D01*
X83385778Y-25727349D01*
X83344977Y-25458393D01*
X83252490Y-25202565D01*
X83192596Y-25090510D01*
X82999267Y-24980338D01*
X82179605Y-25800000D01*
X81820395Y-25800000D01*
X81000733Y-24980338D01*
X80807404Y-25090510D01*
X80691905Y-25336806D01*
X80626676Y-25600903D01*
X80614222Y-25872651D01*
X72954006Y-25872651D01*
X73037435Y-25842490D01*
X73149490Y-25782596D01*
X73259662Y-25589267D01*
X72440000Y-24769605D01*
X71620338Y-25589267D01*
X58498708Y-25589267D01*
X58514831Y-25565138D01*
X58566030Y-25502752D01*
X58604075Y-25431575D01*
X58648918Y-25364463D01*
X58679805Y-25289896D01*
X58717852Y-25218715D01*
X58741281Y-25141479D01*
X58772168Y-25066912D01*
X58787914Y-24987751D01*
X58811343Y-24910516D01*
X58819254Y-24830193D01*
X58835000Y-24751033D01*
X58835000Y-24670322D01*
X58835755Y-24662651D01*
X71054222Y-24662651D01*
X71095023Y-24931607D01*
X71187510Y-25187435D01*
X71247404Y-25299490D01*
X71440733Y-25409662D01*
X72260395Y-24590000D01*
X72619605Y-24590000D01*
X73439267Y-25409662D01*
X73632596Y-25299490D01*
X73748095Y-25053194D01*
X73810450Y-24800733D01*
X81180338Y-24800733D01*
X82000000Y-25620395D01*
X82819662Y-24800733D01*
X88780338Y-24800733D01*
X89600000Y-25620395D01*
X90419662Y-24800733D01*
X90309490Y-24607404D01*
X90063194Y-24491905D01*
X89799097Y-24426676D01*
X89527349Y-24414222D01*
X89258393Y-24455023D01*
X89002565Y-24547510D01*
X88890510Y-24607404D01*
X88780338Y-24800733D01*
X82819662Y-24800733D01*
X82709490Y-24607404D01*
X82463194Y-24491905D01*
X82199097Y-24426676D01*
X81927349Y-24414222D01*
X81658393Y-24455023D01*
X81402565Y-24547510D01*
X81290510Y-24607404D01*
X81180338Y-24800733D01*
X73810450Y-24800733D01*
X73813324Y-24789097D01*
X73825778Y-24517349D01*
X73784977Y-24248393D01*
X73692490Y-23992565D01*
X73632596Y-23880510D01*
X73439267Y-23770338D01*
X72619605Y-24590000D01*
X72260395Y-24590000D01*
X71440733Y-23770338D01*
X71247404Y-23880510D01*
X71131905Y-24126806D01*
X71066676Y-24390903D01*
X71054222Y-24662651D01*
X58835755Y-24662651D01*
X58842911Y-24590000D01*
X58835000Y-24509678D01*
X58835000Y-24428967D01*
X58819254Y-24349807D01*
X58811343Y-24269484D01*
X58787914Y-24192250D01*
X58772168Y-24113088D01*
X58741280Y-24038519D01*
X58717852Y-23961286D01*
X58679806Y-23890108D01*
X58648918Y-23815537D01*
X58604074Y-23748424D01*
X58566030Y-23677248D01*
X58514830Y-23614860D01*
X58498709Y-23590733D01*
X71620338Y-23590733D01*
X72440000Y-24410395D01*
X73259662Y-23590733D01*
X73149490Y-23397404D01*
X72903194Y-23281905D01*
X72639097Y-23216676D01*
X72367349Y-23204222D01*
X72098393Y-23245023D01*
X71842565Y-23337510D01*
X71730510Y-23397404D01*
X71620338Y-23590733D01*
X58498709Y-23590733D01*
X58469987Y-23547748D01*
X58362920Y-23440681D01*
X58311714Y-23378286D01*
X58249319Y-23327080D01*
X58242252Y-23320013D01*
X58233942Y-23314460D01*
X58062752Y-23173969D01*
X57778715Y-23022148D01*
X57470516Y-22928657D01*
X57230322Y-22905000D01*
X57230319Y-22905000D01*
X57150000Y-22897089D01*
X57069681Y-22905000D01*
X49038072Y-22905000D01*
X49038072Y-21047500D01*
X49025812Y-20923018D01*
X48989502Y-20803320D01*
X48930537Y-20693006D01*
X48851185Y-20596315D01*
X48754494Y-20516963D01*
X48644180Y-20457998D01*
X48524482Y-20421688D01*
X48400000Y-20409428D01*
X46400000Y-20409428D01*
X46275518Y-20421688D01*
X46155820Y-20457998D01*
X46045506Y-20516963D01*
X45948815Y-20596315D01*
X45869463Y-20693006D01*
X45810498Y-20803320D01*
X45774188Y-20923018D01*
X45765129Y-21015000D01*
X45084702Y-21015000D01*
X45013405Y-20881614D01*
X44902962Y-20747038D01*
X44838223Y-20693909D01*
X44843322Y-20687696D01*
X44878701Y-20621508D01*
X44900487Y-20549689D01*
X44907843Y-20475000D01*
X44906000Y-19822250D01*
X44863750Y-19780000D01*
X55561928Y-19780000D01*
X55561928Y-21780000D01*
X55574188Y-21904482D01*
X55610498Y-22024180D01*
X55669463Y-22134494D01*
X55748815Y-22231185D01*
X55845506Y-22310537D01*
X55955820Y-22369502D01*
X56075518Y-22405812D01*
X56200000Y-22418072D01*
X58200000Y-22418072D01*
X58324482Y-22405812D01*
X58444180Y-22369502D01*
X58554494Y-22310537D01*
X58651185Y-22231185D01*
X58730537Y-22134494D01*
X58789502Y-22024180D01*
X58825812Y-21904482D01*
X58838072Y-21780000D01*
X58838072Y-20618967D01*
X70805000Y-20618967D01*
X70805000Y-20941033D01*
X70867832Y-21256912D01*
X70991082Y-21554463D01*
X71170013Y-21822252D01*
X71397748Y-22049987D01*
X71665537Y-22228918D01*
X71963088Y-22352168D01*
X72278967Y-22415000D01*
X72601033Y-22415000D01*
X72916912Y-22352168D01*
X73214463Y-22228918D01*
X73482252Y-22049987D01*
X73709987Y-21822252D01*
X73888918Y-21554463D01*
X74012168Y-21256912D01*
X74075000Y-20941033D01*
X74075000Y-20618967D01*
X74012168Y-20303088D01*
X73888918Y-20005537D01*
X73751583Y-19800000D01*
X80361928Y-19800000D01*
X80361928Y-21800000D01*
X80374188Y-21924482D01*
X80410498Y-22044180D01*
X80469463Y-22154494D01*
X80548815Y-22251185D01*
X80645506Y-22330537D01*
X80755820Y-22389502D01*
X80875518Y-22425812D01*
X81000000Y-22438072D01*
X83000000Y-22438072D01*
X83124482Y-22425812D01*
X83244180Y-22389502D01*
X83354494Y-22330537D01*
X83451185Y-22251185D01*
X83530537Y-22154494D01*
X83589502Y-22044180D01*
X83625812Y-21924482D01*
X83638072Y-21800000D01*
X83638072Y-20638967D01*
X87965000Y-20638967D01*
X87965000Y-20961033D01*
X88027832Y-21276912D01*
X88151082Y-21574463D01*
X88330013Y-21842252D01*
X88557748Y-22069987D01*
X88825537Y-22248918D01*
X89123088Y-22372168D01*
X89438967Y-22435000D01*
X89761033Y-22435000D01*
X90076912Y-22372168D01*
X90374463Y-22248918D01*
X90642252Y-22069987D01*
X90869987Y-21842252D01*
X91048918Y-21574463D01*
X91172168Y-21276912D01*
X91235000Y-20961033D01*
X91235000Y-20638967D01*
X91172168Y-20323088D01*
X91048918Y-20025537D01*
X90869987Y-19757748D01*
X90642252Y-19530013D01*
X90374463Y-19351082D01*
X90076912Y-19227832D01*
X89761033Y-19165000D01*
X89438967Y-19165000D01*
X89123088Y-19227832D01*
X88825537Y-19351082D01*
X88557748Y-19530013D01*
X88330013Y-19757748D01*
X88151082Y-20025537D01*
X88027832Y-20323088D01*
X87965000Y-20638967D01*
X83638072Y-20638967D01*
X83638072Y-19800000D01*
X83625812Y-19675518D01*
X83589502Y-19555820D01*
X83530537Y-19445506D01*
X83451185Y-19348815D01*
X83354494Y-19269463D01*
X83244180Y-19210498D01*
X83124482Y-19174188D01*
X83000000Y-19161928D01*
X81000000Y-19161928D01*
X80875518Y-19174188D01*
X80755820Y-19210498D01*
X80645506Y-19269463D01*
X80548815Y-19348815D01*
X80469463Y-19445506D01*
X80410498Y-19555820D01*
X80374188Y-19675518D01*
X80361928Y-19800000D01*
X73751583Y-19800000D01*
X73709987Y-19737748D01*
X73482252Y-19510013D01*
X73214463Y-19331082D01*
X72916912Y-19207832D01*
X72601033Y-19145000D01*
X72278967Y-19145000D01*
X71963088Y-19207832D01*
X71665537Y-19331082D01*
X71397748Y-19510013D01*
X71170013Y-19737748D01*
X70991082Y-20005537D01*
X70867832Y-20303088D01*
X70805000Y-20618967D01*
X58838072Y-20618967D01*
X58838072Y-19780000D01*
X58825812Y-19655518D01*
X58789502Y-19535820D01*
X58730537Y-19425506D01*
X58651185Y-19328815D01*
X58554494Y-19249463D01*
X58444180Y-19190498D01*
X58324482Y-19154188D01*
X58200000Y-19141928D01*
X56200000Y-19141928D01*
X56075518Y-19154188D01*
X55955820Y-19190498D01*
X55845506Y-19249463D01*
X55748815Y-19328815D01*
X55669463Y-19425506D01*
X55610498Y-19535820D01*
X55574188Y-19655518D01*
X55561928Y-19780000D01*
X44863750Y-19780000D01*
X44810750Y-19727000D01*
X44027000Y-19727000D01*
X44027000Y-19747000D01*
X43773000Y-19747000D01*
X43773000Y-19727000D01*
X42989250Y-19727000D01*
X42894000Y-19822250D01*
X42892157Y-20475000D01*
X42899513Y-20549689D01*
X42921299Y-20621508D01*
X42956678Y-20687696D01*
X42961777Y-20693909D01*
X42897038Y-20747038D01*
X42786595Y-20881614D01*
X42704528Y-21035150D01*
X42653992Y-21201746D01*
X42636928Y-21375000D01*
X42363072Y-21375000D01*
X42346008Y-21201746D01*
X42295472Y-21035150D01*
X42213405Y-20881614D01*
X42146427Y-20800000D01*
X42213405Y-20718386D01*
X42295472Y-20564850D01*
X42346008Y-20398254D01*
X42363072Y-20225000D01*
X42363072Y-18975000D01*
X42346008Y-18801746D01*
X42322728Y-18725000D01*
X42892157Y-18725000D01*
X42894000Y-19377750D01*
X42989250Y-19473000D01*
X43773000Y-19473000D01*
X43773000Y-18439250D01*
X44027000Y-18439250D01*
X44027000Y-19473000D01*
X44810750Y-19473000D01*
X44906000Y-19377750D01*
X44907843Y-18725000D01*
X44900487Y-18650311D01*
X44878701Y-18578492D01*
X44843322Y-18512304D01*
X44795711Y-18454289D01*
X44737696Y-18406678D01*
X44671508Y-18371299D01*
X44599689Y-18349513D01*
X44525000Y-18342157D01*
X44122250Y-18344000D01*
X44027000Y-18439250D01*
X43773000Y-18439250D01*
X43677750Y-18344000D01*
X43275000Y-18342157D01*
X43200311Y-18349513D01*
X43128492Y-18371299D01*
X43062304Y-18406678D01*
X43004289Y-18454289D01*
X42956678Y-18512304D01*
X42921299Y-18578492D01*
X42899513Y-18650311D01*
X42892157Y-18725000D01*
X42322728Y-18725000D01*
X42295472Y-18635150D01*
X42213405Y-18481614D01*
X42102962Y-18347038D01*
X41968386Y-18236595D01*
X41814850Y-18154528D01*
X41648254Y-18103992D01*
X41475000Y-18086928D01*
X40725000Y-18086928D01*
X40551746Y-18103992D01*
X40385150Y-18154528D01*
X40231614Y-18236595D01*
X40097038Y-18347038D01*
X39986595Y-18481614D01*
X39904528Y-18635150D01*
X39853992Y-18801746D01*
X39851621Y-18825816D01*
X39846113Y-18826359D01*
X39698140Y-18871246D01*
X39561767Y-18944138D01*
X39442236Y-19042236D01*
X39417653Y-19072190D01*
X39172185Y-19317658D01*
X39142237Y-19342236D01*
X39117659Y-19372184D01*
X39117655Y-19372188D01*
X39084690Y-19412356D01*
X39044139Y-19461767D01*
X39038135Y-19473000D01*
X38971246Y-19598141D01*
X38926359Y-19746114D01*
X38911203Y-19900000D01*
X38915001Y-19938562D01*
X38915001Y-19969120D01*
X38854494Y-19919463D01*
X38744180Y-19860498D01*
X38624482Y-19824188D01*
X38500000Y-19811928D01*
X38495258Y-19811928D01*
X38558447Y-19693709D01*
X38608628Y-19528285D01*
X38625572Y-19356250D01*
X38625572Y-18443750D01*
X38608628Y-18271715D01*
X38558447Y-18106291D01*
X38488424Y-17975287D01*
X38503937Y-17959774D01*
X38617205Y-17790256D01*
X38695226Y-17601898D01*
X38735000Y-17401939D01*
X38735000Y-17198061D01*
X38695226Y-16998102D01*
X38617205Y-16809744D01*
X38503937Y-16640226D01*
X38359774Y-16496063D01*
X38190256Y-16382795D01*
X38001898Y-16304774D01*
X37801939Y-16265000D01*
X37598061Y-16265000D01*
X37398102Y-16304774D01*
X37209744Y-16382795D01*
X37040226Y-16496063D01*
X36896063Y-16640226D01*
X36782795Y-16809744D01*
X36773169Y-16832984D01*
X36677041Y-16950116D01*
X36651392Y-16998102D01*
X36585576Y-17121234D01*
X36529253Y-17306907D01*
X36510235Y-17500000D01*
X36515001Y-17548389D01*
X36515001Y-17968880D01*
X36467495Y-18057757D01*
X36466201Y-18053492D01*
X36430822Y-17987304D01*
X36383211Y-17929289D01*
X36325196Y-17881678D01*
X36259008Y-17846299D01*
X36187189Y-17824513D01*
X36112500Y-17817157D01*
X35847250Y-17819000D01*
X35752000Y-17914250D01*
X35752000Y-18773000D01*
X35772000Y-18773000D01*
X35772000Y-19027000D01*
X35752000Y-19027000D01*
X35752000Y-19047000D01*
X35498000Y-19047000D01*
X35498000Y-19027000D01*
X34851750Y-19027000D01*
X34756500Y-19122250D01*
X34754657Y-19600000D01*
X34762013Y-19674689D01*
X34766983Y-19691073D01*
X34698102Y-19704774D01*
X34509744Y-19782795D01*
X34340226Y-19896063D01*
X34321289Y-19915000D01*
X34296144Y-19915000D01*
X34194180Y-19860498D01*
X34074482Y-19824188D01*
X33950000Y-19811928D01*
X31950000Y-19811928D01*
X31825518Y-19824188D01*
X31705820Y-19860498D01*
X31595506Y-19919463D01*
X31498815Y-19998815D01*
X31419463Y-20095506D01*
X31360498Y-20205820D01*
X31324188Y-20325518D01*
X31311928Y-20450000D01*
X31311928Y-20565000D01*
X29634861Y-20565000D01*
X29595472Y-20435150D01*
X29513405Y-20281614D01*
X29402962Y-20147038D01*
X29268386Y-20036595D01*
X29114850Y-19954528D01*
X28948254Y-19903992D01*
X28775000Y-19886928D01*
X28025000Y-19886928D01*
X27851746Y-19903992D01*
X27685150Y-19954528D01*
X27531614Y-20036595D01*
X27397038Y-20147038D01*
X27286595Y-20281614D01*
X27204528Y-20435150D01*
X27153992Y-20601746D01*
X27136928Y-20775000D01*
X26863072Y-20775000D01*
X26846008Y-20601746D01*
X26795472Y-20435150D01*
X26713405Y-20281614D01*
X26602962Y-20147038D01*
X26468386Y-20036595D01*
X26314850Y-19954528D01*
X26148254Y-19903992D01*
X25975000Y-19886928D01*
X25225000Y-19886928D01*
X25051746Y-19903992D01*
X24885150Y-19954528D01*
X24731614Y-20036595D01*
X24597038Y-20147038D01*
X24486595Y-20281614D01*
X24404528Y-20435150D01*
X24353992Y-20601746D01*
X24336928Y-20775000D01*
X21348559Y-20775000D01*
X21348918Y-20774463D01*
X21379806Y-20699894D01*
X21417851Y-20628716D01*
X21441279Y-20551485D01*
X21472168Y-20476912D01*
X21487915Y-20397744D01*
X21511342Y-20320517D01*
X21519253Y-20240200D01*
X21535000Y-20161033D01*
X21535000Y-20080320D01*
X21542911Y-20000001D01*
X21535000Y-19919681D01*
X21535000Y-19838967D01*
X21519253Y-19759799D01*
X21511342Y-19679484D01*
X21487916Y-19602259D01*
X21472168Y-19523088D01*
X21441277Y-19448510D01*
X21417851Y-19371286D01*
X21379809Y-19300114D01*
X21348918Y-19225537D01*
X21304073Y-19158422D01*
X21266030Y-19087248D01*
X21214831Y-19024862D01*
X21169987Y-18957748D01*
X21112911Y-18900672D01*
X21061713Y-18838287D01*
X20999328Y-18787089D01*
X20942252Y-18730013D01*
X20875138Y-18685169D01*
X20812752Y-18633970D01*
X20741578Y-18595927D01*
X20674463Y-18551082D01*
X20599886Y-18520191D01*
X20528714Y-18482149D01*
X20451490Y-18458723D01*
X20376912Y-18427832D01*
X20297741Y-18412084D01*
X20220516Y-18388658D01*
X20140201Y-18380747D01*
X20061033Y-18365000D01*
X19980319Y-18365000D01*
X19899999Y-18357089D01*
X19819680Y-18365000D01*
X19738967Y-18365000D01*
X19659800Y-18380747D01*
X19579483Y-18388658D01*
X19502256Y-18412085D01*
X19423088Y-18427832D01*
X19348515Y-18458721D01*
X19271284Y-18482149D01*
X19200106Y-18520194D01*
X19125537Y-18551082D01*
X19058427Y-18595923D01*
X18987247Y-18633970D01*
X18924857Y-18685172D01*
X18857748Y-18730013D01*
X18800676Y-18787085D01*
X15900682Y-21687080D01*
X15838287Y-21738286D01*
X15660000Y-21955530D01*
X15660000Y-18200000D01*
X34754657Y-18200000D01*
X34756500Y-18677750D01*
X34851750Y-18773000D01*
X35498000Y-18773000D01*
X35498000Y-17914250D01*
X35402750Y-17819000D01*
X35137500Y-17817157D01*
X35062811Y-17824513D01*
X34990992Y-17846299D01*
X34924804Y-17881678D01*
X34866789Y-17929289D01*
X34819178Y-17987304D01*
X34783799Y-18053492D01*
X34762013Y-18125311D01*
X34754657Y-18200000D01*
X15660000Y-18200000D01*
X15660000Y-15660000D01*
X93340001Y-15660000D01*
X93340000Y-40340000D01*
G37*
X93340000Y-40340000D02*
X15660000Y-40340000D01*
X15660000Y-31944470D01*
X15838286Y-32161714D01*
X15900687Y-32212925D01*
X18087080Y-34399318D01*
X18138286Y-34461714D01*
X18201126Y-34513285D01*
X18210498Y-34544180D01*
X18269463Y-34654494D01*
X18348815Y-34751185D01*
X18445506Y-34830537D01*
X18555820Y-34889502D01*
X18675518Y-34925812D01*
X18800000Y-34938072D01*
X19250869Y-34938072D01*
X19299999Y-34942911D01*
X19349129Y-34938072D01*
X20800000Y-34938072D01*
X20924482Y-34925812D01*
X21044180Y-34889502D01*
X21154494Y-34830537D01*
X21251185Y-34751185D01*
X21330537Y-34654494D01*
X21389502Y-34544180D01*
X21425812Y-34424482D01*
X21438072Y-34300000D01*
X21438072Y-34299267D01*
X23980338Y-34299267D01*
X24090510Y-34492596D01*
X24336806Y-34608095D01*
X24600903Y-34673324D01*
X24872651Y-34685778D01*
X25141607Y-34644977D01*
X25397435Y-34552490D01*
X25509490Y-34492596D01*
X25619662Y-34299267D01*
X24800000Y-33479605D01*
X23980338Y-34299267D01*
X21438072Y-34299267D01*
X21438072Y-33372651D01*
X23414222Y-33372651D01*
X23455023Y-33641607D01*
X23547510Y-33897435D01*
X23607404Y-34009490D01*
X23800733Y-34119662D01*
X24620395Y-33300000D01*
X24979605Y-33300000D01*
X25799267Y-34119662D01*
X25992596Y-34009490D01*
X26108095Y-33763194D01*
X26173324Y-33499097D01*
X26185778Y-33227349D01*
X26144977Y-32958393D01*
X26052490Y-32702565D01*
X25992596Y-32590510D01*
X25799267Y-32480338D01*
X24979605Y-33300000D01*
X24620395Y-33300000D01*
X23800733Y-32480338D01*
X23607404Y-32590510D01*
X23491905Y-32836806D01*
X23426676Y-33100903D01*
X23414222Y-33372651D01*
X21438072Y-33372651D01*
X21438072Y-33349131D01*
X21442911Y-33300000D01*
X21438072Y-33250869D01*
X21438072Y-32300733D01*
X23980338Y-32300733D01*
X24800000Y-33120395D01*
X25619662Y-32300733D01*
X25509490Y-32107404D01*
X25263194Y-31991905D01*
X24999097Y-31926676D01*
X24727349Y-31914222D01*
X24458393Y-31955023D01*
X24202565Y-32047510D01*
X24090510Y-32107404D01*
X23980338Y-32300733D01*
X21438072Y-32300733D01*
X21438072Y-32300000D01*
X21425812Y-32175518D01*
X21389502Y-32055820D01*
X21330537Y-31945506D01*
X21251185Y-31848815D01*
X21154494Y-31769463D01*
X21044180Y-31710498D01*
X20924482Y-31674188D01*
X20800000Y-31661928D01*
X19974167Y-31661928D01*
X18635000Y-30322762D01*
X18635000Y-28892651D01*
X29014222Y-28892651D01*
X29055023Y-29161607D01*
X29147510Y-29417435D01*
X29207404Y-29529490D01*
X29400733Y-29639662D01*
X30220395Y-28820000D01*
X29400733Y-28000338D01*
X29207404Y-28110510D01*
X29091905Y-28356806D01*
X29026676Y-28620903D01*
X29014222Y-28892651D01*
X18635000Y-28892651D01*
X18635000Y-27820733D01*
X29580338Y-27820733D01*
X30400000Y-28640395D01*
X31219662Y-27820733D01*
X31109490Y-27627404D01*
X30863194Y-27511905D01*
X30599097Y-27446676D01*
X30327349Y-27434222D01*
X30058393Y-27475023D01*
X29802565Y-27567510D01*
X29690510Y-27627404D01*
X29580338Y-27820733D01*
X18635000Y-27820733D01*
X18635000Y-25999267D01*
X19080338Y-25999267D01*
X19190510Y-26192596D01*
X19436806Y-26308095D01*
X19700903Y-26373324D01*
X19972651Y-26385778D01*
X20241607Y-26344977D01*
X20497435Y-26252490D01*
X20609490Y-26192596D01*
X20719662Y-25999267D01*
X19900000Y-25179605D01*
X19080338Y-25999267D01*
X18635000Y-25999267D01*
X18635000Y-25562831D01*
X18647510Y-25597435D01*
X18707404Y-25709490D01*
X18900733Y-25819662D01*
X19720395Y-25000000D01*
X20079605Y-25000000D01*
X20899267Y-25819662D01*
X21092596Y-25709490D01*
X21208095Y-25463194D01*
X21273324Y-25199097D01*
X21285778Y-24927349D01*
X21244977Y-24658393D01*
X21152490Y-24402565D01*
X21092596Y-24290510D01*
X20899267Y-24180338D01*
X20079605Y-25000000D01*
X19720395Y-25000000D01*
X18900733Y-24180338D01*
X18707404Y-24290510D01*
X18635000Y-24444908D01*
X18635000Y-24000733D01*
X19080338Y-24000733D01*
X19900000Y-24820395D01*
X20719662Y-24000733D01*
X20609490Y-23807404D01*
X20363194Y-23691905D01*
X20099097Y-23626676D01*
X19827349Y-23614222D01*
X19558393Y-23655023D01*
X19302565Y-23747510D01*
X19190510Y-23807404D01*
X19080338Y-24000733D01*
X18635000Y-24000733D01*
X18635000Y-23577238D01*
X21112915Y-21099324D01*
X21169987Y-21042252D01*
X21214828Y-20975143D01*
X21266030Y-20912753D01*
X21304077Y-20841573D01*
X21348559Y-20775000D01*
X24336928Y-20775000D01*
X24336928Y-22025000D01*
X24353992Y-22198254D01*
X24404528Y-22364850D01*
X24486595Y-22518386D01*
X24553573Y-22600000D01*
X24486595Y-22681614D01*
X24404528Y-22835150D01*
X24353992Y-23001746D01*
X24336928Y-23175000D01*
X24336928Y-24425000D01*
X24353992Y-24598254D01*
X24404528Y-24764850D01*
X24486595Y-24918386D01*
X24597038Y-25052962D01*
X24731614Y-25163405D01*
X24885150Y-25245472D01*
X25051746Y-25296008D01*
X25225000Y-25313072D01*
X25975000Y-25313072D01*
X26148254Y-25296008D01*
X26314850Y-25245472D01*
X26468386Y-25163405D01*
X26602962Y-25052962D01*
X26713405Y-24918386D01*
X26795472Y-24764850D01*
X26822727Y-24675000D01*
X27392157Y-24675000D01*
X27399513Y-24749689D01*
X27421299Y-24821508D01*
X27456678Y-24887696D01*
X27504289Y-24945711D01*
X27562304Y-24993322D01*
X27628492Y-25028701D01*
X27700311Y-25050487D01*
X27775000Y-25057843D01*
X28177750Y-25056000D01*
X28273000Y-24960750D01*
X28273000Y-23927000D01*
X28527000Y-23927000D01*
X28527000Y-24960750D01*
X28622250Y-25056000D01*
X29025000Y-25057843D01*
X29099689Y-25050487D01*
X29171508Y-25028701D01*
X29237696Y-24993322D01*
X29295711Y-24945711D01*
X29343322Y-24887696D01*
X29378701Y-24821508D01*
X29400487Y-24749689D01*
X29407843Y-24675000D01*
X29406000Y-24022250D01*
X29310750Y-23927000D01*
X28527000Y-23927000D01*
X28273000Y-23927000D01*
X27489250Y-23927000D01*
X27394000Y-24022250D01*
X27392157Y-24675000D01*
X26822727Y-24675000D01*
X26846008Y-24598254D01*
X26863072Y-24425000D01*
X26863072Y-23175000D01*
X26846008Y-23001746D01*
X26795472Y-22835150D01*
X26713405Y-22681614D01*
X26646427Y-22600000D01*
X26713405Y-22518386D01*
X26795472Y-22364850D01*
X26846008Y-22198254D01*
X26863072Y-22025000D01*
X26863072Y-20775000D01*
X27136928Y-20775000D01*
X27136928Y-22025000D01*
X27153992Y-22198254D01*
X27204528Y-22364850D01*
X27286595Y-22518386D01*
X27397038Y-22652962D01*
X27461777Y-22706091D01*
X27456678Y-22712304D01*
X27421299Y-22778492D01*
X27399513Y-22850311D01*
X27392157Y-22925000D01*
X27394000Y-23577750D01*
X27489250Y-23673000D01*
X28273000Y-23673000D01*
X28273000Y-23653000D01*
X28527000Y-23653000D01*
X28527000Y-23673000D01*
X29310750Y-23673000D01*
X29406000Y-23577750D01*
X29407843Y-22925000D01*
X29400487Y-22850311D01*
X29378701Y-22778492D01*
X29343322Y-22712304D01*
X29338223Y-22706091D01*
X29402962Y-22652962D01*
X29513405Y-22518386D01*
X29595472Y-22364850D01*
X29646008Y-22198254D01*
X29648379Y-22174184D01*
X29653887Y-22173641D01*
X29781270Y-22135000D01*
X30004843Y-22135000D01*
X29922190Y-22217653D01*
X29892236Y-22242236D01*
X29794138Y-22361768D01*
X29721246Y-22498141D01*
X29676359Y-22646114D01*
X29665000Y-22761440D01*
X29665000Y-22761447D01*
X29661203Y-22800000D01*
X29665000Y-22838553D01*
X29665001Y-24411438D01*
X29661203Y-24450000D01*
X29676359Y-24603886D01*
X29721246Y-24751859D01*
X29741150Y-24789097D01*
X29794139Y-24888233D01*
X29826241Y-24927349D01*
X29867655Y-24977812D01*
X29867659Y-24977816D01*
X29892237Y-25007764D01*
X29922185Y-25032342D01*
X31715000Y-26825157D01*
X31715001Y-28395476D01*
X31652490Y-28222565D01*
X31592596Y-28110510D01*
X31399267Y-28000338D01*
X30579605Y-28820000D01*
X30593748Y-28834143D01*
X30414143Y-29013748D01*
X30400000Y-28999605D01*
X29580338Y-29819267D01*
X29631300Y-29908695D01*
X29625537Y-29911082D01*
X29357748Y-30090013D01*
X29130013Y-30317748D01*
X28951082Y-30585537D01*
X28827832Y-30883088D01*
X28765000Y-31198967D01*
X28765000Y-31521033D01*
X28827832Y-31836912D01*
X28951082Y-32134463D01*
X29130013Y-32402252D01*
X29357748Y-32629987D01*
X29357767Y-32630000D01*
X29357748Y-32630013D01*
X29130013Y-32857748D01*
X28951082Y-33125537D01*
X28827832Y-33423088D01*
X28765000Y-33738967D01*
X28765000Y-34061033D01*
X28827832Y-34376912D01*
X28951082Y-34674463D01*
X29130013Y-34942252D01*
X29357748Y-35169987D01*
X29625537Y-35348918D01*
X29923088Y-35472168D01*
X30238967Y-35535000D01*
X30561033Y-35535000D01*
X30876912Y-35472168D01*
X31174463Y-35348918D01*
X31442252Y-35169987D01*
X31669987Y-34942252D01*
X31848918Y-34674463D01*
X31972168Y-34376912D01*
X32035000Y-34061033D01*
X32035000Y-33900000D01*
X36857089Y-33900000D01*
X36861928Y-33949131D01*
X36861928Y-34900000D01*
X36874188Y-35024482D01*
X36910498Y-35144180D01*
X36969463Y-35254494D01*
X37048815Y-35351185D01*
X37145506Y-35430537D01*
X37255820Y-35489502D01*
X37375518Y-35525812D01*
X37500000Y-35538072D01*
X39500000Y-35538072D01*
X39531192Y-35535000D01*
X42365001Y-35535000D01*
X42365001Y-37338962D01*
X42365000Y-37338967D01*
X42365000Y-37661033D01*
X42380748Y-37740203D01*
X42388658Y-37820516D01*
X42412084Y-37897742D01*
X42427832Y-37976912D01*
X42458722Y-38051488D01*
X42482149Y-38128715D01*
X42520192Y-38199889D01*
X42551082Y-38274463D01*
X42595926Y-38341577D01*
X42633970Y-38412752D01*
X42685170Y-38475139D01*
X42730013Y-38542252D01*
X42787085Y-38599324D01*
X42838287Y-38661714D01*
X42900677Y-38712916D01*
X42957748Y-38769987D01*
X43024860Y-38814830D01*
X43087249Y-38866031D01*
X43158427Y-38904076D01*
X43225537Y-38948918D01*
X43300107Y-38979806D01*
X43371286Y-39017852D01*
X43448518Y-39041280D01*
X43523088Y-39072168D01*
X43602252Y-39087915D01*
X43679485Y-39111343D01*
X43759806Y-39119254D01*
X43838967Y-39135000D01*
X43919678Y-39135000D01*
X44000000Y-39142911D01*
X44080322Y-39135000D01*
X44161033Y-39135000D01*
X44240193Y-39119254D01*
X44320516Y-39111343D01*
X44397751Y-39087914D01*
X44476912Y-39072168D01*
X44551479Y-39041281D01*
X44628715Y-39017852D01*
X44699898Y-38979804D01*
X44774463Y-38948918D01*
X44841569Y-38904079D01*
X44912752Y-38866031D01*
X44975146Y-38814826D01*
X45042252Y-38769987D01*
X45099319Y-38712920D01*
X45161714Y-38661714D01*
X45212920Y-38599319D01*
X45269987Y-38542252D01*
X45298708Y-38499267D01*
X48180338Y-38499267D01*
X48290510Y-38692596D01*
X48536806Y-38808095D01*
X48800903Y-38873324D01*
X49072651Y-38885778D01*
X49341607Y-38844977D01*
X49597435Y-38752490D01*
X49709490Y-38692596D01*
X49819662Y-38499267D01*
X49000000Y-37679605D01*
X48180338Y-38499267D01*
X45298708Y-38499267D01*
X45314826Y-38475146D01*
X45366031Y-38412752D01*
X45404079Y-38341569D01*
X45448918Y-38274463D01*
X45479804Y-38199898D01*
X45517852Y-38128715D01*
X45541281Y-38051479D01*
X45572168Y-37976912D01*
X45587914Y-37897751D01*
X45611343Y-37820516D01*
X45619254Y-37740193D01*
X45635000Y-37661033D01*
X45635000Y-37572651D01*
X47614222Y-37572651D01*
X47655023Y-37841607D01*
X47747510Y-38097435D01*
X47807404Y-38209490D01*
X48000733Y-38319662D01*
X48820395Y-37500000D01*
X49179605Y-37500000D01*
X49999267Y-38319662D01*
X50192596Y-38209490D01*
X50197390Y-38199267D01*
X81180338Y-38199267D01*
X81290510Y-38392596D01*
X81536806Y-38508095D01*
X81800903Y-38573324D01*
X82072651Y-38585778D01*
X82341607Y-38544977D01*
X82597435Y-38452490D01*
X82709490Y-38392596D01*
X82819662Y-38199267D01*
X88680338Y-38199267D01*
X88790510Y-38392596D01*
X89036806Y-38508095D01*
X89300903Y-38573324D01*
X89572651Y-38585778D01*
X89841607Y-38544977D01*
X90097435Y-38452490D01*
X90209490Y-38392596D01*
X90319662Y-38199267D01*
X89500000Y-37379605D01*
X88680338Y-38199267D01*
X82819662Y-38199267D01*
X82000000Y-37379605D01*
X81180338Y-38199267D01*
X50197390Y-38199267D01*
X50308095Y-37963194D01*
X50373324Y-37699097D01*
X50385778Y-37427349D01*
X50344977Y-37158393D01*
X50294681Y-37019267D01*
X56380338Y-37019267D01*
X56490510Y-37212596D01*
X56736806Y-37328095D01*
X57000903Y-37393324D01*
X57272651Y-37405778D01*
X57541607Y-37364977D01*
X57797435Y-37272490D01*
X57909490Y-37212596D01*
X58019662Y-37019267D01*
X71620338Y-37019267D01*
X71730510Y-37212596D01*
X71976806Y-37328095D01*
X72240903Y-37393324D01*
X72512651Y-37405778D01*
X72781607Y-37364977D01*
X73036989Y-37272651D01*
X80614222Y-37272651D01*
X80655023Y-37541607D01*
X80747510Y-37797435D01*
X80807404Y-37909490D01*
X81000733Y-38019662D01*
X81820395Y-37200000D01*
X82179605Y-37200000D01*
X82999267Y-38019662D01*
X83192596Y-37909490D01*
X83308095Y-37663194D01*
X83373324Y-37399097D01*
X83379118Y-37272651D01*
X88114222Y-37272651D01*
X88155023Y-37541607D01*
X88247510Y-37797435D01*
X88307404Y-37909490D01*
X88500733Y-38019662D01*
X89320395Y-37200000D01*
X89679605Y-37200000D01*
X90499267Y-38019662D01*
X90692596Y-37909490D01*
X90808095Y-37663194D01*
X90873324Y-37399097D01*
X90885778Y-37127349D01*
X90844977Y-36858393D01*
X90752490Y-36602565D01*
X90692596Y-36490510D01*
X90499267Y-36380338D01*
X89679605Y-37200000D01*
X89320395Y-37200000D01*
X88500733Y-36380338D01*
X88307404Y-36490510D01*
X88191905Y-36736806D01*
X88126676Y-37000903D01*
X88114222Y-37272651D01*
X83379118Y-37272651D01*
X83385778Y-37127349D01*
X83344977Y-36858393D01*
X83252490Y-36602565D01*
X83192596Y-36490510D01*
X82999267Y-36380338D01*
X82179605Y-37200000D01*
X81820395Y-37200000D01*
X81000733Y-36380338D01*
X80807404Y-36490510D01*
X80691905Y-36736806D01*
X80626676Y-37000903D01*
X80614222Y-37272651D01*
X73036989Y-37272651D01*
X73037435Y-37272490D01*
X73149490Y-37212596D01*
X73259662Y-37019267D01*
X72440000Y-36199605D01*
X71620338Y-37019267D01*
X58019662Y-37019267D01*
X57200000Y-36199605D01*
X56380338Y-37019267D01*
X50294681Y-37019267D01*
X50252490Y-36902565D01*
X50192596Y-36790510D01*
X49999267Y-36680338D01*
X49179605Y-37500000D01*
X48820395Y-37500000D01*
X48000733Y-36680338D01*
X47807404Y-36790510D01*
X47691905Y-37036806D01*
X47626676Y-37300903D01*
X47614222Y-37572651D01*
X45635000Y-37572651D01*
X45635000Y-36500733D01*
X48180338Y-36500733D01*
X49000000Y-37320395D01*
X49819662Y-36500733D01*
X49709490Y-36307404D01*
X49463194Y-36191905D01*
X49199097Y-36126676D01*
X48927349Y-36114222D01*
X48658393Y-36155023D01*
X48402565Y-36247510D01*
X48290510Y-36307404D01*
X48180338Y-36500733D01*
X45635000Y-36500733D01*
X45635000Y-36092651D01*
X55814222Y-36092651D01*
X55855023Y-36361607D01*
X55947510Y-36617435D01*
X56007404Y-36729490D01*
X56200733Y-36839662D01*
X57020395Y-36020000D01*
X57379605Y-36020000D01*
X58199267Y-36839662D01*
X58392596Y-36729490D01*
X58508095Y-36483194D01*
X58573324Y-36219097D01*
X58579118Y-36092651D01*
X71054222Y-36092651D01*
X71095023Y-36361607D01*
X71187510Y-36617435D01*
X71247404Y-36729490D01*
X71440733Y-36839662D01*
X72260395Y-36020000D01*
X72619605Y-36020000D01*
X73439267Y-36839662D01*
X73632596Y-36729490D01*
X73748095Y-36483194D01*
X73813324Y-36219097D01*
X73814165Y-36200733D01*
X81180338Y-36200733D01*
X82000000Y-37020395D01*
X82819662Y-36200733D01*
X88680338Y-36200733D01*
X89500000Y-37020395D01*
X90319662Y-36200733D01*
X90209490Y-36007404D01*
X89963194Y-35891905D01*
X89699097Y-35826676D01*
X89427349Y-35814222D01*
X89158393Y-35855023D01*
X88902565Y-35947510D01*
X88790510Y-36007404D01*
X88680338Y-36200733D01*
X82819662Y-36200733D01*
X82709490Y-36007404D01*
X82463194Y-35891905D01*
X82199097Y-35826676D01*
X81927349Y-35814222D01*
X81658393Y-35855023D01*
X81402565Y-35947510D01*
X81290510Y-36007404D01*
X81180338Y-36200733D01*
X73814165Y-36200733D01*
X73825778Y-35947349D01*
X73784977Y-35678393D01*
X73692490Y-35422565D01*
X73632596Y-35310510D01*
X73439267Y-35200338D01*
X72619605Y-36020000D01*
X72260395Y-36020000D01*
X71440733Y-35200338D01*
X71247404Y-35310510D01*
X71131905Y-35556806D01*
X71066676Y-35820903D01*
X71054222Y-36092651D01*
X58579118Y-36092651D01*
X58585778Y-35947349D01*
X58544977Y-35678393D01*
X58452490Y-35422565D01*
X58392596Y-35310510D01*
X58199267Y-35200338D01*
X57379605Y-36020000D01*
X57020395Y-36020000D01*
X56200733Y-35200338D01*
X56007404Y-35310510D01*
X55891905Y-35556806D01*
X55826676Y-35820903D01*
X55814222Y-36092651D01*
X45635000Y-36092651D01*
X45635000Y-35020733D01*
X56380338Y-35020733D01*
X57200000Y-35840395D01*
X58019662Y-35020733D01*
X71620338Y-35020733D01*
X72440000Y-35840395D01*
X73259662Y-35020733D01*
X73149490Y-34827404D01*
X72903194Y-34711905D01*
X72639097Y-34646676D01*
X72367349Y-34634222D01*
X72098393Y-34675023D01*
X71842565Y-34767510D01*
X71730510Y-34827404D01*
X71620338Y-35020733D01*
X58019662Y-35020733D01*
X57909490Y-34827404D01*
X57663194Y-34711905D01*
X57399097Y-34646676D01*
X57127349Y-34634222D01*
X56858393Y-34675023D01*
X56602565Y-34767510D01*
X56490510Y-34827404D01*
X56380338Y-35020733D01*
X45635000Y-35020733D01*
X45635000Y-34177239D01*
X45977239Y-33835000D01*
X46730322Y-33835000D01*
X46970516Y-33811343D01*
X47278715Y-33717852D01*
X47562752Y-33566031D01*
X47811714Y-33361714D01*
X48016031Y-33112752D01*
X48100000Y-32955657D01*
X48183969Y-33112752D01*
X48388286Y-33361714D01*
X48637248Y-33566031D01*
X48921285Y-33717852D01*
X49229484Y-33811343D01*
X49469678Y-33835000D01*
X56988693Y-33835000D01*
X57038967Y-33845000D01*
X57119680Y-33845000D01*
X57199999Y-33852911D01*
X57280319Y-33845000D01*
X57361033Y-33845000D01*
X57440201Y-33829253D01*
X57520516Y-33821342D01*
X57597741Y-33797916D01*
X57676912Y-33782168D01*
X57751490Y-33751277D01*
X57828714Y-33727851D01*
X57899886Y-33689809D01*
X57974463Y-33658918D01*
X58041578Y-33614073D01*
X58112752Y-33576030D01*
X58175138Y-33524831D01*
X58242252Y-33479987D01*
X58299328Y-33422911D01*
X58361713Y-33371713D01*
X58412911Y-33309328D01*
X58469987Y-33252252D01*
X58514831Y-33185138D01*
X58566030Y-33122752D01*
X58604073Y-33051578D01*
X58648918Y-32984463D01*
X58679809Y-32909886D01*
X58717851Y-32838714D01*
X58741277Y-32761490D01*
X58772168Y-32686912D01*
X58787916Y-32607741D01*
X58811342Y-32530516D01*
X58819253Y-32450201D01*
X58835000Y-32371033D01*
X58835000Y-32290319D01*
X58842911Y-32209999D01*
X58835000Y-32129680D01*
X58835000Y-32048967D01*
X70805000Y-32048967D01*
X70805000Y-32371033D01*
X70867832Y-32686912D01*
X70991082Y-32984463D01*
X71170013Y-33252252D01*
X71397748Y-33479987D01*
X71665537Y-33658918D01*
X71963088Y-33782168D01*
X72278967Y-33845000D01*
X72601033Y-33845000D01*
X72916912Y-33782168D01*
X73214463Y-33658918D01*
X73482252Y-33479987D01*
X73709987Y-33252252D01*
X73888918Y-32984463D01*
X74012168Y-32686912D01*
X74075000Y-32371033D01*
X74075000Y-32048967D01*
X74012168Y-31733088D01*
X73888918Y-31435537D01*
X73731538Y-31200000D01*
X80361928Y-31200000D01*
X80361928Y-33200000D01*
X80374188Y-33324482D01*
X80410498Y-33444180D01*
X80469463Y-33554494D01*
X80548815Y-33651185D01*
X80645506Y-33730537D01*
X80755820Y-33789502D01*
X80875518Y-33825812D01*
X81000000Y-33838072D01*
X83000000Y-33838072D01*
X83124482Y-33825812D01*
X83244180Y-33789502D01*
X83354494Y-33730537D01*
X83451185Y-33651185D01*
X83530537Y-33554494D01*
X83589502Y-33444180D01*
X83625812Y-33324482D01*
X83638072Y-33200000D01*
X83638072Y-32038967D01*
X87865000Y-32038967D01*
X87865000Y-32361033D01*
X87927832Y-32676912D01*
X88051082Y-32974463D01*
X88230013Y-33242252D01*
X88457748Y-33469987D01*
X88725537Y-33648918D01*
X89023088Y-33772168D01*
X89338967Y-33835000D01*
X89661033Y-33835000D01*
X89976912Y-33772168D01*
X90274463Y-33648918D01*
X90542252Y-33469987D01*
X90769987Y-33242252D01*
X90948918Y-32974463D01*
X91072168Y-32676912D01*
X91135000Y-32361033D01*
X91135000Y-32038967D01*
X91072168Y-31723088D01*
X90948918Y-31425537D01*
X90769987Y-31157748D01*
X90542252Y-30930013D01*
X90274463Y-30751082D01*
X89976912Y-30627832D01*
X89661033Y-30565000D01*
X89338967Y-30565000D01*
X89023088Y-30627832D01*
X88725537Y-30751082D01*
X88457748Y-30930013D01*
X88230013Y-31157748D01*
X88051082Y-31425537D01*
X87927832Y-31723088D01*
X87865000Y-32038967D01*
X83638072Y-32038967D01*
X83638072Y-31200000D01*
X83625812Y-31075518D01*
X83589502Y-30955820D01*
X83530537Y-30845506D01*
X83451185Y-30748815D01*
X83354494Y-30669463D01*
X83244180Y-30610498D01*
X83124482Y-30574188D01*
X83000000Y-30561928D01*
X81000000Y-30561928D01*
X80875518Y-30574188D01*
X80755820Y-30610498D01*
X80645506Y-30669463D01*
X80548815Y-30748815D01*
X80469463Y-30845506D01*
X80410498Y-30955820D01*
X80374188Y-31075518D01*
X80361928Y-31200000D01*
X73731538Y-31200000D01*
X73709987Y-31167748D01*
X73482252Y-30940013D01*
X73214463Y-30761082D01*
X72916912Y-30637832D01*
X72601033Y-30575000D01*
X72278967Y-30575000D01*
X71963088Y-30637832D01*
X71665537Y-30761082D01*
X71397748Y-30940013D01*
X71170013Y-31167748D01*
X70991082Y-31435537D01*
X70867832Y-31733088D01*
X70805000Y-32048967D01*
X58835000Y-32048967D01*
X58819253Y-31969799D01*
X58811342Y-31889484D01*
X58787916Y-31812259D01*
X58772168Y-31733088D01*
X58741277Y-31658510D01*
X58717851Y-31581286D01*
X58679809Y-31510114D01*
X58648918Y-31435537D01*
X58604073Y-31368422D01*
X58566030Y-31297248D01*
X58514832Y-31234863D01*
X58469987Y-31167748D01*
X58402920Y-31100681D01*
X58351714Y-31038286D01*
X58289319Y-30987080D01*
X58242252Y-30940013D01*
X58186905Y-30903031D01*
X58102752Y-30833969D01*
X58006745Y-30782652D01*
X57974463Y-30761082D01*
X57938593Y-30746224D01*
X57818715Y-30682148D01*
X57688643Y-30642691D01*
X57676912Y-30637832D01*
X57664458Y-30635355D01*
X57510516Y-30588657D01*
X57270322Y-30565000D01*
X57270319Y-30565000D01*
X57190000Y-30557089D01*
X57109681Y-30565000D01*
X49469678Y-30565000D01*
X49229484Y-30588657D01*
X48921285Y-30682148D01*
X48637248Y-30833969D01*
X48388286Y-31038286D01*
X48183969Y-31287248D01*
X48100000Y-31444343D01*
X48016031Y-31287248D01*
X47811714Y-31038286D01*
X47562752Y-30833969D01*
X47278715Y-30682148D01*
X46970516Y-30588657D01*
X46730322Y-30565000D01*
X45380322Y-30565000D01*
X45300000Y-30557089D01*
X44979483Y-30588657D01*
X44850341Y-30627832D01*
X44671285Y-30682148D01*
X44387248Y-30833969D01*
X44138286Y-31038286D01*
X44087084Y-31100677D01*
X42922762Y-32265000D01*
X39531192Y-32265000D01*
X39500000Y-32261928D01*
X37500000Y-32261928D01*
X37375518Y-32274188D01*
X37255820Y-32310498D01*
X37145506Y-32369463D01*
X37048815Y-32448815D01*
X36969463Y-32545506D01*
X36910498Y-32655820D01*
X36874188Y-32775518D01*
X36861928Y-32900000D01*
X36861928Y-33850869D01*
X36857089Y-33900000D01*
X32035000Y-33900000D01*
X32035000Y-33738967D01*
X31972168Y-33423088D01*
X31848918Y-33125537D01*
X31669987Y-32857748D01*
X31442252Y-32630013D01*
X31442233Y-32630000D01*
X31442252Y-32629987D01*
X31669987Y-32402252D01*
X31848918Y-32134463D01*
X31972168Y-31836912D01*
X32035000Y-31521033D01*
X32035000Y-31198967D01*
X31974640Y-30895517D01*
X32970890Y-29899267D01*
X37680338Y-29899267D01*
X37790510Y-30092596D01*
X38036806Y-30208095D01*
X38300903Y-30273324D01*
X38572651Y-30285778D01*
X38841607Y-30244977D01*
X39097435Y-30152490D01*
X39209490Y-30092596D01*
X39319662Y-29899267D01*
X38500000Y-29079605D01*
X37680338Y-29899267D01*
X32970890Y-29899267D01*
X33027816Y-29842342D01*
X33057764Y-29817764D01*
X33155862Y-29698233D01*
X33228754Y-29561860D01*
X33273641Y-29413887D01*
X33285000Y-29298561D01*
X33285000Y-29298554D01*
X33288797Y-29260001D01*
X33285000Y-29221448D01*
X33285000Y-28972651D01*
X37114222Y-28972651D01*
X37155023Y-29241607D01*
X37247510Y-29497435D01*
X37307404Y-29609490D01*
X37500733Y-29719662D01*
X38320395Y-28900000D01*
X38679605Y-28900000D01*
X39499267Y-29719662D01*
X39692596Y-29609490D01*
X39808095Y-29363194D01*
X39873324Y-29099097D01*
X39885778Y-28827349D01*
X39844977Y-28558393D01*
X39752490Y-28302565D01*
X39692596Y-28190510D01*
X39499267Y-28080338D01*
X38679605Y-28900000D01*
X38320395Y-28900000D01*
X37500733Y-28080338D01*
X37307404Y-28190510D01*
X37191905Y-28436806D01*
X37126676Y-28700903D01*
X37114222Y-28972651D01*
X33285000Y-28972651D01*
X33285000Y-27900733D01*
X37680338Y-27900733D01*
X38500000Y-28720395D01*
X39319662Y-27900733D01*
X39209490Y-27707404D01*
X38963194Y-27591905D01*
X38699097Y-27526676D01*
X38427349Y-27514222D01*
X38158393Y-27555023D01*
X37902565Y-27647510D01*
X37790510Y-27707404D01*
X37680338Y-27900733D01*
X33285000Y-27900733D01*
X33285000Y-26538556D01*
X33288797Y-26500000D01*
X33285000Y-26461440D01*
X33285000Y-26461439D01*
X33277548Y-26385778D01*
X33273642Y-26346113D01*
X33228754Y-26198140D01*
X33225791Y-26192596D01*
X33155862Y-26061767D01*
X33057764Y-25942236D01*
X33027811Y-25917654D01*
X31235000Y-24124843D01*
X31235000Y-23125157D01*
X31575157Y-22785000D01*
X31603856Y-22785000D01*
X31635393Y-22801857D01*
X31569000Y-22868250D01*
X31567157Y-22900000D01*
X31574513Y-22974689D01*
X31596299Y-23046508D01*
X31631678Y-23112696D01*
X31679289Y-23170711D01*
X31737304Y-23218322D01*
X31803492Y-23253701D01*
X31875311Y-23275487D01*
X31950000Y-23282843D01*
X32727750Y-23281000D01*
X32823000Y-23185750D01*
X32823000Y-22888072D01*
X33077000Y-22888072D01*
X33077000Y-23185750D01*
X33172250Y-23281000D01*
X33950000Y-23282843D01*
X34024689Y-23275487D01*
X34096508Y-23253701D01*
X34162696Y-23218322D01*
X34220711Y-23170711D01*
X34268322Y-23112696D01*
X34303701Y-23046508D01*
X34325487Y-22974689D01*
X34332843Y-22900000D01*
X34331000Y-22868250D01*
X34264607Y-22801857D01*
X34304494Y-22780537D01*
X34308801Y-22777002D01*
X34331000Y-22777002D01*
X34331000Y-22758784D01*
X34401185Y-22701185D01*
X34480537Y-22604494D01*
X34539502Y-22494180D01*
X34575812Y-22374482D01*
X34588072Y-22250000D01*
X34588072Y-21750000D01*
X34580685Y-21675000D01*
X34583374Y-21647704D01*
X34698102Y-21695226D01*
X34898061Y-21735000D01*
X35101939Y-21735000D01*
X35301898Y-21695226D01*
X35490256Y-21617205D01*
X35659774Y-21503937D01*
X35803937Y-21359774D01*
X35861928Y-21272984D01*
X35861928Y-21600000D01*
X35869315Y-21675000D01*
X35861928Y-21750000D01*
X35861928Y-22250000D01*
X35874188Y-22374482D01*
X35910498Y-22494180D01*
X35969463Y-22604494D01*
X36048815Y-22701185D01*
X36119000Y-22758784D01*
X36119000Y-22777002D01*
X36141199Y-22777002D01*
X36145506Y-22780537D01*
X36185393Y-22801857D01*
X36119000Y-22868250D01*
X36117157Y-22900000D01*
X36124513Y-22974689D01*
X36146299Y-23046508D01*
X36181678Y-23112696D01*
X36229289Y-23170711D01*
X36287304Y-23218322D01*
X36353492Y-23253701D01*
X36425311Y-23275487D01*
X36500000Y-23282843D01*
X37277750Y-23281000D01*
X37373000Y-23185750D01*
X37373000Y-22888072D01*
X37627000Y-22888072D01*
X37627000Y-23185750D01*
X37722250Y-23281000D01*
X38500000Y-23282843D01*
X38574689Y-23275487D01*
X38646508Y-23253701D01*
X38712696Y-23218322D01*
X38770711Y-23170711D01*
X38818322Y-23112696D01*
X38853701Y-23046508D01*
X38875487Y-22974689D01*
X38882843Y-22900000D01*
X38881000Y-22868250D01*
X38814607Y-22801857D01*
X38846144Y-22785000D01*
X39852687Y-22785000D01*
X39853992Y-22798254D01*
X39904528Y-22964850D01*
X39986595Y-23118386D01*
X40097038Y-23252962D01*
X40231614Y-23363405D01*
X40385150Y-23445472D01*
X40551746Y-23496008D01*
X40725000Y-23513072D01*
X41475000Y-23513072D01*
X41648254Y-23496008D01*
X41814850Y-23445472D01*
X41968386Y-23363405D01*
X42102962Y-23252962D01*
X42213405Y-23118386D01*
X42295472Y-22964850D01*
X42346008Y-22798254D01*
X42363072Y-22625000D01*
X42363072Y-21375000D01*
X42636928Y-21375000D01*
X42636928Y-22625000D01*
X42653992Y-22798254D01*
X42704528Y-22964850D01*
X42786595Y-23118386D01*
X42897038Y-23252962D01*
X43031614Y-23363405D01*
X43185150Y-23445472D01*
X43351746Y-23496008D01*
X43525000Y-23513072D01*
X44275000Y-23513072D01*
X44448254Y-23496008D01*
X44614850Y-23445472D01*
X44768386Y-23363405D01*
X44902962Y-23252962D01*
X45013405Y-23118386D01*
X45084702Y-22985000D01*
X45765129Y-22985000D01*
X45774188Y-23076982D01*
X45810498Y-23196680D01*
X45869463Y-23306994D01*
X45948815Y-23403685D01*
X46045506Y-23483037D01*
X46119751Y-23522722D01*
X46033969Y-23627248D01*
X45882148Y-23911285D01*
X45788657Y-24219484D01*
X45757089Y-24540000D01*
X45788657Y-24860516D01*
X45882148Y-25168715D01*
X46033969Y-25452752D01*
X46238286Y-25701714D01*
X46383921Y-25821233D01*
X46224537Y-25952037D01*
X46026155Y-26193765D01*
X45878745Y-26469551D01*
X45787970Y-26768796D01*
X45757319Y-27080000D01*
X45787970Y-27391204D01*
X45878745Y-27690449D01*
X46026155Y-27966235D01*
X46224537Y-28207963D01*
X46466265Y-28406345D01*
X46742051Y-28553755D01*
X47041296Y-28644530D01*
X47274514Y-28667500D01*
X47525486Y-28667500D01*
X47758704Y-28644530D01*
X48057949Y-28553755D01*
X48333735Y-28406345D01*
X48537684Y-28238967D01*
X55565000Y-28238967D01*
X55565000Y-28561033D01*
X55627832Y-28876912D01*
X55751082Y-29174463D01*
X55930013Y-29442252D01*
X56157748Y-29669987D01*
X56425537Y-29848918D01*
X56723088Y-29972168D01*
X57038967Y-30035000D01*
X57361033Y-30035000D01*
X57676912Y-29972168D01*
X57974463Y-29848918D01*
X58242252Y-29669987D01*
X58469987Y-29442252D01*
X58648918Y-29174463D01*
X58772168Y-28876912D01*
X58835000Y-28561033D01*
X58835000Y-28238967D01*
X70805000Y-28238967D01*
X70805000Y-28561033D01*
X70867832Y-28876912D01*
X70991082Y-29174463D01*
X71170013Y-29442252D01*
X71397748Y-29669987D01*
X71665537Y-29848918D01*
X71963088Y-29972168D01*
X72278967Y-30035000D01*
X72601033Y-30035000D01*
X72916912Y-29972168D01*
X73214463Y-29848918D01*
X73482252Y-29669987D01*
X73709987Y-29442252D01*
X73888918Y-29174463D01*
X74012168Y-28876912D01*
X74075000Y-28561033D01*
X74075000Y-28238967D01*
X74012168Y-27923088D01*
X73888918Y-27625537D01*
X73709987Y-27357748D01*
X73482252Y-27130013D01*
X73214463Y-26951082D01*
X72916912Y-26827832D01*
X72773306Y-26799267D01*
X81180338Y-26799267D01*
X81290510Y-26992596D01*
X81536806Y-27108095D01*
X81800903Y-27173324D01*
X82072651Y-27185778D01*
X82341607Y-27144977D01*
X82597435Y-27052490D01*
X82709490Y-26992596D01*
X82819662Y-26799267D01*
X88780338Y-26799267D01*
X88890510Y-26992596D01*
X89136806Y-27108095D01*
X89400903Y-27173324D01*
X89672651Y-27185778D01*
X89941607Y-27144977D01*
X90197435Y-27052490D01*
X90309490Y-26992596D01*
X90419662Y-26799267D01*
X89600000Y-25979605D01*
X88780338Y-26799267D01*
X82819662Y-26799267D01*
X82000000Y-25979605D01*
X81180338Y-26799267D01*
X72773306Y-26799267D01*
X72601033Y-26765000D01*
X72278967Y-26765000D01*
X71963088Y-26827832D01*
X71665537Y-26951082D01*
X71397748Y-27130013D01*
X71170013Y-27357748D01*
X70991082Y-27625537D01*
X70867832Y-27923088D01*
X70805000Y-28238967D01*
X58835000Y-28238967D01*
X58772168Y-27923088D01*
X58648918Y-27625537D01*
X58469987Y-27357748D01*
X58242252Y-27130013D01*
X57974463Y-26951082D01*
X57676912Y-26827832D01*
X57361033Y-26765000D01*
X57038967Y-26765000D01*
X56723088Y-26827832D01*
X56425537Y-26951082D01*
X56157748Y-27130013D01*
X55930013Y-27357748D01*
X55751082Y-27625537D01*
X55627832Y-27923088D01*
X55565000Y-28238967D01*
X48537684Y-28238967D01*
X48575463Y-28207963D01*
X48773845Y-27966235D01*
X48921255Y-27690449D01*
X49012030Y-27391204D01*
X49042681Y-27080000D01*
X49012030Y-26768796D01*
X48921255Y-26469551D01*
X48773845Y-26193765D01*
X48758445Y-26175000D01*
X56787599Y-26175000D01*
X56802250Y-26177914D01*
X56879484Y-26201343D01*
X56959807Y-26209254D01*
X57038967Y-26225000D01*
X57119678Y-26225000D01*
X57200000Y-26232911D01*
X57280322Y-26225000D01*
X57361033Y-26225000D01*
X57440193Y-26209254D01*
X57520516Y-26201343D01*
X57597751Y-26177914D01*
X57676912Y-26162168D01*
X57751479Y-26131281D01*
X57828715Y-26107852D01*
X57899896Y-26069805D01*
X57974463Y-26038918D01*
X58041575Y-25994075D01*
X58112752Y-25956030D01*
X58175138Y-25904831D01*
X58242252Y-25859987D01*
X58299328Y-25802911D01*
X58361713Y-25751713D01*
X58412911Y-25689328D01*
X58469987Y-25632252D01*
X58498708Y-25589267D01*
X71620338Y-25589267D01*
X71730510Y-25782596D01*
X71976806Y-25898095D01*
X72240903Y-25963324D01*
X72512651Y-25975778D01*
X72781607Y-25934977D01*
X72954006Y-25872651D01*
X80614222Y-25872651D01*
X80655023Y-26141607D01*
X80747510Y-26397435D01*
X80807404Y-26509490D01*
X81000733Y-26619662D01*
X81820395Y-25800000D01*
X82179605Y-25800000D01*
X82999267Y-26619662D01*
X83192596Y-26509490D01*
X83308095Y-26263194D01*
X83373324Y-25999097D01*
X83379118Y-25872651D01*
X88214222Y-25872651D01*
X88255023Y-26141607D01*
X88347510Y-26397435D01*
X88407404Y-26509490D01*
X88600733Y-26619662D01*
X89420395Y-25800000D01*
X89779605Y-25800000D01*
X90599267Y-26619662D01*
X90792596Y-26509490D01*
X90908095Y-26263194D01*
X90973324Y-25999097D01*
X90985778Y-25727349D01*
X90944977Y-25458393D01*
X90852490Y-25202565D01*
X90792596Y-25090510D01*
X90599267Y-24980338D01*
X89779605Y-25800000D01*
X89420395Y-25800000D01*
X88600733Y-24980338D01*
X88407404Y-25090510D01*
X88291905Y-25336806D01*
X88226676Y-25600903D01*
X88214222Y-25872651D01*
X83379118Y-25872651D01*
X83385778Y-25727349D01*
X83344977Y-25458393D01*
X83252490Y-25202565D01*
X83192596Y-25090510D01*
X82999267Y-24980338D01*
X82179605Y-25800000D01*
X81820395Y-25800000D01*
X81000733Y-24980338D01*
X80807404Y-25090510D01*
X80691905Y-25336806D01*
X80626676Y-25600903D01*
X80614222Y-25872651D01*
X72954006Y-25872651D01*
X73037435Y-25842490D01*
X73149490Y-25782596D01*
X73259662Y-25589267D01*
X72440000Y-24769605D01*
X71620338Y-25589267D01*
X58498708Y-25589267D01*
X58514831Y-25565138D01*
X58566030Y-25502752D01*
X58604075Y-25431575D01*
X58648918Y-25364463D01*
X58679805Y-25289896D01*
X58717852Y-25218715D01*
X58741281Y-25141479D01*
X58772168Y-25066912D01*
X58787914Y-24987751D01*
X58811343Y-24910516D01*
X58819254Y-24830193D01*
X58835000Y-24751033D01*
X58835000Y-24670322D01*
X58835755Y-24662651D01*
X71054222Y-24662651D01*
X71095023Y-24931607D01*
X71187510Y-25187435D01*
X71247404Y-25299490D01*
X71440733Y-25409662D01*
X72260395Y-24590000D01*
X72619605Y-24590000D01*
X73439267Y-25409662D01*
X73632596Y-25299490D01*
X73748095Y-25053194D01*
X73810450Y-24800733D01*
X81180338Y-24800733D01*
X82000000Y-25620395D01*
X82819662Y-24800733D01*
X88780338Y-24800733D01*
X89600000Y-25620395D01*
X90419662Y-24800733D01*
X90309490Y-24607404D01*
X90063194Y-24491905D01*
X89799097Y-24426676D01*
X89527349Y-24414222D01*
X89258393Y-24455023D01*
X89002565Y-24547510D01*
X88890510Y-24607404D01*
X88780338Y-24800733D01*
X82819662Y-24800733D01*
X82709490Y-24607404D01*
X82463194Y-24491905D01*
X82199097Y-24426676D01*
X81927349Y-24414222D01*
X81658393Y-24455023D01*
X81402565Y-24547510D01*
X81290510Y-24607404D01*
X81180338Y-24800733D01*
X73810450Y-24800733D01*
X73813324Y-24789097D01*
X73825778Y-24517349D01*
X73784977Y-24248393D01*
X73692490Y-23992565D01*
X73632596Y-23880510D01*
X73439267Y-23770338D01*
X72619605Y-24590000D01*
X72260395Y-24590000D01*
X71440733Y-23770338D01*
X71247404Y-23880510D01*
X71131905Y-24126806D01*
X71066676Y-24390903D01*
X71054222Y-24662651D01*
X58835755Y-24662651D01*
X58842911Y-24590000D01*
X58835000Y-24509678D01*
X58835000Y-24428967D01*
X58819254Y-24349807D01*
X58811343Y-24269484D01*
X58787914Y-24192250D01*
X58772168Y-24113088D01*
X58741280Y-24038519D01*
X58717852Y-23961286D01*
X58679806Y-23890108D01*
X58648918Y-23815537D01*
X58604074Y-23748424D01*
X58566030Y-23677248D01*
X58514830Y-23614860D01*
X58498709Y-23590733D01*
X71620338Y-23590733D01*
X72440000Y-24410395D01*
X73259662Y-23590733D01*
X73149490Y-23397404D01*
X72903194Y-23281905D01*
X72639097Y-23216676D01*
X72367349Y-23204222D01*
X72098393Y-23245023D01*
X71842565Y-23337510D01*
X71730510Y-23397404D01*
X71620338Y-23590733D01*
X58498709Y-23590733D01*
X58469987Y-23547748D01*
X58362920Y-23440681D01*
X58311714Y-23378286D01*
X58249319Y-23327080D01*
X58242252Y-23320013D01*
X58233942Y-23314460D01*
X58062752Y-23173969D01*
X57778715Y-23022148D01*
X57470516Y-22928657D01*
X57230322Y-22905000D01*
X57230319Y-22905000D01*
X57150000Y-22897089D01*
X57069681Y-22905000D01*
X49038072Y-22905000D01*
X49038072Y-21047500D01*
X49025812Y-20923018D01*
X48989502Y-20803320D01*
X48930537Y-20693006D01*
X48851185Y-20596315D01*
X48754494Y-20516963D01*
X48644180Y-20457998D01*
X48524482Y-20421688D01*
X48400000Y-20409428D01*
X46400000Y-20409428D01*
X46275518Y-20421688D01*
X46155820Y-20457998D01*
X46045506Y-20516963D01*
X45948815Y-20596315D01*
X45869463Y-20693006D01*
X45810498Y-20803320D01*
X45774188Y-20923018D01*
X45765129Y-21015000D01*
X45084702Y-21015000D01*
X45013405Y-20881614D01*
X44902962Y-20747038D01*
X44838223Y-20693909D01*
X44843322Y-20687696D01*
X44878701Y-20621508D01*
X44900487Y-20549689D01*
X44907843Y-20475000D01*
X44906000Y-19822250D01*
X44863750Y-19780000D01*
X55561928Y-19780000D01*
X55561928Y-21780000D01*
X55574188Y-21904482D01*
X55610498Y-22024180D01*
X55669463Y-22134494D01*
X55748815Y-22231185D01*
X55845506Y-22310537D01*
X55955820Y-22369502D01*
X56075518Y-22405812D01*
X56200000Y-22418072D01*
X58200000Y-22418072D01*
X58324482Y-22405812D01*
X58444180Y-22369502D01*
X58554494Y-22310537D01*
X58651185Y-22231185D01*
X58730537Y-22134494D01*
X58789502Y-22024180D01*
X58825812Y-21904482D01*
X58838072Y-21780000D01*
X58838072Y-20618967D01*
X70805000Y-20618967D01*
X70805000Y-20941033D01*
X70867832Y-21256912D01*
X70991082Y-21554463D01*
X71170013Y-21822252D01*
X71397748Y-22049987D01*
X71665537Y-22228918D01*
X71963088Y-22352168D01*
X72278967Y-22415000D01*
X72601033Y-22415000D01*
X72916912Y-22352168D01*
X73214463Y-22228918D01*
X73482252Y-22049987D01*
X73709987Y-21822252D01*
X73888918Y-21554463D01*
X74012168Y-21256912D01*
X74075000Y-20941033D01*
X74075000Y-20618967D01*
X74012168Y-20303088D01*
X73888918Y-20005537D01*
X73751583Y-19800000D01*
X80361928Y-19800000D01*
X80361928Y-21800000D01*
X80374188Y-21924482D01*
X80410498Y-22044180D01*
X80469463Y-22154494D01*
X80548815Y-22251185D01*
X80645506Y-22330537D01*
X80755820Y-22389502D01*
X80875518Y-22425812D01*
X81000000Y-22438072D01*
X83000000Y-22438072D01*
X83124482Y-22425812D01*
X83244180Y-22389502D01*
X83354494Y-22330537D01*
X83451185Y-22251185D01*
X83530537Y-22154494D01*
X83589502Y-22044180D01*
X83625812Y-21924482D01*
X83638072Y-21800000D01*
X83638072Y-20638967D01*
X87965000Y-20638967D01*
X87965000Y-20961033D01*
X88027832Y-21276912D01*
X88151082Y-21574463D01*
X88330013Y-21842252D01*
X88557748Y-22069987D01*
X88825537Y-22248918D01*
X89123088Y-22372168D01*
X89438967Y-22435000D01*
X89761033Y-22435000D01*
X90076912Y-22372168D01*
X90374463Y-22248918D01*
X90642252Y-22069987D01*
X90869987Y-21842252D01*
X91048918Y-21574463D01*
X91172168Y-21276912D01*
X91235000Y-20961033D01*
X91235000Y-20638967D01*
X91172168Y-20323088D01*
X91048918Y-20025537D01*
X90869987Y-19757748D01*
X90642252Y-19530013D01*
X90374463Y-19351082D01*
X90076912Y-19227832D01*
X89761033Y-19165000D01*
X89438967Y-19165000D01*
X89123088Y-19227832D01*
X88825537Y-19351082D01*
X88557748Y-19530013D01*
X88330013Y-19757748D01*
X88151082Y-20025537D01*
X88027832Y-20323088D01*
X87965000Y-20638967D01*
X83638072Y-20638967D01*
X83638072Y-19800000D01*
X83625812Y-19675518D01*
X83589502Y-19555820D01*
X83530537Y-19445506D01*
X83451185Y-19348815D01*
X83354494Y-19269463D01*
X83244180Y-19210498D01*
X83124482Y-19174188D01*
X83000000Y-19161928D01*
X81000000Y-19161928D01*
X80875518Y-19174188D01*
X80755820Y-19210498D01*
X80645506Y-19269463D01*
X80548815Y-19348815D01*
X80469463Y-19445506D01*
X80410498Y-19555820D01*
X80374188Y-19675518D01*
X80361928Y-19800000D01*
X73751583Y-19800000D01*
X73709987Y-19737748D01*
X73482252Y-19510013D01*
X73214463Y-19331082D01*
X72916912Y-19207832D01*
X72601033Y-19145000D01*
X72278967Y-19145000D01*
X71963088Y-19207832D01*
X71665537Y-19331082D01*
X71397748Y-19510013D01*
X71170013Y-19737748D01*
X70991082Y-20005537D01*
X70867832Y-20303088D01*
X70805000Y-20618967D01*
X58838072Y-20618967D01*
X58838072Y-19780000D01*
X58825812Y-19655518D01*
X58789502Y-19535820D01*
X58730537Y-19425506D01*
X58651185Y-19328815D01*
X58554494Y-19249463D01*
X58444180Y-19190498D01*
X58324482Y-19154188D01*
X58200000Y-19141928D01*
X56200000Y-19141928D01*
X56075518Y-19154188D01*
X55955820Y-19190498D01*
X55845506Y-19249463D01*
X55748815Y-19328815D01*
X55669463Y-19425506D01*
X55610498Y-19535820D01*
X55574188Y-19655518D01*
X55561928Y-19780000D01*
X44863750Y-19780000D01*
X44810750Y-19727000D01*
X44027000Y-19727000D01*
X44027000Y-19747000D01*
X43773000Y-19747000D01*
X43773000Y-19727000D01*
X42989250Y-19727000D01*
X42894000Y-19822250D01*
X42892157Y-20475000D01*
X42899513Y-20549689D01*
X42921299Y-20621508D01*
X42956678Y-20687696D01*
X42961777Y-20693909D01*
X42897038Y-20747038D01*
X42786595Y-20881614D01*
X42704528Y-21035150D01*
X42653992Y-21201746D01*
X42636928Y-21375000D01*
X42363072Y-21375000D01*
X42346008Y-21201746D01*
X42295472Y-21035150D01*
X42213405Y-20881614D01*
X42146427Y-20800000D01*
X42213405Y-20718386D01*
X42295472Y-20564850D01*
X42346008Y-20398254D01*
X42363072Y-20225000D01*
X42363072Y-18975000D01*
X42346008Y-18801746D01*
X42322728Y-18725000D01*
X42892157Y-18725000D01*
X42894000Y-19377750D01*
X42989250Y-19473000D01*
X43773000Y-19473000D01*
X43773000Y-18439250D01*
X44027000Y-18439250D01*
X44027000Y-19473000D01*
X44810750Y-19473000D01*
X44906000Y-19377750D01*
X44907843Y-18725000D01*
X44900487Y-18650311D01*
X44878701Y-18578492D01*
X44843322Y-18512304D01*
X44795711Y-18454289D01*
X44737696Y-18406678D01*
X44671508Y-18371299D01*
X44599689Y-18349513D01*
X44525000Y-18342157D01*
X44122250Y-18344000D01*
X44027000Y-18439250D01*
X43773000Y-18439250D01*
X43677750Y-18344000D01*
X43275000Y-18342157D01*
X43200311Y-18349513D01*
X43128492Y-18371299D01*
X43062304Y-18406678D01*
X43004289Y-18454289D01*
X42956678Y-18512304D01*
X42921299Y-18578492D01*
X42899513Y-18650311D01*
X42892157Y-18725000D01*
X42322728Y-18725000D01*
X42295472Y-18635150D01*
X42213405Y-18481614D01*
X42102962Y-18347038D01*
X41968386Y-18236595D01*
X41814850Y-18154528D01*
X41648254Y-18103992D01*
X41475000Y-18086928D01*
X40725000Y-18086928D01*
X40551746Y-18103992D01*
X40385150Y-18154528D01*
X40231614Y-18236595D01*
X40097038Y-18347038D01*
X39986595Y-18481614D01*
X39904528Y-18635150D01*
X39853992Y-18801746D01*
X39851621Y-18825816D01*
X39846113Y-18826359D01*
X39698140Y-18871246D01*
X39561767Y-18944138D01*
X39442236Y-19042236D01*
X39417653Y-19072190D01*
X39172185Y-19317658D01*
X39142237Y-19342236D01*
X39117659Y-19372184D01*
X39117655Y-19372188D01*
X39084690Y-19412356D01*
X39044139Y-19461767D01*
X39038135Y-19473000D01*
X38971246Y-19598141D01*
X38926359Y-19746114D01*
X38911203Y-19900000D01*
X38915001Y-19938562D01*
X38915001Y-19969120D01*
X38854494Y-19919463D01*
X38744180Y-19860498D01*
X38624482Y-19824188D01*
X38500000Y-19811928D01*
X38495258Y-19811928D01*
X38558447Y-19693709D01*
X38608628Y-19528285D01*
X38625572Y-19356250D01*
X38625572Y-18443750D01*
X38608628Y-18271715D01*
X38558447Y-18106291D01*
X38488424Y-17975287D01*
X38503937Y-17959774D01*
X38617205Y-17790256D01*
X38695226Y-17601898D01*
X38735000Y-17401939D01*
X38735000Y-17198061D01*
X38695226Y-16998102D01*
X38617205Y-16809744D01*
X38503937Y-16640226D01*
X38359774Y-16496063D01*
X38190256Y-16382795D01*
X38001898Y-16304774D01*
X37801939Y-16265000D01*
X37598061Y-16265000D01*
X37398102Y-16304774D01*
X37209744Y-16382795D01*
X37040226Y-16496063D01*
X36896063Y-16640226D01*
X36782795Y-16809744D01*
X36773169Y-16832984D01*
X36677041Y-16950116D01*
X36651392Y-16998102D01*
X36585576Y-17121234D01*
X36529253Y-17306907D01*
X36510235Y-17500000D01*
X36515001Y-17548389D01*
X36515001Y-17968880D01*
X36467495Y-18057757D01*
X36466201Y-18053492D01*
X36430822Y-17987304D01*
X36383211Y-17929289D01*
X36325196Y-17881678D01*
X36259008Y-17846299D01*
X36187189Y-17824513D01*
X36112500Y-17817157D01*
X35847250Y-17819000D01*
X35752000Y-17914250D01*
X35752000Y-18773000D01*
X35772000Y-18773000D01*
X35772000Y-19027000D01*
X35752000Y-19027000D01*
X35752000Y-19047000D01*
X35498000Y-19047000D01*
X35498000Y-19027000D01*
X34851750Y-19027000D01*
X34756500Y-19122250D01*
X34754657Y-19600000D01*
X34762013Y-19674689D01*
X34766983Y-19691073D01*
X34698102Y-19704774D01*
X34509744Y-19782795D01*
X34340226Y-19896063D01*
X34321289Y-19915000D01*
X34296144Y-19915000D01*
X34194180Y-19860498D01*
X34074482Y-19824188D01*
X33950000Y-19811928D01*
X31950000Y-19811928D01*
X31825518Y-19824188D01*
X31705820Y-19860498D01*
X31595506Y-19919463D01*
X31498815Y-19998815D01*
X31419463Y-20095506D01*
X31360498Y-20205820D01*
X31324188Y-20325518D01*
X31311928Y-20450000D01*
X31311928Y-20565000D01*
X29634861Y-20565000D01*
X29595472Y-20435150D01*
X29513405Y-20281614D01*
X29402962Y-20147038D01*
X29268386Y-20036595D01*
X29114850Y-19954528D01*
X28948254Y-19903992D01*
X28775000Y-19886928D01*
X28025000Y-19886928D01*
X27851746Y-19903992D01*
X27685150Y-19954528D01*
X27531614Y-20036595D01*
X27397038Y-20147038D01*
X27286595Y-20281614D01*
X27204528Y-20435150D01*
X27153992Y-20601746D01*
X27136928Y-20775000D01*
X26863072Y-20775000D01*
X26846008Y-20601746D01*
X26795472Y-20435150D01*
X26713405Y-20281614D01*
X26602962Y-20147038D01*
X26468386Y-20036595D01*
X26314850Y-19954528D01*
X26148254Y-19903992D01*
X25975000Y-19886928D01*
X25225000Y-19886928D01*
X25051746Y-19903992D01*
X24885150Y-19954528D01*
X24731614Y-20036595D01*
X24597038Y-20147038D01*
X24486595Y-20281614D01*
X24404528Y-20435150D01*
X24353992Y-20601746D01*
X24336928Y-20775000D01*
X21348559Y-20775000D01*
X21348918Y-20774463D01*
X21379806Y-20699894D01*
X21417851Y-20628716D01*
X21441279Y-20551485D01*
X21472168Y-20476912D01*
X21487915Y-20397744D01*
X21511342Y-20320517D01*
X21519253Y-20240200D01*
X21535000Y-20161033D01*
X21535000Y-20080320D01*
X21542911Y-20000001D01*
X21535000Y-19919681D01*
X21535000Y-19838967D01*
X21519253Y-19759799D01*
X21511342Y-19679484D01*
X21487916Y-19602259D01*
X21472168Y-19523088D01*
X21441277Y-19448510D01*
X21417851Y-19371286D01*
X21379809Y-19300114D01*
X21348918Y-19225537D01*
X21304073Y-19158422D01*
X21266030Y-19087248D01*
X21214831Y-19024862D01*
X21169987Y-18957748D01*
X21112911Y-18900672D01*
X21061713Y-18838287D01*
X20999328Y-18787089D01*
X20942252Y-18730013D01*
X20875138Y-18685169D01*
X20812752Y-18633970D01*
X20741578Y-18595927D01*
X20674463Y-18551082D01*
X20599886Y-18520191D01*
X20528714Y-18482149D01*
X20451490Y-18458723D01*
X20376912Y-18427832D01*
X20297741Y-18412084D01*
X20220516Y-18388658D01*
X20140201Y-18380747D01*
X20061033Y-18365000D01*
X19980319Y-18365000D01*
X19899999Y-18357089D01*
X19819680Y-18365000D01*
X19738967Y-18365000D01*
X19659800Y-18380747D01*
X19579483Y-18388658D01*
X19502256Y-18412085D01*
X19423088Y-18427832D01*
X19348515Y-18458721D01*
X19271284Y-18482149D01*
X19200106Y-18520194D01*
X19125537Y-18551082D01*
X19058427Y-18595923D01*
X18987247Y-18633970D01*
X18924857Y-18685172D01*
X18857748Y-18730013D01*
X18800676Y-18787085D01*
X15900682Y-21687080D01*
X15838287Y-21738286D01*
X15660000Y-21955530D01*
X15660000Y-18200000D01*
X34754657Y-18200000D01*
X34756500Y-18677750D01*
X34851750Y-18773000D01*
X35498000Y-18773000D01*
X35498000Y-17914250D01*
X35402750Y-17819000D01*
X35137500Y-17817157D01*
X35062811Y-17824513D01*
X34990992Y-17846299D01*
X34924804Y-17881678D01*
X34866789Y-17929289D01*
X34819178Y-17987304D01*
X34783799Y-18053492D01*
X34762013Y-18125311D01*
X34754657Y-18200000D01*
X15660000Y-18200000D01*
X15660000Y-15660000D01*
X93340001Y-15660000D01*
X93340000Y-40340000D01*
M02*
