M48
; DRILL file {KiCad 5.1.5+dfsg1-2build2} date Tue 02 Feb 2021 09:52:36 AM EET
; FORMAT={-:-/ absolute / inch / decimal}
; #@! TF.CreationDate,2021-02-02T09:52:36+02:00
; #@! TF.GenerationSoftware,Kicad,Pcbnew,5.1.5+dfsg1-2build2
FMAT,2
INCH
T1C0.0157
T2C0.0276
T3C0.0394
T4C0.0433
%
G90
G05
T1
X1.2953Y-0.9331
X1.3504Y-0.7677
X1.378Y-0.815
X1.4075Y-0.8917
X1.4843Y-0.6811
X1.5394Y-0.9173
T2
X1.1969Y-1.1346
X1.1969Y-1.2346
X1.1969Y-1.3346
T3
X1.5157Y-1.1378
X1.5157Y-1.3346
X0.7835Y-0.7874
X0.7835Y-0.9843
X0.7795Y-1.311
X0.9764Y-1.311
X1.7323Y-1.4764
X1.9291Y-1.4764
X2.252Y-0.8181
X2.252Y-0.9681
X2.252Y-1.1181
X2.252Y-1.2681
X2.252Y-1.4181
X2.852Y-0.8181
X2.852Y-0.9681
X2.852Y-1.1181
X2.852Y-1.2681
X2.852Y-1.4181
X3.5236Y-1.2677
X3.5236Y-1.4646
X3.2283Y-1.2677
X3.2283Y-1.4646
X3.2283Y-0.8189
X3.2283Y-1.0157
X3.5276Y-0.8189
X3.5276Y-1.0157
T4
X1.8661Y-0.8661
X1.8661Y-0.9661
X1.8661Y-1.0661
T0
M30
